<svg width="12" height="12" viewBox="0 0 12 12" fill="none" xmlns="http://www.w3.org/2000/svg">
<path d="M3.58865 5.86865C3.58865 6.00088 3.63777 6.11422 3.74355 6.21245L6.68282 9.09127C6.76594 9.17439 6.87172 9.21972 6.9964 9.21972C7.24574 9.21972 7.44598 9.02327 7.44598 8.77014C7.44598 8.64547 7.39308 8.53591 7.30997 8.44901L4.6616 5.86865L7.30997 3.28829C7.39308 3.20139 7.44598 3.08805 7.44598 2.96716C7.44598 2.71403 7.24574 2.51758 6.9964 2.51758C6.87172 2.51758 6.76594 2.56291 6.68282 2.64603L3.74355 5.52108C3.63777 5.62308 3.58865 5.73642 3.58865 5.86865Z" fill="#B8B8B8"/>
</svg>
