<svg width="210" height="210" viewBox="0 0 210 210" fill="none" xmlns="http://www.w3.org/2000/svg">
<g clip-path="url(#clip0_576_25570)">
<g clip-path="url(#clip1_576_25570)">
<path fill-rule="evenodd" clip-rule="evenodd" d="M207.435 40.6106C208.816 41.2682 209.402 42.9217 208.744 44.3026L208.67 44.4566C208.012 45.8358 206.361 46.4211 204.981 45.7644V45.7644C203.6 45.1069 203.014 43.4533 203.672 42.0724L203.746 41.9184C204.404 40.5392 206.055 39.9539 207.435 40.6106V40.6106ZM200.061 56.0655C201.443 56.723 202.029 58.3765 201.37 59.7575L198.839 65.0631C198.181 66.4423 196.53 67.0276 195.151 66.3709V66.3709C193.769 65.7133 193.183 64.0598 193.842 62.6789L196.373 57.3733C197.031 55.9941 198.682 55.4088 200.061 56.0655V56.0655ZM190.231 76.6719C191.612 77.3295 192.199 78.983 191.54 80.364L189.009 85.6695C188.351 87.0487 186.7 87.634 185.32 86.9773V86.9773C183.938 86.3198 183.352 84.6663 184.011 83.2853L186.542 77.9797C187.2 76.6006 188.851 76.0152 190.231 76.6719V76.6719ZM180.4 97.2784C181.782 97.936 182.368 99.5895 181.709 100.97L179.178 106.276C178.52 107.655 176.869 108.241 175.489 107.584V107.584C174.108 106.926 173.521 105.273 174.18 103.892L176.711 98.5862C177.369 97.207 179.02 96.6217 180.4 97.2784V97.2784ZM170.569 117.885C171.951 118.542 172.537 120.196 171.878 121.577L169.347 126.882C168.689 128.262 167.038 128.847 165.658 128.19V128.19C164.277 127.533 163.691 125.879 164.349 124.498L166.881 119.193C167.539 117.813 169.19 117.228 170.569 117.885V117.885ZM160.739 138.491C162.12 139.149 162.706 140.802 162.048 142.183L159.516 147.489C158.858 148.868 157.208 149.453 155.828 148.797V148.797C154.446 148.139 153.86 146.486 154.519 145.105L157.05 139.799C157.708 138.42 159.359 137.835 160.739 138.491V138.491ZM150.908 159.098C152.289 159.755 152.876 161.409 152.217 162.79L149.686 168.095C149.028 169.475 147.377 170.06 145.997 169.403V169.403C144.615 168.746 144.029 167.092 144.688 165.711L147.219 160.406C147.877 159.026 149.528 158.441 150.908 159.098V159.098ZM141.077 179.704C142.459 180.362 143.045 182.015 142.386 183.396L139.855 188.702C139.197 190.081 137.546 190.666 136.166 190.01V190.01C134.785 189.352 134.198 187.699 134.857 186.318L137.388 181.012C138.046 179.633 139.697 179.048 141.077 179.704V179.704ZM131.246 200.311C132.628 200.968 133.214 202.622 132.555 204.003L132.482 204.157C131.824 205.536 130.173 206.121 128.793 205.465V205.465C127.412 204.807 126.825 203.153 127.484 201.773L127.558 201.619C128.216 200.239 129.867 199.654 131.246 200.311V200.311Z" fill="#FFC700" stroke="black" stroke-width="1.52056" stroke-miterlimit="10"/>
<path fill-rule="evenodd" clip-rule="evenodd" d="M382.823 -90.6755C383.606 -89.3852 383.193 -87.705 381.902 -86.924V-86.924C380.613 -86.1441 378.936 -86.556 378.154 -87.8443L378.116 -87.9072C377.334 -89.1974 377.747 -90.8776 379.038 -91.6587V-91.6587C380.327 -92.4385 382.004 -92.0266 382.785 -90.7383L382.823 -90.6755ZM368.789 -82.2285C369.582 -80.9209 369.164 -79.218 367.856 -78.4265L363.247 -75.6386C361.941 -74.8482 360.241 -75.2657 359.449 -76.5713V-76.5713C358.656 -77.8789 359.075 -79.5818 360.383 -80.3733L364.991 -83.1612C366.298 -83.9516 367.998 -83.5341 368.789 -82.2285V-82.2285ZM350.103 -70.9241C350.896 -69.6165 350.478 -67.9137 349.169 -67.1221L344.561 -64.3342C343.255 -63.5439 341.555 -63.9613 340.763 -65.267V-65.267C339.97 -66.5746 340.388 -68.2774 341.697 -69.0689L346.305 -71.8568C347.612 -72.6472 349.311 -72.2298 350.103 -70.9241V-70.9241ZM331.417 -59.6197C332.21 -58.3121 331.792 -56.6093 330.483 -55.8177L325.875 -53.0299C324.568 -52.2395 322.869 -52.6569 322.077 -53.9626V-53.9626C321.284 -55.2702 321.702 -56.973 323.011 -57.7646L327.619 -60.5525C328.925 -61.3428 330.625 -60.9254 331.417 -59.6197V-59.6197ZM312.731 -48.3153C313.524 -47.0077 313.105 -45.3049 311.797 -44.5134L307.189 -41.7255C305.882 -40.9351 304.182 -41.3526 303.391 -42.6582V-42.6582C302.598 -43.9658 303.016 -45.6686 304.324 -46.4602L308.933 -49.2481C310.239 -50.0384 311.939 -49.621 312.731 -48.3153V-48.3153ZM294.045 -37.011C294.837 -35.7034 294.419 -34.0005 293.111 -33.209L288.502 -30.4211C287.196 -29.6307 285.496 -30.0482 284.704 -31.3538V-31.3538C283.912 -32.6614 284.33 -34.3643 285.638 -35.1558L290.247 -37.9437C291.553 -38.7341 293.253 -38.3166 294.045 -37.011V-37.011ZM275.358 -25.7066C276.151 -24.399 275.733 -22.6962 274.425 -21.9046L269.816 -19.1167C268.51 -18.3263 266.81 -18.7438 266.018 -20.0495V-20.0495C265.225 -21.357 265.644 -23.0599 266.952 -23.8514L271.56 -26.6393C272.867 -27.4297 274.567 -27.0122 275.358 -25.7066V-25.7066ZM256.672 -14.4022C257.465 -13.0946 257.047 -11.3918 255.738 -10.6002L251.13 -7.81233C249.824 -7.02196 248.124 -7.43941 247.332 -8.74508V-8.74508C246.539 -10.0527 246.957 -11.7555 248.266 -12.547L252.874 -15.3349C254.181 -16.1253 255.88 -15.7079 256.672 -14.4022V-14.4022ZM237.986 -3.0978C238.779 -1.79021 238.361 -0.0873714 237.052 0.704165L232.444 3.49204C231.137 4.28242 229.438 3.86497 228.646 2.5593V2.5593C227.853 1.25172 228.271 -0.451123 229.58 -1.24266L234.188 -4.03054C235.494 -4.82091 237.194 -4.40347 237.986 -3.0978V-3.0978ZM219.3 8.20658C220.093 9.51417 219.674 11.217 218.366 12.0085L213.758 14.7964C212.451 15.5868 210.751 15.1694 209.96 13.8637V13.8637C209.167 12.5561 209.585 10.8533 210.893 10.0617L215.502 7.27384C216.808 6.48347 218.508 6.90091 219.3 8.20658V8.20658ZM200.614 19.511C201.406 20.8185 200.988 22.5214 199.68 23.3129L195.071 26.1008C193.765 26.8912 192.065 26.4738 191.273 25.1681V25.1681C190.481 23.8605 190.899 22.1577 192.207 21.3661L196.816 18.5782C198.122 17.7878 199.822 18.2053 200.614 19.511V19.511ZM181.927 30.8154C182.72 32.123 182.302 33.8258 180.994 34.6173L176.385 37.4052C175.079 38.1956 173.379 37.7782 172.587 36.4725V36.4725C171.794 35.1649 172.213 33.4621 173.521 32.6705L178.129 29.8826C179.436 29.0923 181.136 29.5097 181.927 30.8154V30.8154ZM163.241 42.1198C164.034 43.4274 163.616 45.1302 162.307 45.9217L157.699 48.7096C156.393 49.5 154.693 49.0826 153.901 47.7769V47.7769C153.108 46.4693 153.526 44.7665 154.835 43.9749L159.443 41.187C160.75 40.3967 162.449 40.8141 163.241 42.1198V42.1198ZM144.555 53.4242C145.348 54.7318 144.93 56.4346 143.621 57.2261L139.013 60.014C137.706 60.8044 136.006 60.387 135.215 59.0813V59.0813C134.422 57.7737 134.84 56.0709 136.148 55.2793L140.757 52.4914C142.063 51.7011 143.763 52.1185 144.555 53.4242V53.4242ZM125.869 64.7286C126.662 66.0362 126.243 67.739 124.935 68.5305L120.327 71.3184C119.02 72.1088 117.32 71.6914 116.529 70.3857V70.3857C115.736 69.0781 116.154 67.3753 117.462 66.5837L122.071 63.7958C123.377 63.0055 125.077 63.4229 125.869 64.7286V64.7286ZM107.182 76.033C107.975 77.3406 107.557 79.0434 106.249 79.8349L101.64 82.6228C100.334 83.4132 98.634 82.9958 97.8423 81.6901V81.6901C97.0494 80.3825 97.4676 78.6797 98.776 77.8881L103.384 75.1002C104.691 74.3099 106.391 74.7273 107.182 76.033V76.033ZM88.4962 87.3374C89.2891 88.645 88.8709 90.3478 87.5625 91.1393L82.9541 93.9272C81.6476 94.7176 79.9478 94.3002 79.156 92.9945V92.9945C78.3631 91.6869 78.7813 89.9841 80.0898 89.1925L84.6982 86.4046C86.0047 85.6143 87.7045 86.0317 88.4962 87.3374V87.3374ZM69.8099 98.6418C70.6028 99.9494 70.1846 101.652 68.8762 102.444L64.2678 105.232C62.9613 106.022 61.2616 105.605 60.4698 104.299V104.299C59.6769 102.991 60.0951 101.288 61.4035 100.497L66.0119 97.709C67.3184 96.9187 69.0182 97.3361 69.8099 98.6418V98.6418ZM51.1237 109.946C51.9166 111.254 51.4984 112.957 50.19 113.748L45.5816 116.536C44.2751 117.326 42.5753 116.909 41.7836 115.603V115.603C40.9907 114.296 41.4089 112.593 42.7173 111.801L47.3257 109.013C48.6322 108.223 50.332 108.641 51.1237 109.946V109.946ZM32.4375 121.251C33.2304 122.558 32.8122 124.261 31.5038 125.053L26.8954 127.84C25.5889 128.631 23.8891 128.213 23.0974 126.908V126.908C22.3045 125.6 22.7226 123.897 24.0311 123.106L28.6395 120.318C29.946 119.527 31.6458 119.945 32.4375 121.251V121.251ZM13.7513 132.555C14.5442 133.863 14.126 135.565 12.8175 136.357L8.20914 139.145C6.90266 139.935 5.20287 139.518 4.41114 138.212V138.212C3.61824 136.904 4.03643 135.202 5.34485 134.41L9.95325 131.622C11.2597 130.832 12.9595 131.249 13.7513 132.555V132.555ZM-4.93497 143.859C-4.14207 145.167 -4.56026 146.87 -5.86867 147.661L-10.4771 150.449C-11.7836 151.24 -13.4834 150.822 -14.2751 149.516V149.516C-15.068 148.209 -14.6498 146.506 -13.3414 145.715L-8.73298 142.927C-7.42649 142.136 -5.7267 142.554 -4.93497 143.859V143.859ZM-23.6212 155.164C-22.8283 156.471 -23.2465 158.174 -24.5549 158.966L-29.1633 161.754C-30.4698 162.544 -32.1696 162.127 -32.9613 160.821V160.821C-33.7542 159.513 -33.336 157.81 -32.0276 157.019L-27.4192 154.231C-26.1127 153.441 -24.4129 153.858 -23.6212 155.164V155.164ZM-42.2883 166.5C-41.506 167.79 -41.9186 169.47 -43.2095 170.251V170.251C-44.4986 171.031 -46.1757 170.619 -46.9569 169.331L-46.9952 169.268C-47.7775 167.977 -47.3649 166.297 -46.0739 165.516V165.516C-44.7848 164.737 -43.1077 165.148 -42.3265 166.437L-42.2883 166.5Z" fill="#FFC700" stroke="black" stroke-width="1.52056" stroke-miterlimit="10"/>
</g>
</g>
<defs>
<clipPath id="clip0_576_25570">
<rect width="210" height="210" fill="white"/>
</clipPath>
<clipPath id="clip1_576_25570">
<rect width="469" height="469" fill="white" transform="translate(-66 -79)"/>
</clipPath>
</defs>
</svg>
