<svg width="210" height="210" viewBox="0 0 210 210" fill="none" xmlns="http://www.w3.org/2000/svg">
<g clip-path="url(#clip0_576_25568)">
<mask id="path-1-outside-1_576_25568" maskUnits="userSpaceOnUse" x="-10" y="3" width="244" height="217" fill="black">
<rect fill="white" x="-10" y="3" width="244" height="217"/>
<path fill-rule="evenodd" clip-rule="evenodd" d="M69.7986 11.6868C70.346 8.69802 74.6302 8.6982 75.1774 11.6871L75.3915 12.8567C75.5493 13.7185 74.9695 14.5422 74.1049 14.6843L72.6699 14.9203C72.6239 14.9279 72.5803 14.8972 72.5719 14.8514V14.8514C72.5548 14.758 72.4209 14.758 72.4038 14.8515V14.8515C72.3954 14.8973 72.3518 14.928 72.3058 14.9204L70.8708 14.6843C70.0063 14.5421 69.4265 13.7184 69.5844 12.8566L69.7986 11.6868ZM148.759 11.6865C149.307 8.69743 153.591 8.69725 154.139 11.6863L154.353 12.8565C154.511 13.7183 153.931 14.542 153.067 14.6843L151.632 14.9204C151.586 14.928 151.542 14.8971 151.534 14.8509V14.8509C151.517 14.7568 151.382 14.7567 151.364 14.8509V14.8509C151.356 14.897 151.312 14.9279 151.266 14.9203L149.831 14.6843C148.967 14.5421 148.387 13.7184 148.545 12.8566L148.759 11.6865ZM230.426 5.69156C231.291 5.83381 231.87 6.65754 231.713 7.51936L230.631 13.421C230.478 14.2611 229.679 14.823 228.836 14.6843V14.6843C227.972 14.5421 227.392 13.7183 227.55 12.8565L228.631 6.95485C228.785 6.11482 229.584 5.5529 230.426 5.69156V5.69156ZM-4.83821 14.6843C-5.68093 14.8228 -6.47928 14.2607 -6.633 13.4207L-7.71292 7.51911C-7.87062 6.65727 -7.29074 5.83367 -6.4262 5.69157V5.69157C-5.58348 5.55306 -4.78513 6.11515 -4.6314 6.95523L-3.55149 12.8568C-3.39379 13.7186 -3.97366 14.5422 -4.83821 14.6843V14.6843ZM159.651 50.6186C158.809 50.7573 158.01 50.1954 157.856 49.3554L155.129 34.4701C154.971 33.6083 155.551 32.7846 156.415 32.6423V32.6423C157.258 32.5036 158.056 33.0655 158.21 33.9055L160.938 48.7908C161.096 49.6526 160.516 50.4763 159.651 50.6186V50.6186ZM225.489 32.6423C226.353 32.7845 226.933 33.6082 226.775 34.4701L224.048 49.3553C223.895 50.1954 223.096 50.7573 222.253 50.6186V50.6186C221.389 50.4764 220.809 49.6526 220.967 48.7908L223.694 33.9056C223.848 33.0655 224.646 32.5036 225.489 32.6423V32.6423ZM67.5241 32.6423C68.3886 32.7845 68.9684 33.6082 68.8106 34.47L66.0843 49.3553C65.9304 50.1953 65.132 50.7573 64.2893 50.6186V50.6186C63.4248 50.4764 62.845 49.6527 63.0028 48.7909L65.7291 33.9057C65.883 33.0656 66.6814 32.5037 67.5241 32.6423V32.6423ZM146.485 32.6423C147.349 32.7845 147.929 33.6082 147.771 34.47L145.045 49.3553C144.891 50.1953 144.092 50.7573 143.25 50.6186V50.6186C142.385 50.4764 141.805 49.6527 141.963 48.7909L144.69 33.9057C144.843 33.0656 145.642 32.5037 146.485 32.6423V32.6423ZM80.6834 50.6186C79.8407 50.7572 79.0424 50.1952 78.8886 49.3551L76.1635 34.4699C76.0057 33.6081 76.5856 32.7844 77.4501 32.6423V32.6423C78.2928 32.5037 79.0912 33.0657 79.245 33.9058L81.97 48.791C82.1278 49.6528 81.548 50.4765 80.6834 50.6186V50.6186ZM1.73732 50.6186C0.894603 50.7571 0.096255 50.195 -0.0574687 49.355L-2.78127 34.4698C-2.93897 33.608 -2.35909 32.7844 -1.49455 32.6423V32.6423C-0.651826 32.5038 0.146524 33.0659 0.300248 33.9059L3.02404 48.7911C3.18175 49.6529 2.60187 50.4765 1.73732 50.6186V50.6186ZM166.236 86.5529C165.393 86.6916 164.595 86.1297 164.441 85.2897L161.713 70.4044C161.555 69.5426 162.135 68.7189 163 68.5766V68.5766C163.842 68.4379 164.641 68.9998 164.795 69.8398L167.522 84.7251C167.68 85.5869 167.1 86.4106 166.236 86.5529V86.5529ZM218.906 68.5766C219.77 68.7188 220.35 69.5425 220.192 70.4044L217.465 85.2896C217.311 86.1297 216.513 86.6916 215.67 86.5529V86.5529C214.806 86.4107 214.226 85.5869 214.384 84.7251L217.111 69.8399C217.265 68.9998 218.063 68.4379 218.906 68.5766V68.5766ZM60.9426 68.5766C61.8071 68.7188 62.3869 69.5425 62.229 70.4043L59.5027 85.2895C59.3489 86.1296 58.5505 86.6916 57.7078 86.5529V86.5529C56.8432 86.4107 56.2635 85.587 56.4213 84.7252L59.1476 69.84C59.3015 68.9999 60.0999 68.4379 60.9426 68.5766V68.5766ZM139.903 68.5766C140.768 68.7188 141.347 69.5425 141.189 70.4043L138.463 85.2895C138.309 86.1296 137.511 86.6916 136.668 86.5529V86.5529C135.804 86.4107 135.224 85.587 135.382 84.7252L138.108 69.8399C138.262 68.9999 139.06 68.4379 139.903 68.5766V68.5766ZM87.262 86.5529C86.4193 86.6915 85.6209 86.1295 85.4671 85.2894L82.7421 70.4042C82.5843 69.5424 83.1641 68.7187 84.0286 68.5766V68.5766C84.8713 68.438 85.6697 69 85.8235 69.8401L88.5486 84.7253C88.7063 85.5871 88.1265 86.4108 87.262 86.5529V86.5529ZM8.31286 86.5529C7.47014 86.6914 6.67179 86.1293 6.51807 85.2893L3.79427 70.4041C3.63656 69.5423 4.21644 68.7187 5.08099 68.5766V68.5766C5.92371 68.4381 6.72206 69.0002 6.87578 69.8402L9.59958 84.7254C9.75728 85.5872 9.17741 86.4108 8.31286 86.5529V86.5529ZM172.82 122.487C171.978 122.626 171.179 122.064 171.025 121.224L168.298 106.339C168.14 105.477 168.72 104.653 169.584 104.511V104.511C170.427 104.372 171.225 104.934 171.379 105.774L174.107 120.659C174.265 121.521 173.685 122.345 172.82 122.487V122.487ZM212.323 104.511C213.187 104.653 213.767 105.477 213.609 106.339L210.882 121.224C210.728 122.064 209.93 122.626 209.087 122.487V122.487C208.223 122.345 207.643 121.521 207.801 120.659L210.528 105.774C210.682 104.934 211.48 104.372 212.323 104.511V104.511ZM54.3611 104.511C55.2256 104.653 55.8053 105.477 55.6475 106.339L52.9212 121.224C52.7673 122.064 51.9689 122.626 51.1262 122.487V122.487C50.2617 122.345 49.6819 121.521 49.8398 120.659L52.5661 105.774C52.7199 104.934 53.5184 104.372 54.3611 104.511V104.511ZM133.321 104.511C134.186 104.653 134.766 105.477 134.608 106.339L131.882 121.224C131.728 122.064 130.929 122.626 130.087 122.487V122.487C129.222 122.345 128.642 121.521 128.8 120.659L131.527 105.774C131.68 104.934 132.479 104.372 133.321 104.511V104.511ZM93.8405 122.487C92.9978 122.626 92.1994 122.064 92.0456 121.224L89.3206 106.339C89.1628 105.477 89.7426 104.653 90.6072 104.511V104.511C91.4499 104.372 92.2483 104.934 92.4021 105.774L95.1271 120.66C95.2849 121.521 94.7051 122.345 93.8405 122.487V122.487ZM14.8884 122.487C14.0457 122.626 13.2473 122.064 13.0936 121.224L10.3698 106.338C10.2121 105.477 10.792 104.653 11.6565 104.511V104.511C12.4992 104.372 13.2976 104.934 13.4513 105.775L16.1751 120.66C16.3328 121.522 15.7529 122.345 14.8884 122.487V122.487ZM179.405 158.422C178.562 158.56 177.764 157.998 177.61 157.158L174.882 142.273C174.724 141.411 175.304 140.587 176.169 140.445V140.445C177.011 140.306 177.81 140.868 177.964 141.708L180.691 156.594C180.849 157.455 180.27 158.279 179.405 158.422V158.422ZM205.74 140.445C206.604 140.587 207.184 141.411 207.026 142.273L204.299 157.158C204.145 157.998 203.347 158.56 202.504 158.422V158.422C201.64 158.279 201.06 157.456 201.218 156.594L203.945 141.708C204.099 140.868 204.897 140.306 205.74 140.445V140.445ZM47.7795 140.445C48.6441 140.587 49.2238 141.411 49.066 142.273L46.3397 157.158C46.1858 157.998 45.3874 158.56 44.5447 158.422V158.422C43.6802 158.279 43.1004 157.456 43.2583 156.594L45.9846 141.709C46.1384 140.868 46.9368 140.307 47.7795 140.445V140.445ZM126.74 140.445C127.604 140.587 128.184 141.411 128.026 142.273L125.3 157.158C125.146 157.998 124.348 158.56 123.505 158.422V158.422C122.641 158.279 122.061 157.456 122.219 156.594L124.945 141.709C125.099 140.868 125.897 140.307 126.74 140.445V140.445ZM100.419 158.421C99.5764 158.56 98.778 157.998 98.6242 157.158L95.8991 142.273C95.7414 141.411 96.3212 140.587 97.1857 140.445V140.445C98.0284 140.307 98.8268 140.869 98.9806 141.709L101.706 156.594C101.863 157.456 101.284 158.279 100.419 158.421V158.421ZM21.4639 158.422C20.6212 158.56 19.8229 157.998 19.6691 157.158L16.9453 142.273C16.7876 141.411 17.3675 140.587 18.2321 140.445V140.445C19.0748 140.307 19.8731 140.869 20.0269 141.709L22.7506 156.594C22.9083 157.456 22.3285 158.279 21.4639 158.422V158.422ZM185.99 194.356C185.147 194.494 184.348 193.933 184.195 193.093L181.467 178.207C181.309 177.345 181.889 176.522 182.753 176.379V176.379C183.596 176.241 184.394 176.803 184.548 177.643L187.276 192.528C187.434 193.39 186.854 194.213 185.99 194.356V194.356ZM199.157 176.379C200.021 176.522 200.601 177.345 200.443 178.207L197.716 193.093C197.562 193.933 196.764 194.494 195.921 194.356V194.356C195.057 194.214 194.477 193.39 194.635 192.528L197.362 177.643C197.516 176.803 198.314 176.241 199.157 176.379V176.379ZM41.198 176.379C42.0625 176.522 42.6423 177.345 42.4844 178.207L39.7581 193.092C39.6043 193.932 38.8059 194.494 37.9632 194.356V194.356C37.0986 194.214 36.5189 193.39 36.6767 192.528L39.403 177.643C39.5569 176.803 40.3553 176.241 41.198 176.379V176.379ZM120.158 176.379C121.023 176.522 121.603 177.345 121.445 178.207L118.719 193.092C118.565 193.932 117.766 194.494 116.924 194.356V194.356C116.059 194.214 115.479 193.39 115.637 192.528L118.363 177.643C118.517 176.803 119.316 176.241 120.158 176.379V176.379ZM106.998 194.356C106.155 194.494 105.357 193.932 105.203 193.092L102.478 178.207C102.32 177.345 102.9 176.522 103.764 176.379V176.379C104.607 176.241 105.405 176.803 105.559 177.643L108.284 192.528C108.442 193.39 107.862 194.214 106.998 194.356V194.356ZM28.0395 194.356C27.1967 194.494 26.3984 193.932 26.2447 193.092L23.5209 178.207C23.3632 177.345 23.943 176.522 24.8076 176.379V176.379C25.6503 176.241 26.4487 176.803 26.6024 177.643L29.3262 192.528C29.4839 193.39 28.904 194.214 28.0395 194.356V194.356ZM188.052 214.142C187.894 213.28 188.473 212.456 189.338 212.314L190.772 212.078C190.818 212.07 190.862 212.101 190.871 212.147V212.147C190.888 212.242 191.023 212.242 191.041 212.147V212.147C191.049 212.101 191.093 212.07 191.14 212.078L192.574 212.314C193.438 212.456 194.018 213.28 193.86 214.142L193.646 215.312C193.098 218.301 188.814 218.301 188.266 215.312L188.052 214.142ZM34.6165 212.314C35.481 212.456 36.0608 213.28 35.9029 214.141L35.6887 215.311C35.1413 218.3 30.8573 218.299 30.3104 215.311L30.0964 214.141C29.9387 213.279 30.5186 212.456 31.3831 212.314L32.8185 212.078C32.8643 212.07 32.9077 212.101 32.9161 212.146V212.146C32.9331 212.24 33.0665 212.239 33.0836 212.146V212.146C33.0919 212.101 33.1353 212.07 33.1811 212.078L34.6165 212.314ZM113.577 212.314C114.441 212.456 115.021 213.28 114.863 214.142L114.649 215.311C114.102 218.3 109.818 218.3 109.27 215.311L109.056 214.141C108.898 213.28 109.478 212.456 110.343 212.314L111.778 212.078C111.824 212.07 111.867 212.101 111.876 212.147V212.147C111.893 212.24 112.027 212.24 112.044 212.147V212.147C112.052 212.101 112.096 212.07 112.142 212.078L113.577 212.314Z"/>
</mask>
<path fill-rule="evenodd" clip-rule="evenodd" d="M69.7986 11.6868C70.346 8.69802 74.6302 8.6982 75.1774 11.6871L75.3915 12.8567C75.5493 13.7185 74.9695 14.5422 74.1049 14.6843L72.6699 14.9203C72.6239 14.9279 72.5803 14.8972 72.5719 14.8514V14.8514C72.5548 14.758 72.4209 14.758 72.4038 14.8515V14.8515C72.3954 14.8973 72.3518 14.928 72.3058 14.9204L70.8708 14.6843C70.0063 14.5421 69.4265 13.7184 69.5844 12.8566L69.7986 11.6868ZM148.759 11.6865C149.307 8.69743 153.591 8.69725 154.139 11.6863L154.353 12.8565C154.511 13.7183 153.931 14.542 153.067 14.6843L151.632 14.9204C151.586 14.928 151.542 14.8971 151.534 14.8509V14.8509C151.517 14.7568 151.382 14.7567 151.364 14.8509V14.8509C151.356 14.897 151.312 14.9279 151.266 14.9203L149.831 14.6843C148.967 14.5421 148.387 13.7184 148.545 12.8566L148.759 11.6865ZM230.426 5.69156C231.291 5.83381 231.87 6.65754 231.713 7.51936L230.631 13.421C230.478 14.2611 229.679 14.823 228.836 14.6843V14.6843C227.972 14.5421 227.392 13.7183 227.55 12.8565L228.631 6.95485C228.785 6.11482 229.584 5.5529 230.426 5.69156V5.69156ZM-4.83821 14.6843C-5.68093 14.8228 -6.47928 14.2607 -6.633 13.4207L-7.71292 7.51911C-7.87062 6.65727 -7.29074 5.83367 -6.4262 5.69157V5.69157C-5.58348 5.55306 -4.78513 6.11515 -4.6314 6.95523L-3.55149 12.8568C-3.39379 13.7186 -3.97366 14.5422 -4.83821 14.6843V14.6843ZM159.651 50.6186C158.809 50.7573 158.01 50.1954 157.856 49.3554L155.129 34.4701C154.971 33.6083 155.551 32.7846 156.415 32.6423V32.6423C157.258 32.5036 158.056 33.0655 158.21 33.9055L160.938 48.7908C161.096 49.6526 160.516 50.4763 159.651 50.6186V50.6186ZM225.489 32.6423C226.353 32.7845 226.933 33.6082 226.775 34.4701L224.048 49.3553C223.895 50.1954 223.096 50.7573 222.253 50.6186V50.6186C221.389 50.4764 220.809 49.6526 220.967 48.7908L223.694 33.9056C223.848 33.0655 224.646 32.5036 225.489 32.6423V32.6423ZM67.5241 32.6423C68.3886 32.7845 68.9684 33.6082 68.8106 34.47L66.0843 49.3553C65.9304 50.1953 65.132 50.7573 64.2893 50.6186V50.6186C63.4248 50.4764 62.845 49.6527 63.0028 48.7909L65.7291 33.9057C65.883 33.0656 66.6814 32.5037 67.5241 32.6423V32.6423ZM146.485 32.6423C147.349 32.7845 147.929 33.6082 147.771 34.47L145.045 49.3553C144.891 50.1953 144.092 50.7573 143.25 50.6186V50.6186C142.385 50.4764 141.805 49.6527 141.963 48.7909L144.69 33.9057C144.843 33.0656 145.642 32.5037 146.485 32.6423V32.6423ZM80.6834 50.6186C79.8407 50.7572 79.0424 50.1952 78.8886 49.3551L76.1635 34.4699C76.0057 33.6081 76.5856 32.7844 77.4501 32.6423V32.6423C78.2928 32.5037 79.0912 33.0657 79.245 33.9058L81.97 48.791C82.1278 49.6528 81.548 50.4765 80.6834 50.6186V50.6186ZM1.73732 50.6186C0.894603 50.7571 0.096255 50.195 -0.0574687 49.355L-2.78127 34.4698C-2.93897 33.608 -2.35909 32.7844 -1.49455 32.6423V32.6423C-0.651826 32.5038 0.146524 33.0659 0.300248 33.9059L3.02404 48.7911C3.18175 49.6529 2.60187 50.4765 1.73732 50.6186V50.6186ZM166.236 86.5529C165.393 86.6916 164.595 86.1297 164.441 85.2897L161.713 70.4044C161.555 69.5426 162.135 68.7189 163 68.5766V68.5766C163.842 68.4379 164.641 68.9998 164.795 69.8398L167.522 84.7251C167.68 85.5869 167.1 86.4106 166.236 86.5529V86.5529ZM218.906 68.5766C219.77 68.7188 220.35 69.5425 220.192 70.4044L217.465 85.2896C217.311 86.1297 216.513 86.6916 215.67 86.5529V86.5529C214.806 86.4107 214.226 85.5869 214.384 84.7251L217.111 69.8399C217.265 68.9998 218.063 68.4379 218.906 68.5766V68.5766ZM60.9426 68.5766C61.8071 68.7188 62.3869 69.5425 62.229 70.4043L59.5027 85.2895C59.3489 86.1296 58.5505 86.6916 57.7078 86.5529V86.5529C56.8432 86.4107 56.2635 85.587 56.4213 84.7252L59.1476 69.84C59.3015 68.9999 60.0999 68.4379 60.9426 68.5766V68.5766ZM139.903 68.5766C140.768 68.7188 141.347 69.5425 141.189 70.4043L138.463 85.2895C138.309 86.1296 137.511 86.6916 136.668 86.5529V86.5529C135.804 86.4107 135.224 85.587 135.382 84.7252L138.108 69.8399C138.262 68.9999 139.06 68.4379 139.903 68.5766V68.5766ZM87.262 86.5529C86.4193 86.6915 85.6209 86.1295 85.4671 85.2894L82.7421 70.4042C82.5843 69.5424 83.1641 68.7187 84.0286 68.5766V68.5766C84.8713 68.438 85.6697 69 85.8235 69.8401L88.5486 84.7253C88.7063 85.5871 88.1265 86.4108 87.262 86.5529V86.5529ZM8.31286 86.5529C7.47014 86.6914 6.67179 86.1293 6.51807 85.2893L3.79427 70.4041C3.63656 69.5423 4.21644 68.7187 5.08099 68.5766V68.5766C5.92371 68.4381 6.72206 69.0002 6.87578 69.8402L9.59958 84.7254C9.75728 85.5872 9.17741 86.4108 8.31286 86.5529V86.5529ZM172.82 122.487C171.978 122.626 171.179 122.064 171.025 121.224L168.298 106.339C168.14 105.477 168.72 104.653 169.584 104.511V104.511C170.427 104.372 171.225 104.934 171.379 105.774L174.107 120.659C174.265 121.521 173.685 122.345 172.82 122.487V122.487ZM212.323 104.511C213.187 104.653 213.767 105.477 213.609 106.339L210.882 121.224C210.728 122.064 209.93 122.626 209.087 122.487V122.487C208.223 122.345 207.643 121.521 207.801 120.659L210.528 105.774C210.682 104.934 211.48 104.372 212.323 104.511V104.511ZM54.3611 104.511C55.2256 104.653 55.8053 105.477 55.6475 106.339L52.9212 121.224C52.7673 122.064 51.9689 122.626 51.1262 122.487V122.487C50.2617 122.345 49.6819 121.521 49.8398 120.659L52.5661 105.774C52.7199 104.934 53.5184 104.372 54.3611 104.511V104.511ZM133.321 104.511C134.186 104.653 134.766 105.477 134.608 106.339L131.882 121.224C131.728 122.064 130.929 122.626 130.087 122.487V122.487C129.222 122.345 128.642 121.521 128.8 120.659L131.527 105.774C131.68 104.934 132.479 104.372 133.321 104.511V104.511ZM93.8405 122.487C92.9978 122.626 92.1994 122.064 92.0456 121.224L89.3206 106.339C89.1628 105.477 89.7426 104.653 90.6072 104.511V104.511C91.4499 104.372 92.2483 104.934 92.4021 105.774L95.1271 120.66C95.2849 121.521 94.7051 122.345 93.8405 122.487V122.487ZM14.8884 122.487C14.0457 122.626 13.2473 122.064 13.0936 121.224L10.3698 106.338C10.2121 105.477 10.792 104.653 11.6565 104.511V104.511C12.4992 104.372 13.2976 104.934 13.4513 105.775L16.1751 120.66C16.3328 121.522 15.7529 122.345 14.8884 122.487V122.487ZM179.405 158.422C178.562 158.56 177.764 157.998 177.61 157.158L174.882 142.273C174.724 141.411 175.304 140.587 176.169 140.445V140.445C177.011 140.306 177.81 140.868 177.964 141.708L180.691 156.594C180.849 157.455 180.27 158.279 179.405 158.422V158.422ZM205.74 140.445C206.604 140.587 207.184 141.411 207.026 142.273L204.299 157.158C204.145 157.998 203.347 158.56 202.504 158.422V158.422C201.64 158.279 201.06 157.456 201.218 156.594L203.945 141.708C204.099 140.868 204.897 140.306 205.74 140.445V140.445ZM47.7795 140.445C48.6441 140.587 49.2238 141.411 49.066 142.273L46.3397 157.158C46.1858 157.998 45.3874 158.56 44.5447 158.422V158.422C43.6802 158.279 43.1004 157.456 43.2583 156.594L45.9846 141.709C46.1384 140.868 46.9368 140.307 47.7795 140.445V140.445ZM126.74 140.445C127.604 140.587 128.184 141.411 128.026 142.273L125.3 157.158C125.146 157.998 124.348 158.56 123.505 158.422V158.422C122.641 158.279 122.061 157.456 122.219 156.594L124.945 141.709C125.099 140.868 125.897 140.307 126.74 140.445V140.445ZM100.419 158.421C99.5764 158.56 98.778 157.998 98.6242 157.158L95.8991 142.273C95.7414 141.411 96.3212 140.587 97.1857 140.445V140.445C98.0284 140.307 98.8268 140.869 98.9806 141.709L101.706 156.594C101.863 157.456 101.284 158.279 100.419 158.421V158.421ZM21.4639 158.422C20.6212 158.56 19.8229 157.998 19.6691 157.158L16.9453 142.273C16.7876 141.411 17.3675 140.587 18.2321 140.445V140.445C19.0748 140.307 19.8731 140.869 20.0269 141.709L22.7506 156.594C22.9083 157.456 22.3285 158.279 21.4639 158.422V158.422ZM185.99 194.356C185.147 194.494 184.348 193.933 184.195 193.093L181.467 178.207C181.309 177.345 181.889 176.522 182.753 176.379V176.379C183.596 176.241 184.394 176.803 184.548 177.643L187.276 192.528C187.434 193.39 186.854 194.213 185.99 194.356V194.356ZM199.157 176.379C200.021 176.522 200.601 177.345 200.443 178.207L197.716 193.093C197.562 193.933 196.764 194.494 195.921 194.356V194.356C195.057 194.214 194.477 193.39 194.635 192.528L197.362 177.643C197.516 176.803 198.314 176.241 199.157 176.379V176.379ZM41.198 176.379C42.0625 176.522 42.6423 177.345 42.4844 178.207L39.7581 193.092C39.6043 193.932 38.8059 194.494 37.9632 194.356V194.356C37.0986 194.214 36.5189 193.39 36.6767 192.528L39.403 177.643C39.5569 176.803 40.3553 176.241 41.198 176.379V176.379ZM120.158 176.379C121.023 176.522 121.603 177.345 121.445 178.207L118.719 193.092C118.565 193.932 117.766 194.494 116.924 194.356V194.356C116.059 194.214 115.479 193.39 115.637 192.528L118.363 177.643C118.517 176.803 119.316 176.241 120.158 176.379V176.379ZM106.998 194.356C106.155 194.494 105.357 193.932 105.203 193.092L102.478 178.207C102.32 177.345 102.9 176.522 103.764 176.379V176.379C104.607 176.241 105.405 176.803 105.559 177.643L108.284 192.528C108.442 193.39 107.862 194.214 106.998 194.356V194.356ZM28.0395 194.356C27.1967 194.494 26.3984 193.932 26.2447 193.092L23.5209 178.207C23.3632 177.345 23.943 176.522 24.8076 176.379V176.379C25.6503 176.241 26.4487 176.803 26.6024 177.643L29.3262 192.528C29.4839 193.39 28.904 194.214 28.0395 194.356V194.356ZM188.052 214.142C187.894 213.28 188.473 212.456 189.338 212.314L190.772 212.078C190.818 212.07 190.862 212.101 190.871 212.147V212.147C190.888 212.242 191.023 212.242 191.041 212.147V212.147C191.049 212.101 191.093 212.07 191.14 212.078L192.574 212.314C193.438 212.456 194.018 213.28 193.86 214.142L193.646 215.312C193.098 218.301 188.814 218.301 188.266 215.312L188.052 214.142ZM34.6165 212.314C35.481 212.456 36.0608 213.28 35.9029 214.141L35.6887 215.311C35.1413 218.3 30.8573 218.299 30.3104 215.311L30.0964 214.141C29.9387 213.279 30.5186 212.456 31.3831 212.314L32.8185 212.078C32.8643 212.07 32.9077 212.101 32.9161 212.146V212.146C32.9331 212.24 33.0665 212.239 33.0836 212.146V212.146C33.0919 212.101 33.1353 212.07 33.1811 212.078L34.6165 212.314ZM113.577 212.314C114.441 212.456 115.021 213.28 114.863 214.142L114.649 215.311C114.102 218.3 109.818 218.3 109.27 215.311L109.056 214.141C108.898 213.28 109.478 212.456 110.343 212.314L111.778 212.078C111.824 212.07 111.867 212.101 111.876 212.147V212.147C111.893 212.24 112.027 212.24 112.044 212.147V212.147C112.052 212.101 112.096 212.07 112.142 212.078L113.577 212.314Z" fill="#FFC700"/>
<path fill-rule="evenodd" clip-rule="evenodd" d="M69.7986 11.6868C70.346 8.69802 74.6302 8.6982 75.1774 11.6871L75.3915 12.8567C75.5493 13.7185 74.9695 14.5422 74.1049 14.6843L72.6699 14.9203C72.6239 14.9279 72.5803 14.8972 72.5719 14.8514V14.8514C72.5548 14.758 72.4209 14.758 72.4038 14.8515V14.8515C72.3954 14.8973 72.3518 14.928 72.3058 14.9204L70.8708 14.6843C70.0063 14.5421 69.4265 13.7184 69.5844 12.8566L69.7986 11.6868ZM148.759 11.6865C149.307 8.69743 153.591 8.69725 154.139 11.6863L154.353 12.8565C154.511 13.7183 153.931 14.542 153.067 14.6843L151.632 14.9204C151.586 14.928 151.542 14.8971 151.534 14.8509V14.8509C151.517 14.7568 151.382 14.7567 151.364 14.8509V14.8509C151.356 14.897 151.312 14.9279 151.266 14.9203L149.831 14.6843C148.967 14.5421 148.387 13.7184 148.545 12.8566L148.759 11.6865ZM230.426 5.69156C231.291 5.83381 231.87 6.65754 231.713 7.51936L230.631 13.421C230.478 14.2611 229.679 14.823 228.836 14.6843V14.6843C227.972 14.5421 227.392 13.7183 227.55 12.8565L228.631 6.95485C228.785 6.11482 229.584 5.5529 230.426 5.69156V5.69156ZM-4.83821 14.6843C-5.68093 14.8228 -6.47928 14.2607 -6.633 13.4207L-7.71292 7.51911C-7.87062 6.65727 -7.29074 5.83367 -6.4262 5.69157V5.69157C-5.58348 5.55306 -4.78513 6.11515 -4.6314 6.95523L-3.55149 12.8568C-3.39379 13.7186 -3.97366 14.5422 -4.83821 14.6843V14.6843ZM159.651 50.6186C158.809 50.7573 158.01 50.1954 157.856 49.3554L155.129 34.4701C154.971 33.6083 155.551 32.7846 156.415 32.6423V32.6423C157.258 32.5036 158.056 33.0655 158.21 33.9055L160.938 48.7908C161.096 49.6526 160.516 50.4763 159.651 50.6186V50.6186ZM225.489 32.6423C226.353 32.7845 226.933 33.6082 226.775 34.4701L224.048 49.3553C223.895 50.1954 223.096 50.7573 222.253 50.6186V50.6186C221.389 50.4764 220.809 49.6526 220.967 48.7908L223.694 33.9056C223.848 33.0655 224.646 32.5036 225.489 32.6423V32.6423ZM67.5241 32.6423C68.3886 32.7845 68.9684 33.6082 68.8106 34.47L66.0843 49.3553C65.9304 50.1953 65.132 50.7573 64.2893 50.6186V50.6186C63.4248 50.4764 62.845 49.6527 63.0028 48.7909L65.7291 33.9057C65.883 33.0656 66.6814 32.5037 67.5241 32.6423V32.6423ZM146.485 32.6423C147.349 32.7845 147.929 33.6082 147.771 34.47L145.045 49.3553C144.891 50.1953 144.092 50.7573 143.25 50.6186V50.6186C142.385 50.4764 141.805 49.6527 141.963 48.7909L144.69 33.9057C144.843 33.0656 145.642 32.5037 146.485 32.6423V32.6423ZM80.6834 50.6186C79.8407 50.7572 79.0424 50.1952 78.8886 49.3551L76.1635 34.4699C76.0057 33.6081 76.5856 32.7844 77.4501 32.6423V32.6423C78.2928 32.5037 79.0912 33.0657 79.245 33.9058L81.97 48.791C82.1278 49.6528 81.548 50.4765 80.6834 50.6186V50.6186ZM1.73732 50.6186C0.894603 50.7571 0.096255 50.195 -0.0574687 49.355L-2.78127 34.4698C-2.93897 33.608 -2.35909 32.7844 -1.49455 32.6423V32.6423C-0.651826 32.5038 0.146524 33.0659 0.300248 33.9059L3.02404 48.7911C3.18175 49.6529 2.60187 50.4765 1.73732 50.6186V50.6186ZM166.236 86.5529C165.393 86.6916 164.595 86.1297 164.441 85.2897L161.713 70.4044C161.555 69.5426 162.135 68.7189 163 68.5766V68.5766C163.842 68.4379 164.641 68.9998 164.795 69.8398L167.522 84.7251C167.68 85.5869 167.1 86.4106 166.236 86.5529V86.5529ZM218.906 68.5766C219.77 68.7188 220.35 69.5425 220.192 70.4044L217.465 85.2896C217.311 86.1297 216.513 86.6916 215.67 86.5529V86.5529C214.806 86.4107 214.226 85.5869 214.384 84.7251L217.111 69.8399C217.265 68.9998 218.063 68.4379 218.906 68.5766V68.5766ZM60.9426 68.5766C61.8071 68.7188 62.3869 69.5425 62.229 70.4043L59.5027 85.2895C59.3489 86.1296 58.5505 86.6916 57.7078 86.5529V86.5529C56.8432 86.4107 56.2635 85.587 56.4213 84.7252L59.1476 69.84C59.3015 68.9999 60.0999 68.4379 60.9426 68.5766V68.5766ZM139.903 68.5766C140.768 68.7188 141.347 69.5425 141.189 70.4043L138.463 85.2895C138.309 86.1296 137.511 86.6916 136.668 86.5529V86.5529C135.804 86.4107 135.224 85.587 135.382 84.7252L138.108 69.8399C138.262 68.9999 139.06 68.4379 139.903 68.5766V68.5766ZM87.262 86.5529C86.4193 86.6915 85.6209 86.1295 85.4671 85.2894L82.7421 70.4042C82.5843 69.5424 83.1641 68.7187 84.0286 68.5766V68.5766C84.8713 68.438 85.6697 69 85.8235 69.8401L88.5486 84.7253C88.7063 85.5871 88.1265 86.4108 87.262 86.5529V86.5529ZM8.31286 86.5529C7.47014 86.6914 6.67179 86.1293 6.51807 85.2893L3.79427 70.4041C3.63656 69.5423 4.21644 68.7187 5.08099 68.5766V68.5766C5.92371 68.4381 6.72206 69.0002 6.87578 69.8402L9.59958 84.7254C9.75728 85.5872 9.17741 86.4108 8.31286 86.5529V86.5529ZM172.82 122.487C171.978 122.626 171.179 122.064 171.025 121.224L168.298 106.339C168.14 105.477 168.72 104.653 169.584 104.511V104.511C170.427 104.372 171.225 104.934 171.379 105.774L174.107 120.659C174.265 121.521 173.685 122.345 172.82 122.487V122.487ZM212.323 104.511C213.187 104.653 213.767 105.477 213.609 106.339L210.882 121.224C210.728 122.064 209.93 122.626 209.087 122.487V122.487C208.223 122.345 207.643 121.521 207.801 120.659L210.528 105.774C210.682 104.934 211.48 104.372 212.323 104.511V104.511ZM54.3611 104.511C55.2256 104.653 55.8053 105.477 55.6475 106.339L52.9212 121.224C52.7673 122.064 51.9689 122.626 51.1262 122.487V122.487C50.2617 122.345 49.6819 121.521 49.8398 120.659L52.5661 105.774C52.7199 104.934 53.5184 104.372 54.3611 104.511V104.511ZM133.321 104.511C134.186 104.653 134.766 105.477 134.608 106.339L131.882 121.224C131.728 122.064 130.929 122.626 130.087 122.487V122.487C129.222 122.345 128.642 121.521 128.8 120.659L131.527 105.774C131.68 104.934 132.479 104.372 133.321 104.511V104.511ZM93.8405 122.487C92.9978 122.626 92.1994 122.064 92.0456 121.224L89.3206 106.339C89.1628 105.477 89.7426 104.653 90.6072 104.511V104.511C91.4499 104.372 92.2483 104.934 92.4021 105.774L95.1271 120.66C95.2849 121.521 94.7051 122.345 93.8405 122.487V122.487ZM14.8884 122.487C14.0457 122.626 13.2473 122.064 13.0936 121.224L10.3698 106.338C10.2121 105.477 10.792 104.653 11.6565 104.511V104.511C12.4992 104.372 13.2976 104.934 13.4513 105.775L16.1751 120.66C16.3328 121.522 15.7529 122.345 14.8884 122.487V122.487ZM179.405 158.422C178.562 158.56 177.764 157.998 177.61 157.158L174.882 142.273C174.724 141.411 175.304 140.587 176.169 140.445V140.445C177.011 140.306 177.81 140.868 177.964 141.708L180.691 156.594C180.849 157.455 180.27 158.279 179.405 158.422V158.422ZM205.74 140.445C206.604 140.587 207.184 141.411 207.026 142.273L204.299 157.158C204.145 157.998 203.347 158.56 202.504 158.422V158.422C201.64 158.279 201.06 157.456 201.218 156.594L203.945 141.708C204.099 140.868 204.897 140.306 205.74 140.445V140.445ZM47.7795 140.445C48.6441 140.587 49.2238 141.411 49.066 142.273L46.3397 157.158C46.1858 157.998 45.3874 158.56 44.5447 158.422V158.422C43.6802 158.279 43.1004 157.456 43.2583 156.594L45.9846 141.709C46.1384 140.868 46.9368 140.307 47.7795 140.445V140.445ZM126.74 140.445C127.604 140.587 128.184 141.411 128.026 142.273L125.3 157.158C125.146 157.998 124.348 158.56 123.505 158.422V158.422C122.641 158.279 122.061 157.456 122.219 156.594L124.945 141.709C125.099 140.868 125.897 140.307 126.74 140.445V140.445ZM100.419 158.421C99.5764 158.56 98.778 157.998 98.6242 157.158L95.8991 142.273C95.7414 141.411 96.3212 140.587 97.1857 140.445V140.445C98.0284 140.307 98.8268 140.869 98.9806 141.709L101.706 156.594C101.863 157.456 101.284 158.279 100.419 158.421V158.421ZM21.4639 158.422C20.6212 158.56 19.8229 157.998 19.6691 157.158L16.9453 142.273C16.7876 141.411 17.3675 140.587 18.2321 140.445V140.445C19.0748 140.307 19.8731 140.869 20.0269 141.709L22.7506 156.594C22.9083 157.456 22.3285 158.279 21.4639 158.422V158.422ZM185.99 194.356C185.147 194.494 184.348 193.933 184.195 193.093L181.467 178.207C181.309 177.345 181.889 176.522 182.753 176.379V176.379C183.596 176.241 184.394 176.803 184.548 177.643L187.276 192.528C187.434 193.39 186.854 194.213 185.99 194.356V194.356ZM199.157 176.379C200.021 176.522 200.601 177.345 200.443 178.207L197.716 193.093C197.562 193.933 196.764 194.494 195.921 194.356V194.356C195.057 194.214 194.477 193.39 194.635 192.528L197.362 177.643C197.516 176.803 198.314 176.241 199.157 176.379V176.379ZM41.198 176.379C42.0625 176.522 42.6423 177.345 42.4844 178.207L39.7581 193.092C39.6043 193.932 38.8059 194.494 37.9632 194.356V194.356C37.0986 194.214 36.5189 193.39 36.6767 192.528L39.403 177.643C39.5569 176.803 40.3553 176.241 41.198 176.379V176.379ZM120.158 176.379C121.023 176.522 121.603 177.345 121.445 178.207L118.719 193.092C118.565 193.932 117.766 194.494 116.924 194.356V194.356C116.059 194.214 115.479 193.39 115.637 192.528L118.363 177.643C118.517 176.803 119.316 176.241 120.158 176.379V176.379ZM106.998 194.356C106.155 194.494 105.357 193.932 105.203 193.092L102.478 178.207C102.32 177.345 102.9 176.522 103.764 176.379V176.379C104.607 176.241 105.405 176.803 105.559 177.643L108.284 192.528C108.442 193.39 107.862 194.214 106.998 194.356V194.356ZM28.0395 194.356C27.1967 194.494 26.3984 193.932 26.2447 193.092L23.5209 178.207C23.3632 177.345 23.943 176.522 24.8076 176.379V176.379C25.6503 176.241 26.4487 176.803 26.6024 177.643L29.3262 192.528C29.4839 193.39 28.904 194.214 28.0395 194.356V194.356ZM188.052 214.142C187.894 213.28 188.473 212.456 189.338 212.314L190.772 212.078C190.818 212.07 190.862 212.101 190.871 212.147V212.147C190.888 212.242 191.023 212.242 191.041 212.147V212.147C191.049 212.101 191.093 212.07 191.14 212.078L192.574 212.314C193.438 212.456 194.018 213.28 193.86 214.142L193.646 215.312C193.098 218.301 188.814 218.301 188.266 215.312L188.052 214.142ZM34.6165 212.314C35.481 212.456 36.0608 213.28 35.9029 214.141L35.6887 215.311C35.1413 218.3 30.8573 218.299 30.3104 215.311L30.0964 214.141C29.9387 213.279 30.5186 212.456 31.3831 212.314L32.8185 212.078C32.8643 212.07 32.9077 212.101 32.9161 212.146V212.146C32.9331 212.24 33.0665 212.239 33.0836 212.146V212.146C33.0919 212.101 33.1353 212.07 33.1811 212.078L34.6165 212.314ZM113.577 212.314C114.441 212.456 115.021 213.28 114.863 214.142L114.649 215.311C114.102 218.3 109.818 218.3 109.27 215.311L109.056 214.141C108.898 213.28 109.478 212.456 110.343 212.314L111.778 212.078C111.824 212.07 111.867 212.101 111.876 212.147V212.147C111.893 212.24 112.027 212.24 112.044 212.147V212.147C112.052 212.101 112.096 212.07 112.142 212.078L113.577 212.314Z" stroke="black" stroke-width="3.82408" stroke-miterlimit="10" mask="url(#path-1-outside-1_576_25568)"/>
</g>
<defs>
<clipPath id="clip0_576_25568">
<rect width="210" height="210" fill="white"/>
</clipPath>
</defs>
</svg>
