<svg width="12" height="12" viewBox="0 0 12 12" fill="none" xmlns="http://www.w3.org/2000/svg">
<path d="M6.00376 9.14783C9.09626 9.14783 11.1755 6.64681 11.1755 5.87232C11.1755 5.09783 9.08872 2.60059 6.00376 2.60059C2.95647 2.60059 0.824493 5.09783 0.824493 5.87232C0.824493 6.64681 2.94894 9.14783 6.00376 9.14783ZM6.00376 8.40735C3.60058 8.40735 1.69838 6.40124 1.69838 5.87232C1.69838 5.4303 3.60058 3.34107 6.00376 3.34107C8.39564 3.34107 10.3016 5.4303 10.3016 5.87232C10.3016 6.40124 8.39564 8.40735 6.00376 8.40735ZM6.00376 7.9011C7.12625 7.9011 8.0265 6.97549 8.0265 5.87232C8.0265 4.7427 7.12625 3.84732 6.00376 3.84732C4.87374 3.84732 3.96972 4.7427 3.97349 5.87232C3.98102 6.97549 4.87374 7.9011 6.00376 7.9011ZM6 6.52591C5.63839 6.52591 5.34458 6.23123 5.34458 5.87232C5.34458 5.51341 5.63839 5.21873 6 5.21873C6.3616 5.21873 6.65541 5.51341 6.65541 5.87232C6.65541 6.23123 6.3616 6.52591 6 6.52591Z" fill="#B8B8B8"/>
</svg>
