<svg width="12" height="12" viewBox="0 0 12 12" fill="none" xmlns="http://www.w3.org/2000/svg">
<path d="M2.57979 9.37779H9.41266C10.2263 9.37779 10.6557 8.95591 10.6557 8.14983V4.19475C10.6557 3.38867 10.2263 2.9668 9.41266 2.9668H8.38434C8.09053 2.9668 7.99636 2.91783 7.81179 2.72573L7.51422 2.40555C7.31835 2.19838 7.11871 2.09668 6.7345 2.09668H5.23911C4.8549 2.09668 4.65903 2.19838 4.45939 2.40555L4.16182 2.72573C3.98102 2.91406 3.88308 2.9668 3.58927 2.9668H2.57979C1.76617 2.9668 1.34053 3.38867 1.34053 4.19475V8.14983C1.34053 8.95591 1.76617 9.37779 2.57979 9.37779ZM2.62876 8.62821C2.28598 8.62821 2.09011 8.4474 2.09011 8.08203V4.26256C2.09011 3.90095 2.28598 3.72014 2.62876 3.72014H3.80775C4.14675 3.72014 4.32002 3.65988 4.51213 3.45271L4.7984 3.1363C5.00934 2.90653 5.12234 2.84626 5.45381 2.84626H6.5198C6.85127 2.84626 6.96427 2.90653 7.17145 3.13253L7.46148 3.45271C7.65359 3.65988 7.82686 3.72014 8.16586 3.72014H9.36369C9.71023 3.72014 9.90233 3.90095 9.90233 4.26256V8.08203C9.90233 8.4474 9.71023 8.62821 9.36369 8.62821H2.62876ZM5.99622 8.131C7.12624 8.131 8.03026 7.22698 8.03026 6.09319C8.03026 4.9594 7.12624 4.05538 5.99622 4.05538C4.86997 4.05538 3.96595 4.9594 3.96595 6.09319C3.96595 7.22698 4.86997 8.131 5.99622 8.131ZM8.15833 4.7447C8.15833 5.01967 8.38057 5.23437 8.65177 5.23061C8.91545 5.23061 9.13768 5.0159 9.13768 4.7447C9.13768 4.48103 8.91168 4.25502 8.65177 4.25502C8.38057 4.25502 8.15833 4.48103 8.15833 4.7447ZM5.99622 7.44545C5.25417 7.44545 4.64773 6.84277 4.64773 6.09319C4.64773 5.33984 5.25041 4.74093 5.99622 4.74093C6.7458 4.74093 7.34848 5.33984 7.34848 6.09319C7.34848 6.84277 6.7458 7.44545 5.99622 7.44545Z" fill="#B8B8B8"/>
</svg>
