<svg width="28" height="28" viewBox="0 0 28 28" fill="none" xmlns="http://www.w3.org/2000/svg">
<path d="M7.8125 20.957H19.9531C20.4805 20.957 20.9023 20.5469 20.9023 20.0195C20.9023 19.4922 20.4805 19.0703 19.9531 19.0703H7.8125C7.28516 19.0703 6.875 19.4922 6.875 20.0195C6.875 20.5469 7.28516 20.957 7.8125 20.957Z" fill="#B8B8B8"/>
<path d="M5.41016 14.9219H22.3672C22.8945 14.9219 23.3047 14.5117 23.3047 13.9844C23.3047 13.457 22.8945 13.0352 22.3672 13.0352H5.41016C4.88281 13.0352 4.46094 13.457 4.46094 13.9844C4.46094 14.5117 4.88281 14.9219 5.41016 14.9219Z" fill="#B8B8B8"/>
<path d="M2.9375 8.88672H24.7695C25.2969 8.88672 25.707 8.47656 25.707 7.94922C25.707 7.42188 25.2969 7 24.7695 7H2.9375C2.41016 7 2 7.42188 2 7.94922C2 8.47656 2.41016 8.88672 2.9375 8.88672Z" fill="#B8B8B8"/>
</svg>
