<svg width="28" height="28" viewBox="0 0 28 28" fill="none" xmlns="http://www.w3.org/2000/svg">
<path d="M16.6271 10.3056C16.6144 10.4223 16.576 10.7829 16.5649 10.906C16.5478 11.0958 16.5408 11.2389 16.5434 11.3447C16.5441 11.3715 16.5453 11.3915 16.5464 11.4053C16.6969 11.7753 16.9871 12.1643 17.433 12.5969C17.8128 12.9654 18.2253 13.2931 18.6752 13.6506C18.7895 13.7414 18.9063 13.8342 19.0255 13.93C19.6082 14.3984 20.3155 14.933 20.9474 15.3454C21.108 15.3495 21.3243 15.3426 21.5778 15.3281C21.7645 15.3174 21.9438 15.3043 22.1183 15.2916C22.1918 15.2862 22.2645 15.2809 22.3365 15.2759C22.4506 15.2679 22.5682 15.2603 22.6716 15.256L22.6738 15.2559C22.73 15.2536 22.8473 15.2488 22.9762 15.2562C23.0963 15.2603 23.3485 15.2836 23.616 15.4138C23.8144 15.5105 24.1382 15.7242 24.3314 16.1439C24.5333 16.5828 24.4788 16.997 24.3914 17.2585C24.2583 17.6567 23.9924 17.89 23.9435 17.9329C23.9417 17.9345 23.939 17.9369 23.939 17.9369C23.8482 18.0176 23.7615 18.0775 23.7077 18.113C23.5093 18.2441 23.2344 18.3821 22.9943 18.4981C22.5322 18.7214 21.878 19.0139 21.1957 19.319C21.1061 19.359 21.016 19.3993 20.9257 19.4397C20.1323 19.7948 19.3129 20.1642 18.6395 20.4927C18.3025 20.6571 18.0187 20.8032 17.8017 20.9257C17.7076 20.9788 17.6399 21.0199 17.5935 21.0491C17.5364 21.1674 17.4641 21.3422 17.3798 21.5741C17.2089 22.0438 17.0282 22.636 16.858 23.2258C16.7845 23.4808 16.6878 23.8253 16.6014 24.1333C16.5281 24.3949 16.4621 24.6301 16.424 24.7613C16.3733 24.9363 16.3112 25.145 16.2521 25.2964C16.2366 25.336 16.2057 25.4128 16.1603 25.4985C16.1384 25.5399 16.0945 25.6189 16.0276 25.7084L16.0267 25.7096C15.9847 25.7656 15.8106 25.9983 15.4888 26.1585C15.3015 26.2517 15.0135 26.345 14.6612 26.3081C14.2953 26.2698 14.0046 26.1061 13.8045 25.9237C13.4765 25.6247 13.3829 25.273 13.3627 25.197L13.3619 25.194C13.3512 25.154 13.3427 25.115 13.3358 25.0779C13.071 24.1629 12.8054 23.2272 12.5712 22.2732C12.3028 21.18 11.997 20.3602 11.44 19.6532C11.0695 19.183 10.791 18.9892 10.3846 18.8784C9.85053 18.7327 8.79685 18.6267 8.14188 18.6267H8.08702L8.0323 18.6227C7.79907 18.6056 7.62909 18.5929 7.5136 18.5838C7.45646 18.5793 7.40805 18.5754 7.37019 18.5719C7.35175 18.5703 7.33003 18.5682 7.30872 18.5659C7.30431 18.5655 7.23911 18.5589 7.16683 18.5449C7.14805 18.5412 7.08609 18.5291 7.00924 18.5054C6.9744 18.4947 6.88964 18.4676 6.78811 18.4176L6.78445 18.4158C6.74 18.3948 6.38561 18.2274 6.15137 17.8217C6.03863 17.5785 5.95196 17.003 5.99976 16.69C6.09313 16.433 6.35108 16.051 6.48801 15.921C6.72999 15.7186 6.97543 15.6474 7.02365 15.6335L7.02776 15.6323C7.16465 15.592 7.27901 15.5809 7.29988 15.5789L7.30198 15.5787C7.36614 15.5723 7.41841 15.5714 7.43032 15.5712L7.43142 15.5712C7.45161 15.5708 7.46871 15.5709 7.47927 15.571C7.5168 15.5713 7.5598 15.5727 7.59132 15.5738C7.65949 15.5763 7.75764 15.5804 7.86768 15.585L7.88218 15.5857C8.38302 15.6068 9.13146 15.6373 9.49042 15.6273C10.2867 15.6052 10.817 15.3721 11.3259 14.8283C12.2704 13.8192 12.9375 12.769 13.2853 11.5583C13.3724 11.0454 13.2837 11.5636 13.2853 11.5565C13.2883 11.5427 13.297 11.5024 13.3108 11.4254C13.329 11.324 13.3497 11.1954 13.3724 11.0454C13.4043 10.8352 13.4366 10.6066 13.469 10.3772C13.4835 10.2752 13.4979 10.1731 13.5123 10.0723C13.5543 9.77897 13.6036 9.44266 13.6486 9.23728C13.6581 9.19434 13.6834 9.07938 13.7293 8.95642L13.7308 8.95257C13.7448 8.91424 13.8207 8.70731 13.9921 8.50222C14.0748 8.4032 14.3382 8.10873 14.8085 7.99975C15.4068 7.86107 15.9032 8.10893 16.1822 8.37314C16.4072 8.5862 16.5065 8.81313 16.5399 8.89382C16.5833 8.99851 16.6062 9.08721 16.6178 9.13679C16.6411 9.23696 16.6505 9.32165 16.6546 9.36324C16.6635 9.45451 16.666 9.5448 16.6669 9.6129C16.6702 9.85352 16.647 10.1089 16.6271 10.3056ZM16.6271 10.3056C16.6355 10.2279 16.6175 10.3997 16.6271 10.3056ZM16.3271 16.3534C16.7105 16.6616 18.6468 16.9268 19.1156 17.266C18.7237 17.4457 17.6753 17.6252 17.3243 17.7964C16.9624 17.9729 16.6185 18.1487 16.3271 18.3132C16.0669 18.46 15.7421 18.6559 15.496 18.8796C15.1923 19.1557 15.0037 19.5163 14.9051 19.7177C14.637 19.0648 14.2852 18.4169 13.7965 17.7966C13.6203 17.573 12.3448 17.4631 12.1426 17.266C12.239 17.1754 12.769 17.0204 14.1426 16.6328C14.9738 16.2684 14.7382 15.4464 15.2145 14.6222C15.2577 14.6656 15.3009 14.7083 15.344 14.7501C15.8419 15.2331 15.8694 15.9905 16.3271 16.3534ZM16.3271 16.3534C16.4283 16.4337 16.2376 16.2815 16.3271 16.3534ZM7.61445 15.5816C7.61445 15.5816 7.62067 15.5821 7.63023 15.5832C7.61875 15.5821 7.61445 15.5816 7.61445 15.5816Z" stroke="#B8B8B8" stroke-linecap="round"/>
<path d="M7.60549 7.02226C7.60002 7.07312 7.58338 7.2303 7.57859 7.28394C7.57119 7.36666 7.56816 7.429 7.56928 7.47512C7.56956 7.48681 7.57008 7.49551 7.57057 7.50155C7.63572 7.66276 7.76131 7.8323 7.95433 8.02086C8.11871 8.18146 8.29723 8.32428 8.49195 8.48007C8.54144 8.51965 8.59196 8.56008 8.64357 8.60185C8.89577 8.80595 9.20191 9.03895 9.47542 9.21869C9.54493 9.22046 9.63855 9.21747 9.74825 9.21113C9.82908 9.20646 9.90666 9.20076 9.98218 9.19522C10.014 9.19288 10.0455 9.19057 10.0766 9.18838C10.126 9.1849 10.1769 9.18158 10.2216 9.17973L10.2226 9.17969C10.2469 9.17869 10.2977 9.17659 10.3535 9.17982C10.4055 9.18159 10.5146 9.19174 10.6304 9.2485C10.7163 9.29061 10.8564 9.38377 10.94 9.56669C11.0274 9.75794 11.0039 9.93848 10.966 10.0524C10.9084 10.226 10.7933 10.3276 10.7722 10.3463C10.7714 10.347 10.7702 10.3481 10.7702 10.3481C10.7309 10.3833 10.6934 10.4094 10.6701 10.4249C10.5842 10.482 10.4653 10.5421 10.3613 10.5927C10.1613 10.69 9.87816 10.8175 9.58288 10.9504C9.54409 10.9679 9.50508 10.9854 9.46603 11.003C9.12263 11.1578 8.76796 11.3188 8.47652 11.462C8.33064 11.5336 8.2078 11.5973 8.11389 11.6507C8.07316 11.6738 8.04388 11.6917 8.0238 11.7045C7.99906 11.756 7.96778 11.8322 7.93127 11.9333C7.85731 12.1379 7.77912 12.396 7.70546 12.6531C7.67362 12.7642 7.63178 12.9144 7.5944 13.0486C7.56263 13.1626 7.53408 13.2651 7.5176 13.3223C7.49564 13.3985 7.46878 13.4895 7.44319 13.5555C7.4365 13.5727 7.42311 13.6062 7.40345 13.6436C7.39397 13.6616 7.37501 13.696 7.34601 13.735L7.34562 13.7355C7.32746 13.76 7.25209 13.8614 7.11281 13.9312C7.03176 13.9718 6.90709 14.0125 6.75461 13.9964C6.59626 13.9797 6.47045 13.9084 6.38385 13.8289C6.24186 13.6986 6.20137 13.5453 6.19261 13.5121L6.19227 13.5108C6.18765 13.4934 6.18395 13.4764 6.18098 13.4603C6.06635 13.0615 5.95143 12.6537 5.85004 12.2379C5.73386 11.7615 5.60153 11.4042 5.36045 11.0961C5.2001 10.8912 5.07952 10.8067 4.90366 10.7584C4.67249 10.6949 4.21644 10.6487 3.93296 10.6487H3.90921L3.88553 10.647C3.78458 10.6395 3.71101 10.634 3.66103 10.63C3.6363 10.6281 3.61534 10.6263 3.59896 10.6249C3.59098 10.6241 3.58158 10.6232 3.57235 10.6222C3.57045 10.622 3.54223 10.6192 3.51094 10.6131C3.50281 10.6115 3.47599 10.6062 3.44273 10.5959C3.42765 10.5912 3.39097 10.5794 3.34702 10.5576L3.34544 10.5568C3.3262 10.5477 3.17281 10.4747 3.07143 10.2979C3.02264 10.1919 2.98512 9.94111 3.00581 9.80466C3.04622 9.69266 3.15787 9.5262 3.21714 9.46953C3.32187 9.38131 3.4281 9.35031 3.44897 9.34422L3.45075 9.3437C3.51 9.32616 3.55949 9.32133 3.56853 9.32045L3.56944 9.32036C3.59721 9.31755 3.61983 9.31717 3.62498 9.31708L3.62546 9.31707C3.6342 9.31692 3.6416 9.31695 3.64617 9.31699C3.66241 9.31713 3.68103 9.31775 3.69467 9.31824C3.72417 9.31929 3.76665 9.3211 3.81428 9.32312L3.82056 9.32339C4.03733 9.3326 4.36126 9.34587 4.51663 9.34153C4.86127 9.33189 5.09078 9.2303 5.31106 8.99333C5.71986 8.55355 6.00858 8.09587 6.1591 7.56821C6.19683 7.34468 6.15844 7.57052 6.1591 7.56744C6.1604 7.56142 6.16418 7.54385 6.17017 7.51027C6.17804 7.4661 6.187 7.41005 6.19683 7.34468C6.21062 7.25305 6.2246 7.15346 6.23864 7.05345C6.24488 7.00902 6.25113 6.96451 6.25738 6.92057C6.27557 6.79275 6.29687 6.64618 6.31638 6.55667C6.32045 6.53796 6.33143 6.48786 6.3513 6.43427L6.35192 6.43259C6.358 6.41589 6.39086 6.3257 6.46501 6.23632C6.50081 6.19317 6.61484 6.06483 6.81837 6.01734C7.07735 5.9569 7.29221 6.06492 7.41294 6.18007C7.51031 6.27293 7.55332 6.37182 7.56777 6.40699C7.58653 6.45261 7.59647 6.49127 7.60147 6.51288C7.61157 6.55653 7.61562 6.59345 7.61739 6.61157C7.62128 6.65135 7.62235 6.6907 7.62275 6.72038C7.62418 6.82524 7.61412 6.93655 7.60549 7.02226ZM7.60549 7.02226C7.60914 6.98841 7.60137 7.06327 7.60549 7.02226ZM7.47564 9.658C7.64162 9.79232 8.47967 9.90788 8.68255 10.0557C8.51296 10.134 8.05917 10.2122 7.90725 10.2869C7.75063 10.3638 7.60177 10.4404 7.47564 10.5121C7.36304 10.5761 7.22247 10.6614 7.11594 10.759C6.98449 10.8793 6.90287 11.0364 6.8602 11.1242C6.74416 10.8397 6.5919 10.5573 6.38037 10.287C6.30413 10.1895 5.75206 10.1416 5.66453 10.0557C5.70625 10.0162 5.93566 9.94866 6.53016 9.77975C6.88991 9.62094 6.78794 9.26268 6.9941 8.90349C7.01281 8.92243 7.03151 8.94101 7.05016 8.95922C7.26565 9.16975 7.27757 9.49983 7.47564 9.658ZM7.47564 9.658C7.51947 9.69299 7.43691 9.62665 7.47564 9.658ZM3.70468 9.32161C3.70468 9.32161 3.70737 9.32184 3.71151 9.32232C3.70654 9.32185 3.70468 9.32161 3.70468 9.32161Z" stroke="#B8B8B8" stroke-width="0.7" stroke-linecap="round"/>
<path d="M12.4541 1.76669C12.45 1.80484 12.4375 1.92272 12.4339 1.96296C12.4284 2.02499 12.4261 2.07175 12.427 2.10634C12.4272 2.1151 12.4276 2.12163 12.4279 2.12616C12.4768 2.24707 12.571 2.37422 12.7157 2.51565C12.839 2.63609 12.9729 2.74321 13.119 2.86005C13.1561 2.88974 13.194 2.92006 13.2327 2.95138C13.4218 3.10446 13.6514 3.27921 13.8566 3.41402C13.9087 3.41535 13.9789 3.41311 14.0612 3.40835C14.1218 3.40484 14.18 3.40057 14.2366 3.39641C14.2605 3.39466 14.2841 3.39293 14.3075 3.39128C14.3445 3.38868 14.3827 3.38618 14.4162 3.3848L14.417 3.38477C14.4352 3.38401 14.4733 3.38244 14.5151 3.38487C14.5541 3.38619 14.636 3.3938 14.7228 3.43638C14.7872 3.46796 14.8923 3.53783 14.955 3.67502C15.0206 3.81845 15.0029 3.95386 14.9745 4.03931C14.9313 4.16949 14.845 4.24573 14.8291 4.25975C14.8285 4.26027 14.8276 4.26106 14.8276 4.26106C14.7982 4.28745 14.77 4.30704 14.7526 4.31864C14.6882 4.36148 14.5989 4.40658 14.521 4.44451C14.371 4.5175 14.1586 4.61311 13.9372 4.71281C13.9081 4.72591 13.8788 4.73908 13.8495 4.75228C13.592 4.86834 13.326 4.9891 13.1074 5.09647C12.998 5.15021 12.9058 5.19797 12.8354 5.23799C12.8049 5.25536 12.7829 5.26877 12.7678 5.27834C12.7493 5.31698 12.7258 5.37414 12.6984 5.44994C12.643 5.60345 12.5843 5.79702 12.5291 5.98981C12.5052 6.07314 12.4738 6.18577 12.4458 6.28642C12.422 6.37194 12.4006 6.44882 12.3882 6.49171C12.3717 6.5489 12.3516 6.61713 12.3324 6.6666C12.3274 6.67955 12.3173 6.70466 12.3026 6.73268C12.2955 6.74619 12.2813 6.77201 12.2595 6.80125L12.2592 6.80165C12.2456 6.81997 12.1891 6.89601 12.0846 6.94838C12.0238 6.97885 11.9303 7.00936 11.816 6.9973C11.6972 6.98477 11.6028 6.93126 11.5379 6.87165C11.4314 6.77391 11.401 6.65895 11.3945 6.6341L11.3942 6.63312C11.3907 6.62005 11.388 6.60732 11.3857 6.5952C11.2998 6.29611 11.2136 5.99027 11.1375 5.67844C11.0504 5.32111 10.9511 5.05315 10.7703 4.82207C10.6501 4.66837 10.5596 4.60503 10.4277 4.56881C10.2544 4.5212 9.91233 4.48654 9.69972 4.48654H9.68191L9.66415 4.48523C9.58844 4.47965 9.53326 4.47549 9.49577 4.47252C9.47722 4.47105 9.46151 4.46976 9.44922 4.46864C9.44323 4.4681 9.43618 4.46743 9.42926 4.46668C9.42783 4.46653 9.40667 4.46438 9.38321 4.45979C9.37711 4.4586 9.357 4.45465 9.33205 4.4469C9.32074 4.44339 9.29323 4.43452 9.26027 4.41819L9.25908 4.41762C9.24465 4.41075 9.12961 4.35601 9.05358 4.2234C9.01698 4.14393 8.98884 3.95583 9.00436 3.85349C9.03467 3.76949 9.1184 3.64465 9.16285 3.60215C9.2414 3.53599 9.32108 3.51273 9.33673 3.50816L9.33806 3.50777C9.3825 3.49462 9.41962 3.491 9.4264 3.49034L9.42708 3.49027C9.44791 3.48816 9.46487 3.48788 9.46874 3.48781L9.4691 3.4878C9.47565 3.48769 9.4812 3.48771 9.48463 3.48774C9.49681 3.48784 9.51077 3.48831 9.521 3.48868C9.54313 3.48947 9.57499 3.49082 9.61071 3.49234L9.61542 3.49254C9.778 3.49945 10.0209 3.50941 10.1375 3.50615C10.396 3.49892 10.5681 3.42272 10.7333 3.245C11.0399 2.91516 11.2564 2.5719 11.3693 2.17616C11.3976 2.00851 11.3688 2.17789 11.3693 2.17558C11.3703 2.17107 11.3731 2.15788 11.3776 2.1327C11.3835 2.09957 11.3903 2.05753 11.3976 2.00851C11.408 1.93979 11.4185 1.86509 11.429 1.79009C11.4337 1.75677 11.4384 1.72338 11.443 1.69043C11.4567 1.59456 11.4726 1.48464 11.4873 1.4175C11.4903 1.40347 11.4986 1.36589 11.5135 1.3257L11.5139 1.32445C11.5185 1.31192 11.5431 1.24428 11.5988 1.17724C11.6256 1.14488 11.7111 1.04863 11.8638 1.013C12.058 0.967676 12.2192 1.04869 12.3097 1.13505C12.3827 1.20469 12.415 1.27887 12.4258 1.30524C12.4399 1.33946 12.4474 1.36845 12.4511 1.38466C12.4587 1.4174 12.4617 1.44508 12.463 1.45868C12.466 1.48851 12.4668 1.51802 12.4671 1.54028C12.4681 1.61893 12.4606 1.70241 12.4541 1.76669ZM12.4541 1.76669C12.4569 1.74131 12.451 1.79745 12.4541 1.76669ZM12.3567 3.7435C12.4812 3.84424 13.1098 3.93091 13.2619 4.04177C13.1347 4.10051 12.7944 4.15918 12.6804 4.21515C12.563 4.27285 12.4513 4.33029 12.3567 4.38405C12.2723 4.43205 12.1669 4.49608 12.087 4.56922C11.9884 4.65946 11.9272 4.77731 11.8951 4.84316C11.8081 4.62974 11.6939 4.41797 11.5353 4.21521C11.4781 4.14213 11.064 4.1062 10.9984 4.04177C11.0297 4.01217 11.2017 3.96149 11.6476 3.83481C11.9174 3.7157 11.841 3.44701 11.9956 3.17762C12.0096 3.19182 12.0236 3.20576 12.0376 3.21942C12.1992 3.37731 12.2082 3.62487 12.3567 3.7435ZM12.3567 3.7435C12.3896 3.76974 12.3277 3.71999 12.3567 3.7435ZM9.52851 3.4912C9.52851 3.4912 9.53053 3.49138 9.53363 3.49174C9.5299 3.49139 9.52851 3.4912 9.52851 3.4912Z" stroke="#B8B8B8" stroke-width="0.5" stroke-linecap="round"/>
</svg>
