<svg width="12" height="12" viewBox="0 0 12 12" fill="none" xmlns="http://www.w3.org/2000/svg">
<path d="M2.5875 9.40538H9.44077C10.2568 9.40538 10.6875 8.98225 10.6875 8.17376V4.20688C10.6875 3.39839 10.2568 2.97525 9.44077 2.97525H8.43582C8.14114 2.97525 8.04669 2.92614 7.86157 2.73346L7.56311 2.41233C7.36665 2.20454 7.16642 2.10254 6.78106 2.10254H5.22831C4.84296 2.10254 4.64272 2.20454 4.44627 2.41233L4.14781 2.73346C3.96647 2.92236 3.86824 2.97525 3.57355 2.97525H2.5875C1.77146 2.97525 1.34454 3.39839 1.34454 4.20688V8.17376C1.34454 8.98225 1.77146 9.40538 2.5875 9.40538ZM6.01413 8.2191C4.88452 8.2191 3.9778 7.31238 3.9778 6.17899C3.9778 5.04181 4.88452 4.1351 6.01413 4.1351C7.14753 4.1351 8.05424 5.04181 8.05424 6.17899C8.05424 7.31238 7.14753 8.2191 6.01413 8.2191ZM8.29604 4.78869C8.29604 4.52045 8.52649 4.28621 8.80229 4.28621C9.0743 4.28621 9.30476 4.52045 9.30476 4.78869C9.30476 5.06826 9.0743 5.28738 8.80229 5.29116C8.52649 5.29116 8.29604 5.07204 8.29604 4.78869ZM6.01413 7.53528C6.76595 7.53528 7.37043 6.9308 7.37043 6.17899C7.37043 5.42339 6.76595 4.81891 6.01413 4.81891C5.26609 4.81891 4.66161 5.42339 4.66161 6.17899C4.66161 6.9308 5.26987 7.53528 6.01413 7.53528Z" fill="#B8B8B8"/>
</svg>
