<svg width="12" height="12" viewBox="0 0 12 12" fill="none" xmlns="http://www.w3.org/2000/svg">
<path d="M1.39743 5.6627C1.39743 5.85857 1.54855 6.02808 1.79034 6.02808C1.90746 6.02808 2.01324 5.96404 2.10769 5.88871L2.53838 5.5271V9.03017C2.53838 9.58765 2.87462 9.91912 3.45265 9.91912H8.56427C9.13852 9.91912 9.47854 9.58765 9.47854 9.03017V5.50827L9.9319 5.88871C10.0226 5.96404 10.1284 6.02808 10.2455 6.02808C10.4684 6.02808 10.6384 5.88871 10.6384 5.67024C10.6384 5.54217 10.5893 5.44046 10.491 5.3576L9.47854 4.50631V2.90168C9.47854 2.73218 9.36898 2.62671 9.19897 2.62671H8.67761C8.51138 2.62671 8.39804 2.73218 8.39804 2.90168V3.60229L6.55816 2.0617C6.22947 1.78673 5.81389 1.78673 5.48521 2.0617L1.54855 5.3576C1.44654 5.44046 1.39743 5.55347 1.39743 5.6627ZM7.10597 6.70232C7.10597 6.52529 6.99263 6.41228 6.81506 6.41228H5.22831C5.05074 6.41228 4.93362 6.52529 4.93362 6.70232V9.16954H3.65289C3.41865 9.16954 3.2902 9.0377 3.2902 8.8004V4.89805L5.85545 2.75101C5.96124 2.66061 6.08213 2.66061 6.18791 2.75101L8.72294 4.87545V8.8004C8.72294 9.0377 8.59449 9.16954 8.36026 9.16954H7.10597V6.70232Z" fill="#B8B8B8"/>
</svg>
