<svg width="12" height="12" viewBox="0 0 12 12" fill="none" xmlns="http://www.w3.org/2000/svg">
<path d="M8.44715 5.86865C8.44337 5.73642 8.39426 5.62308 8.29225 5.52108L5.35298 2.64603C5.26609 2.56291 5.16408 2.51758 5.03941 2.51758C4.78628 2.51758 4.58983 2.71403 4.58983 2.96716C4.58983 3.08805 4.63894 3.20139 4.72584 3.28829L7.37043 5.86865L4.72584 8.44901C4.63894 8.53591 4.58983 8.64547 4.58983 8.77014C4.58983 9.02327 4.78628 9.21972 5.03941 9.21972C5.1603 9.21972 5.26609 9.17439 5.35298 9.09127L8.29225 6.21245C8.39804 6.11422 8.44715 6.00088 8.44715 5.86865Z" fill="#B8B8B8"/>
</svg>
