<svg width="12" height="12" viewBox="0 0 12 12" fill="none" xmlns="http://www.w3.org/2000/svg">
<path d="M3.27288 6.28125H5.5706V8.57896C5.5706 8.8125 5.7627 9.00837 6 9.00837C6.23731 9.00837 6.42941 8.8125 6.42941 8.57896V6.28125H8.72713C8.96066 6.28125 9.15653 6.08915 9.15653 5.85184C9.15653 5.61454 8.96066 5.42243 8.72713 5.42243H6.42941V3.12472C6.42941 2.89118 6.23731 2.69531 6 2.69531C5.7627 2.69531 5.5706 2.89118 5.5706 3.12472V5.42243H3.27288C3.03935 5.42243 2.84348 5.61454 2.84348 5.85184C2.84348 6.08915 3.03935 6.28125 3.27288 6.28125Z" fill="#B8B8B8"/>
</svg>
