<svg width="210" height="210" viewBox="0 0 210 210" fill="none" xmlns="http://www.w3.org/2000/svg">
<g clip-path="url(#clip0_576_25569)">
<path d="M-10.9825 9.15433C-13.2505 9.15433 -15.4898 9.35024 -17.6933 9.73176C-18.9318 9.9462 -19.696 11.1466 -19.4498 12.3373C-19.2003 13.5443 -18.0315 14.2874 -16.8584 14.087C-14.9271 13.7571 -12.967 13.5881 -10.9825 13.5881C-8.99805 13.5881 -7.03799 13.7571 -5.10667 14.087C-3.93362 14.2874 -2.76485 13.5443 -2.5153 12.3373C-2.26914 11.1466 -3.03331 9.9462 -4.2718 9.73176C-6.47526 9.35024 -8.71457 9.15433 -10.9825 9.15433ZM-34.7102 16.738C-38.2445 19.1083 -41.5916 21.9846 -44.7192 25.298C-45.5723 26.2018 -45.4937 27.6143 -44.5913 28.4348C-43.6818 29.2618 -42.2909 29.1833 -41.4632 28.3077C-38.5639 25.2408 -35.4945 22.6087 -32.2922 20.4548C-31.2978 19.7861 -30.9796 18.4338 -31.6391 17.3949C-32.2918 16.3668 -33.6725 16.0419 -34.7102 16.738ZM22.7541 25.298C19.6265 21.9846 16.2794 19.1083 12.7451 16.738C11.7074 16.042 10.3267 16.3668 9.67403 17.3949C9.0145 18.4338 9.33275 19.7861 10.3271 20.4548C13.5294 22.6087 16.5988 25.2408 19.4981 28.3078C20.3258 29.1833 21.7167 29.2619 22.6262 28.4349C23.5286 27.6143 23.6072 26.2018 22.7541 25.298ZM-55.4859 39.8558C-57.6012 43.4718 -59.54 47.3433 -61.2832 51.4357C-61.7674 52.5724 -61.2196 53.8719 -60.0904 54.3379C-58.9558 54.8061 -57.6686 54.2627 -57.193 53.1472C-55.5266 49.2379 -53.6805 45.5534 -51.6762 42.1242C-51.0655 41.0791 -51.3922 39.7222 -52.4432 39.0878C-53.4884 38.457 -54.8608 38.7871 -55.4859 39.8558ZM39.318 51.4357C37.5748 47.3434 35.636 43.4718 33.5208 39.8559C32.8956 38.7871 31.5232 38.457 30.4781 39.0878C29.427 39.7222 29.1003 41.0792 29.7111 42.1242C31.7153 45.5534 33.5614 49.238 35.2278 53.1472C35.7034 54.2627 36.9906 54.8061 38.1252 54.3379C39.2544 53.872 39.8022 52.5724 39.318 51.4357ZM-67.0523 68.4547C-68.1128 72.52 -69.0026 76.7253 -69.708 81.0476C-69.9066 82.2646 -69.0695 83.3977 -67.8616 83.5839C-66.6493 83.7708 -65.5245 82.9394 -65.3286 81.74C-64.6469 77.5672 -63.7887 73.5122 -62.7683 69.5971C-62.4619 68.4217 -63.1522 67.2059 -64.3361 66.8849C-65.5153 66.5651 -66.7409 67.2606 -67.0523 68.4547ZM47.7427 81.0477C47.0373 76.7254 46.1475 72.5201 45.0871 68.4547C44.7757 67.2606 43.5501 66.5651 42.3709 66.8849C41.1869 67.206 40.4967 68.4218 40.803 69.5971C41.8235 73.5123 42.6816 77.5672 43.3633 81.74C43.5593 82.9394 44.684 83.7708 45.8963 83.584C47.1043 83.3978 47.9414 82.2646 47.7427 81.0477ZM-71.5127 98.8748C-71.6007 101 -71.6455 103.144 -71.6455 105.304C-71.6455 107.464 -71.6007 109.608 -71.5127 111.733C-71.4616 112.965 -70.414 113.906 -69.1933 113.845C-67.9684 113.784 -67.0334 112.744 -67.0836 111.529C-67.1686 109.472 -67.2117 107.396 -67.2117 105.304C-67.2117 103.212 -67.1686 101.136 -67.0836 99.0791C-67.0334 97.8641 -67.9684 96.8235 -69.1933 96.7626C-70.414 96.7019 -71.4616 97.6432 -71.5127 98.8748ZM49.6802 105.304C49.6802 103.144 49.6355 101 49.5474 98.8748C49.4964 97.6432 48.4488 96.7019 47.228 96.7626C46.0031 96.8236 45.0681 97.8641 45.1183 99.0791C45.2033 101.136 45.2465 103.212 45.2465 105.304C45.2465 107.396 45.2033 109.472 45.1183 111.529C45.0681 112.744 46.0031 113.784 47.228 113.845C48.4488 113.906 49.4964 112.965 49.5474 111.733C49.6355 109.608 49.6802 107.464 49.6802 105.304ZM45.0871 142.153C46.1475 138.088 47.0373 133.882 47.7427 129.56C47.9414 128.343 47.1043 127.21 45.8963 127.024C44.684 126.837 43.5593 127.668 43.3633 128.868C42.6816 133.041 41.8235 137.096 40.803 141.011C40.4967 142.186 41.1869 143.402 42.3709 143.723C43.5501 144.043 44.7757 143.347 45.0871 142.153ZM-69.708 129.56C-69.0026 133.883 -68.1128 138.088 -67.0523 142.153C-66.7409 143.347 -65.5153 144.043 -64.3361 143.723C-63.1522 143.402 -62.4619 142.186 -62.7683 141.011C-63.7887 137.096 -64.6469 133.041 -65.3286 128.868C-65.5245 127.668 -66.6493 126.837 -67.8616 127.024C-69.0695 127.21 -69.9066 128.343 -69.708 129.56ZM33.5208 170.752C35.636 167.136 37.5748 163.265 39.318 159.172C39.8022 158.035 39.2544 156.736 38.1252 156.27C36.9906 155.802 35.7034 156.345 35.2278 157.461C33.5614 161.37 31.7153 165.054 29.7111 168.484C29.1003 169.529 29.427 170.886 30.4781 171.52C31.5232 172.151 32.8956 171.821 33.5208 170.752ZM-61.2832 159.172C-59.54 163.265 -57.6012 167.136 -55.4859 170.752C-54.8607 171.821 -53.4884 172.151 -52.4432 171.52C-51.3922 170.886 -51.0655 169.529 -51.6762 168.484C-53.6805 165.054 -55.5266 161.37 -57.193 157.461C-57.6686 156.345 -58.9558 155.802 -60.0904 156.27C-61.2196 156.736 -61.7674 158.035 -61.2832 159.172ZM12.7451 193.87C16.2794 191.5 19.6264 188.623 22.7541 185.31C23.6072 184.406 23.5286 182.994 22.6262 182.173C21.7167 181.346 20.3258 181.425 19.4981 182.3C16.5988 185.367 13.5294 187.999 10.3271 190.153C9.33274 190.822 9.0145 192.174 9.67402 193.213C10.3267 194.241 11.7074 194.566 12.7451 193.87ZM-44.7192 185.31C-41.5916 188.623 -38.2445 191.5 -34.7102 193.87C-33.6725 194.566 -32.2918 194.241 -31.6391 193.213C-30.9796 192.174 -31.2978 190.822 -32.2922 190.153C-35.4945 187.999 -38.5639 185.367 -41.4632 182.3C-42.2909 181.425 -43.6818 181.346 -44.5913 182.173C-45.4937 182.994 -45.5723 184.406 -44.7192 185.31ZM-17.6933 200.876C-15.4898 201.258 -13.2505 201.454 -10.9825 201.454C-8.71456 201.454 -6.47525 201.258 -4.27178 200.876C-3.03329 200.662 -2.26913 199.461 -2.51529 198.271C-2.76483 197.064 -3.93361 196.32 -5.10665 196.521C-7.03798 196.851 -8.99805 197.02 -10.9825 197.02C-12.967 197.02 -14.9271 196.851 -16.8584 196.521C-18.0315 196.32 -19.2003 197.064 -19.4498 198.271C-19.696 199.461 -18.9318 200.662 -17.6933 200.876Z" fill="#FFC700" stroke="black" stroke-width="1.91204" stroke-miterlimit="10"/>
<path d="M67.3025 9.15433C65.0345 9.15433 62.7952 9.35024 60.5918 9.73176C59.3533 9.9462 58.5891 11.1466 58.8353 12.3373C59.0848 13.5443 60.2536 14.2874 61.4266 14.087C63.358 13.7571 65.318 13.5881 67.3025 13.5881C69.287 13.5881 71.2471 13.7571 73.1784 14.087C74.3515 14.2874 75.5202 13.5443 75.7698 12.3373C76.0159 11.1466 75.2518 9.9462 74.0133 9.73176C71.8098 9.35024 69.5705 9.15433 67.3025 9.15433ZM101.039 25.2979C97.9115 21.9846 94.5645 19.1083 91.0302 16.7379C89.9924 16.0419 88.6118 16.3668 87.9591 17.3949C87.2996 18.4338 87.6178 19.786 88.6122 20.4548C91.8145 22.6087 94.8839 25.2408 97.7832 28.3077C98.6109 29.1833 100.002 29.2618 100.911 28.4348C101.814 27.6142 101.892 26.2017 101.039 25.2979ZM43.5748 16.738C40.0406 19.1083 36.6935 21.9846 33.5659 25.298C32.7127 26.2018 32.7914 27.6143 33.6938 28.4348C34.6033 29.2618 35.9941 29.1833 36.8219 28.3077C39.7211 25.2408 42.7905 22.6087 45.9929 20.4548C46.9872 19.7861 47.3055 18.4338 46.646 17.3949C45.9932 16.3668 44.6126 16.0419 43.5748 16.738ZM117.603 51.4357C115.86 47.3433 113.921 43.4718 111.806 39.8558C111.181 38.7871 109.808 38.457 108.763 39.0878C107.712 39.7222 107.385 41.0791 107.996 42.1242C110 45.5534 111.847 49.2379 113.513 53.1472C113.988 54.2627 115.276 54.8061 116.41 54.3379C117.54 53.8719 118.087 52.5724 117.603 51.4357ZM22.7992 39.8558C20.6839 43.4718 18.7451 47.3433 17.0019 51.4357C16.5177 52.5724 17.0655 53.8719 18.1947 54.3379C19.3293 54.8061 20.6166 54.2627 21.0921 53.1472C22.7585 49.238 24.6046 45.5534 26.6089 42.1242C27.2196 41.0791 26.8929 39.7222 25.8418 39.0878C24.7967 38.457 23.4243 38.7871 22.7992 39.8558ZM11.2328 68.4547C10.1724 72.52 9.28259 76.7253 8.57717 81.0476C8.37855 82.2646 9.21565 83.3977 10.4236 83.5839C11.6359 83.7708 12.7606 82.9394 12.9566 81.74C13.6383 77.5672 14.4964 73.5122 15.5169 69.5971C15.8232 68.4217 15.133 67.2059 13.9491 66.8849C12.7698 66.5651 11.5443 67.2606 11.2328 68.4547ZM126.028 81.0477C125.322 76.7253 124.433 72.5201 123.372 68.4547C123.061 67.2606 121.835 66.5651 120.656 66.8849C119.472 67.2059 118.782 68.4218 119.088 69.5971C120.109 73.5122 120.967 77.5672 121.648 81.74C121.844 82.9394 122.969 83.7708 124.181 83.5839C125.389 83.3977 126.227 82.2646 126.028 81.0477ZM6.7725 98.8748C6.68442 101 6.63968 103.144 6.63968 105.304C6.63968 107.464 6.68442 109.608 6.7725 111.733C6.82355 112.965 7.87115 113.906 9.09188 113.845C10.3168 113.784 11.2518 112.744 11.2016 111.529C11.1166 109.472 11.0734 107.396 11.0734 105.304C11.0734 103.212 11.1166 101.136 11.2016 99.0791C11.2518 97.8641 10.3168 96.8235 9.09188 96.7626C7.87115 96.7019 6.82355 97.6432 6.7725 98.8748ZM127.965 105.304C127.965 103.144 127.921 101 127.833 98.8748C127.782 97.6433 126.734 96.7019 125.513 96.7626C124.288 96.8236 123.353 97.8641 123.403 99.0791C123.488 101.136 123.532 103.212 123.532 105.304C123.532 107.396 123.488 109.472 123.403 111.529C123.353 112.744 124.288 113.784 125.513 113.845C126.734 113.906 127.782 112.965 127.833 111.733C127.921 109.608 127.965 107.464 127.965 105.304ZM8.57716 129.56C9.28259 133.882 10.1724 138.088 11.2328 142.153C11.5443 143.347 12.7698 144.043 13.9491 143.723C15.133 143.402 15.8232 142.186 15.5169 141.011C14.4964 137.096 13.6383 133.041 12.9566 128.868C12.7606 127.668 11.6359 126.837 10.4236 127.024C9.21564 127.21 8.37855 128.343 8.57716 129.56ZM123.372 142.153C124.433 138.088 125.322 133.883 126.028 129.56C126.227 128.343 125.389 127.21 124.181 127.024C122.969 126.837 121.844 127.668 121.648 128.868C120.967 133.041 120.109 137.096 119.088 141.011C118.782 142.186 119.472 143.402 120.656 143.723C121.835 144.043 123.061 143.347 123.372 142.153ZM111.806 170.752C113.921 167.136 115.86 163.265 117.603 159.172C118.087 158.035 117.54 156.736 116.41 156.27C115.276 155.802 113.988 156.345 113.513 157.461C111.847 161.37 110 165.054 107.996 168.484C107.385 169.529 107.712 170.886 108.763 171.52C109.808 172.151 111.181 171.821 111.806 170.752ZM17.0019 159.172C18.7451 163.265 20.6839 167.136 22.7992 170.752C23.4243 171.821 24.7967 172.151 25.8419 171.52C26.8929 170.886 27.2196 169.529 26.6089 168.484C24.6046 165.054 22.7585 161.37 21.0921 157.461C20.6166 156.345 19.3293 155.802 18.1947 156.27C17.0655 156.736 16.5177 158.035 17.0019 159.172ZM33.5659 185.31C36.6935 188.623 40.0406 191.5 43.5748 193.87C44.6126 194.566 45.9933 194.241 46.646 193.213C47.3055 192.174 46.9872 190.822 45.9929 190.153C42.7905 187.999 39.7211 185.367 36.8219 182.3C35.9941 181.425 34.6033 181.346 33.6938 182.173C32.7914 182.994 32.7127 184.406 33.5659 185.31ZM91.0302 193.87C94.5645 191.5 97.9115 188.623 101.039 185.31C101.892 184.406 101.814 182.994 100.911 182.173C100.002 181.346 98.6109 181.425 97.7832 182.3C94.8839 185.367 91.8145 187.999 88.6122 190.153C87.6178 190.822 87.2996 192.174 87.9591 193.213C88.6118 194.241 89.9925 194.566 91.0302 193.87ZM60.5918 200.876C62.7952 201.258 65.0345 201.454 67.3025 201.454C69.5705 201.454 71.8098 201.258 74.0133 200.876C75.2518 200.662 76.0159 199.461 75.7698 198.271C75.5202 197.064 74.3515 196.32 73.1784 196.521C71.2471 196.851 69.287 197.02 67.3025 197.02C65.318 197.02 63.358 196.851 61.4266 196.521C60.2536 196.32 59.0848 197.064 58.8353 198.271C58.5891 199.461 59.3533 200.662 60.5918 200.876Z" fill="#FFC700" stroke="black" stroke-width="1.91204" stroke-miterlimit="10"/>
<path d="M145.603 9.15433C143.335 9.15433 141.096 9.35024 138.892 9.73176C137.654 9.9462 136.89 11.1466 137.136 12.3373C137.385 13.5443 138.554 14.2874 139.727 14.087C141.659 13.7571 143.619 13.5881 145.603 13.5881C147.588 13.5881 149.548 13.7571 151.479 14.087C152.652 14.2874 153.821 13.5443 154.07 12.3373C154.317 11.1466 153.552 9.94621 152.314 9.73177C150.11 9.35024 147.871 9.15433 145.603 9.15433ZM179.34 25.298C176.212 21.9846 172.865 19.1083 169.331 16.738C168.293 16.042 166.912 16.3668 166.26 17.3949C165.6 18.4338 165.918 19.7861 166.913 20.4548C170.115 22.6087 173.185 25.2408 176.084 28.3077C176.912 29.1833 178.302 29.2618 179.212 28.4348C180.114 27.6143 180.193 26.2018 179.34 25.298ZM121.875 16.738C118.341 19.1083 114.994 21.9846 111.867 25.298C111.013 26.2018 111.092 27.6143 111.994 28.4349C112.904 29.2619 114.295 29.1833 115.123 28.3078C118.022 25.2408 121.091 22.6087 124.294 20.4549C125.288 19.7861 125.606 18.4338 124.947 17.3949C124.294 16.3668 122.913 16.042 121.875 16.738ZM195.904 51.4356C194.161 47.3433 192.222 43.4718 190.107 39.8558C189.481 38.7871 188.109 38.457 187.064 39.0878C186.013 39.7222 185.686 41.0791 186.297 42.1242C188.301 45.5534 190.147 49.2379 191.814 53.1472C192.289 54.2627 193.576 54.806 194.711 54.3379C195.84 53.8719 196.388 52.5724 195.904 51.4356ZM101.1 39.8559C98.9847 43.4718 97.0459 47.3434 95.3027 51.4357C94.8184 52.5724 95.3663 53.872 96.4955 54.338C97.63 54.8061 98.9173 54.2627 99.3928 53.1472C101.059 49.238 102.905 45.5534 104.91 42.1242C105.52 41.0792 105.194 39.7222 104.143 39.0878C103.097 38.457 101.725 38.7871 101.1 39.8559ZM204.329 81.0476C203.623 76.7253 202.733 72.52 201.673 68.4546C201.362 67.2605 200.136 66.5651 198.957 66.8849C197.773 67.2059 197.083 68.4217 197.389 69.5971C198.409 73.5122 199.268 77.5672 199.949 81.74C200.145 82.9394 201.27 83.7708 202.482 83.5839C203.69 83.3977 204.527 82.2646 204.329 81.0476ZM89.5336 68.4547C88.4731 72.5201 87.5834 76.7254 86.8779 81.0477C86.6793 82.2646 87.5164 83.3978 88.7243 83.584C89.9367 83.7708 91.0614 82.9394 91.2573 81.74C91.939 77.5672 92.7972 73.5123 93.8176 69.5972C94.124 68.4218 93.4337 67.206 92.2498 66.8849C91.0706 66.5651 89.845 67.2606 89.5336 68.4547ZM206.266 105.304C206.266 103.144 206.221 101 206.133 98.8748C206.082 97.6433 205.035 96.7019 203.814 96.7626C202.589 96.8236 201.654 97.8641 201.704 99.0791C201.789 101.136 201.832 103.212 201.832 105.304C201.832 107.396 201.789 109.472 201.704 111.529C201.654 112.744 202.589 113.784 203.814 113.845C205.035 113.906 206.082 112.965 206.133 111.733C206.221 109.608 206.266 107.464 206.266 105.304ZM85.0733 98.8748C84.9852 101 84.9405 103.144 84.9405 105.304C84.9405 107.464 84.9852 109.608 85.0733 111.733C85.1243 112.965 86.1719 113.906 87.3927 113.845C88.6175 113.784 89.5525 112.744 89.5023 111.529C89.4174 109.472 89.3742 107.396 89.3742 105.304C89.3742 103.212 89.4174 101.136 89.5023 99.0791C89.5525 97.8641 88.6175 96.8236 87.3927 96.7627C86.1719 96.702 85.1243 97.6433 85.0733 98.8748ZM86.8779 129.56C87.5834 133.882 88.4731 138.088 89.5336 142.153C89.845 143.347 91.0706 144.043 92.2498 143.723C93.4337 143.402 94.124 142.186 93.8176 141.011C92.7972 137.096 91.939 133.041 91.2573 128.868C91.0614 127.668 89.9367 126.837 88.7243 127.024C87.5164 127.21 86.6793 128.343 86.8779 129.56ZM201.673 142.153C202.733 138.088 203.623 133.883 204.329 129.56C204.527 128.343 203.69 127.21 202.482 127.024C201.27 126.837 200.145 127.668 199.949 128.868C199.268 133.041 198.409 137.096 197.389 141.011C197.083 142.186 197.773 143.402 198.957 143.723C200.136 144.043 201.362 143.347 201.673 142.153ZM95.3027 159.172C97.0459 163.264 98.9847 167.136 101.1 170.752C101.725 171.821 103.097 172.151 104.143 171.52C105.194 170.886 105.52 169.529 104.91 168.484C102.905 165.054 101.059 161.37 99.3928 157.461C98.9173 156.345 97.63 155.802 96.4955 156.27C95.3663 156.736 94.8184 158.035 95.3027 159.172ZM190.107 170.752C192.222 167.136 194.161 163.265 195.904 159.172C196.388 158.035 195.84 156.736 194.711 156.27C193.576 155.802 192.289 156.345 191.814 157.461C190.147 161.37 188.301 165.054 186.297 168.484C185.686 169.529 186.013 170.886 187.064 171.52C188.109 172.151 189.481 171.821 190.107 170.752ZM111.867 185.31C114.994 188.623 118.341 191.5 121.875 193.87C122.913 194.566 124.294 194.241 124.947 193.213C125.606 192.174 125.288 190.822 124.294 190.153C121.091 187.999 118.022 185.367 115.123 182.3C114.295 181.425 112.904 181.346 111.994 182.173C111.092 182.994 111.013 184.406 111.867 185.31ZM169.331 193.87C172.865 191.5 176.212 188.623 179.34 185.31C180.193 184.406 180.114 182.994 179.212 182.173C178.302 181.346 176.912 181.425 176.084 182.3C173.185 185.367 170.115 187.999 166.913 190.153C165.918 190.822 165.6 192.174 166.26 193.213C166.912 194.241 168.293 194.566 169.331 193.87ZM138.892 200.876C141.096 201.258 143.335 201.454 145.603 201.454C147.871 201.454 150.11 201.258 152.314 200.876C153.552 200.662 154.317 199.461 154.07 198.271C153.821 197.064 152.652 196.32 151.479 196.521C149.548 196.851 147.588 197.02 145.603 197.02C143.619 197.02 141.659 196.851 139.727 196.521C138.554 196.32 137.385 197.064 137.136 198.271C136.89 199.461 137.654 200.662 138.892 200.876Z" fill="#FFC700" stroke="black" stroke-width="1.91204" stroke-miterlimit="10"/>
<path d="M223.904 9.15433C221.636 9.15433 219.397 9.35024 217.193 9.73176C215.955 9.9462 215.191 11.1466 215.437 12.3373C215.686 13.5443 216.855 14.2874 218.028 14.087C219.96 13.7571 221.92 13.5881 223.904 13.5881C225.889 13.5881 227.849 13.7571 229.78 14.087C230.953 14.2874 232.122 13.5443 232.371 12.3373C232.618 11.1466 231.853 9.9462 230.615 9.73176C228.411 9.35024 226.172 9.15433 223.904 9.15433ZM257.641 25.298C254.513 21.9846 251.166 19.1083 247.632 16.738C246.594 16.0419 245.213 16.3668 244.561 17.3949C243.901 18.4338 244.219 19.7861 245.214 20.4548C248.416 22.6087 251.485 25.2408 254.385 28.3077C255.212 29.1833 256.603 29.2618 257.513 28.4348C258.415 27.6143 258.494 26.2017 257.641 25.298ZM200.176 16.738C196.642 19.1083 193.295 21.9846 190.167 25.298C189.314 26.2018 189.393 27.6143 190.295 28.4348C191.205 29.2618 192.596 29.1833 193.423 28.3077C196.323 25.2408 199.392 22.6087 202.594 20.4548C203.589 19.7861 203.907 18.4338 203.248 17.3949C202.595 16.3668 201.214 16.0419 200.176 16.738ZM274.205 51.4357C272.461 47.3433 270.523 43.4718 268.407 39.8558C267.782 38.7871 266.41 38.457 265.365 39.0878C264.314 39.7222 263.987 41.0791 264.598 42.1242C266.602 45.5534 268.448 49.238 270.115 53.1472C270.59 54.2627 271.877 54.8061 273.012 54.3379C274.141 53.8719 274.689 52.5724 274.205 51.4357ZM179.401 39.8558C177.285 43.4718 175.347 47.3433 173.603 51.4357C173.119 52.5724 173.667 53.8719 174.796 54.3379C175.931 54.8061 177.218 54.2627 177.694 53.1472C179.36 49.238 181.206 45.5534 183.21 42.1242C183.821 41.0792 183.494 39.7222 182.443 39.0878C181.398 38.457 180.026 38.7871 179.401 39.8558ZM167.834 68.4547C166.774 72.52 165.884 76.7253 165.179 81.0476C164.98 82.2646 165.817 83.3977 167.025 83.5839C168.237 83.7708 169.362 82.9394 169.558 81.74C170.24 77.5672 171.098 73.5122 172.118 69.5971C172.425 68.4217 171.735 67.2059 170.551 66.8849C169.371 66.5651 168.146 67.2606 167.834 68.4547ZM282.629 81.0477C281.924 76.7254 281.034 72.5201 279.974 68.4547C279.662 67.2606 278.437 66.5651 277.258 66.8849C276.074 67.2059 275.383 68.4218 275.69 69.5971C276.71 73.5123 277.568 77.5672 278.25 81.74C278.446 82.9394 279.571 83.7708 280.783 83.5839C281.991 83.3977 282.828 82.2646 282.629 81.0477ZM163.374 98.8748C163.286 101 163.241 103.144 163.241 105.304C163.241 107.464 163.286 109.608 163.374 111.733C163.425 112.965 164.473 113.906 165.693 113.845C166.918 113.784 167.853 112.744 167.803 111.529C167.718 109.472 167.675 107.396 167.675 105.304C167.675 103.212 167.718 101.136 167.803 99.0791C167.853 97.8641 166.918 96.8235 165.693 96.7626C164.473 96.7019 163.425 97.6432 163.374 98.8748ZM284.567 105.304C284.567 103.144 284.522 101 284.434 98.8748C284.383 97.6432 283.335 96.7019 282.115 96.7626C280.89 96.8236 279.955 97.8641 280.005 99.0791C280.09 101.136 280.133 103.212 280.133 105.304C280.133 107.396 280.09 109.472 280.005 111.529C279.955 112.744 280.89 113.784 282.115 113.845C283.335 113.906 284.383 112.965 284.434 111.733C284.522 109.608 284.567 107.464 284.567 105.304ZM165.179 129.56C165.884 133.882 166.774 138.088 167.834 142.153C168.146 143.347 169.371 144.043 170.551 143.723C171.735 143.402 172.425 142.186 172.118 141.011C171.098 137.096 170.24 133.041 169.558 128.868C169.362 127.668 168.237 126.837 167.025 127.024C165.817 127.21 164.98 128.343 165.179 129.56ZM279.974 142.153C281.034 138.088 281.924 133.883 282.629 129.56C282.828 128.343 281.991 127.21 280.783 127.024C279.571 126.837 278.446 127.668 278.25 128.868C277.568 133.041 276.71 137.096 275.69 141.011C275.383 142.186 276.074 143.402 277.258 143.723C278.437 144.043 279.662 143.347 279.974 142.153ZM173.603 159.172C175.347 163.265 177.285 167.136 179.401 170.752C180.026 171.821 181.398 172.151 182.443 171.52C183.494 170.886 183.821 169.529 183.21 168.484C181.206 165.054 179.36 161.37 177.694 157.461C177.218 156.345 175.931 155.802 174.796 156.27C173.667 156.736 173.119 158.035 173.603 159.172ZM268.407 170.752C270.523 167.136 272.461 163.265 274.205 159.172C274.689 158.035 274.141 156.736 273.012 156.27C271.877 155.802 270.59 156.345 270.115 157.461C268.448 161.37 266.602 165.054 264.598 168.484C263.987 169.529 264.314 170.886 265.365 171.52C266.41 172.151 267.782 171.821 268.407 170.752ZM247.632 193.87C251.166 191.5 254.513 188.623 257.641 185.31C258.494 184.406 258.415 182.994 257.513 182.173C256.603 181.346 255.212 181.425 254.385 182.3C251.485 185.367 248.416 187.999 245.214 190.153C244.219 190.822 243.901 192.174 244.561 193.213C245.213 194.241 246.594 194.566 247.632 193.87ZM190.167 185.31C193.295 188.623 196.642 191.5 200.176 193.87C201.214 194.566 202.595 194.241 203.248 193.213C203.907 192.174 203.589 190.822 202.594 190.153C199.392 187.999 196.323 185.367 193.423 182.3C192.596 181.425 191.205 181.346 190.295 182.173C189.393 182.994 189.314 184.406 190.167 185.31ZM217.193 200.876C219.397 201.258 221.636 201.454 223.904 201.454C226.172 201.454 228.411 201.258 230.615 200.876C231.853 200.662 232.617 199.461 232.371 198.271C232.122 197.064 230.953 196.32 229.78 196.521C227.849 196.851 225.889 197.02 223.904 197.02C221.92 197.02 219.96 196.851 218.028 196.521C216.855 196.32 215.686 197.064 215.437 198.271C215.191 199.461 215.955 200.662 217.193 200.876Z" fill="#FFC700" stroke="black" stroke-width="1.91204" stroke-miterlimit="10"/>
</g>
<defs>
<clipPath id="clip0_576_25569">
<rect width="210" height="210" fill="white"/>
</clipPath>
</defs>
</svg>
