<svg width="28" height="28" viewBox="0 0 28 28" fill="none" xmlns="http://www.w3.org/2000/svg">
<path fill-rule="evenodd" clip-rule="evenodd" d="M17.1716 3.27251C18.9393 2.87848 20.8571 2.94716 22.4304 3.25317C22.8396 3.33275 23.3476 3.50187 23.8092 3.71863C24.2188 3.91099 24.8542 4.25929 25.2658 4.81434C25.5571 5.20718 25.7893 5.61699 25.9067 6.12836C26.0012 6.53982 26.0005 6.95662 25.9999 7.26336C25.9999 7.2856 25.9998 7.30726 25.9998 7.3283V7.34635C25.9998 9.13167 25.9374 10.9074 25.8761 12.652L25.8756 12.666C25.8138 14.424 25.7532 16.1508 25.7532 17.8786C25.7532 17.9876 25.7647 18.5219 25.7784 19.1522C25.782 19.3225 25.7859 19.4997 25.7897 19.6774C25.7984 20.0852 25.8066 20.486 25.8117 20.7856C25.8143 20.9345 25.8161 21.0634 25.8168 21.1569C25.8171 21.202 25.8172 21.2484 25.8167 21.2876C25.8164 21.3038 25.8159 21.3384 25.8138 21.3771C25.813 21.391 25.8101 21.4444 25.8012 21.5093L25.8011 21.5106C25.7978 21.5345 25.7847 21.6304 25.7494 21.7474C25.7348 21.7958 25.6871 21.9507 25.5776 22.1242C25.5141 22.2249 25.1199 22.8308 24.3029 22.8308C24.0525 22.8308 23.8476 22.7751 23.7263 22.7355C23.5951 22.6926 23.4811 22.6412 23.395 22.5989C23.2269 22.5163 23.0652 22.4178 22.9549 22.3495C22.9095 22.3215 22.8713 22.2976 22.8376 22.2766C22.7706 22.2348 22.7214 22.204 22.6688 22.1733C22.6601 22.1682 22.6526 22.1639 22.6461 22.1602C21.6863 21.8685 20.7203 21.7222 19.706 21.7222C19.1591 21.7222 18.5567 21.7384 18.0091 21.8325C17.4288 21.9321 17.1186 22.086 16.9905 22.2027L16.964 22.2268L16.9365 22.2496C16.8037 22.3594 16.4052 22.7643 15.9249 23.2828C15.4669 23.7772 15.046 24.2535 14.8951 24.4398C14.2959 25.1797 13.1798 25.188 12.5699 24.457C11.6456 23.3492 11.5065 23.2019 10.4549 22.217C9.52118 21.3426 8.83934 21.0407 8.32494 21.1673C7.82334 21.2907 7.06175 21.7457 6.36522 22.23C6.36522 22.23 6.31781 22.2692 6.12858 22.5558C6.11711 22.5732 6.10455 22.5925 6.09091 22.6134C5.94239 22.8411 5.66526 23.2661 5.26123 23.6096C5.26123 23.6096 5.24313 23.629 5.23099 23.6422C5.21991 23.6543 5.1958 23.6807 5.16701 23.7122C5.1192 23.7646 5.05849 23.8311 5.02306 23.8695C4.94835 23.9504 4.85025 24.0552 4.75682 24.1452C4.7134 24.1871 4.64115 24.2549 4.55536 24.3212C4.51435 24.3529 4.43648 24.4108 4.33356 24.4676C4.28098 24.4967 4.19884 24.5383 4.09384 24.5752C3.99662 24.6093 3.81847 24.6613 3.58985 24.6613C2.92962 24.6613 2.52381 24.2614 2.35562 24.0345C2.19641 23.8198 2.12768 23.6125 2.10056 23.5232C2.04108 23.3272 2.02278 23.1438 2.01498 23.0515C1.99684 22.837 1.99839 22.5974 2.00307 22.4108C2.01286 22.0197 2.0437 21.6254 2.04911 21.5612C2.1025 20.9267 2.12368 20.2832 2.1464 19.5932C2.14884 19.5191 2.1513 19.4445 2.15381 19.3692C2.17917 18.6113 2.21052 17.8007 2.29954 16.9903C2.67853 13.5405 2.87244 10.1175 2.29413 6.90048C2.0967 5.80223 2.8376 5.10525 3.17922 4.84614C3.57414 4.54662 4.04616 4.34366 4.41043 4.20856C4.79843 4.06466 5.19036 3.95296 5.49075 3.87295C5.61841 3.83895 5.73629 3.80892 5.8297 3.78513C5.84675 3.78079 6.00572 3.73948 6.02105 3.73556C6.86632 3.46559 7.91386 3.37445 8.87892 3.41718C9.83639 3.45958 10.9054 3.64067 11.7663 4.05312C12.284 4.30115 12.9646 4.64804 13.621 5.05677C14.622 4.09481 15.9182 3.55188 17.1716 3.27251ZM12.5986 8.04126C12.0312 7.6162 11.2081 7.16988 10.4718 6.81712C10.1142 6.64581 9.49044 6.5056 8.74664 6.47266C8.01043 6.44006 7.34357 6.52072 6.93623 6.65082C6.83956 6.68169 6.71438 6.71364 6.62779 6.73574L6.61833 6.73815C6.60077 6.74263 6.58299 6.74716 6.56496 6.75176C6.47152 6.77556 6.37131 6.80109 6.26083 6.83051C5.99569 6.90114 5.70885 6.98455 5.45148 7.08C5.43071 7.0877 5.41072 7.09527 5.39148 7.1027C5.89646 10.5396 5.66462 14.0538 5.30493 17.3281C5.23406 17.9732 5.20451 18.6396 5.17997 19.3544C5.85113 18.9195 6.75232 18.4066 7.61024 18.1955C9.62533 17.6998 11.291 18.8828 12.2674 19.7518C12.2929 18.7524 12.3247 17.7524 12.3563 16.7582L12.3566 16.7475C12.4279 14.5023 12.4982 12.2871 12.4982 10.1261C12.4982 9.95343 12.5185 9.69041 12.5353 9.47368C12.5374 9.44624 12.5395 9.41953 12.5415 9.39385C12.5624 9.12037 12.5841 8.82309 12.5948 8.53606C12.602 8.34107 12.6031 8.17472 12.5986 8.04126ZM15.2946 19.6652C15.319 18.7317 15.3489 17.7912 15.3789 16.8457L15.3794 16.831C15.4503 14.5996 15.522 12.3398 15.522 10.1261L15.522 10.1277C15.522 10.1277 15.5222 10.1175 15.5234 10.0931C15.5247 10.0653 15.5269 10.0288 15.5301 9.98187C15.5355 9.90211 15.5426 9.80976 15.551 9.69942C15.5527 9.67689 15.5545 9.65361 15.5564 9.62954C15.5773 9.35587 15.6033 9.00479 15.6165 8.65117C15.6293 8.30771 15.6325 7.90542 15.5942 7.5382C15.5898 7.49618 15.5846 7.45194 15.5784 7.40598C16.0548 6.88028 16.8049 6.48602 17.8224 6.25924C19.1109 5.97205 20.6044 6.01245 21.8594 6.25654C21.9925 6.28245 22.265 6.36547 22.5358 6.49265C22.6656 6.5536 22.7669 6.61165 22.8352 6.65873C22.8528 6.67085 22.8657 6.68045 22.8744 6.68728C22.9289 6.76351 22.9529 6.80625 22.9622 6.82534C22.964 6.83632 22.9681 6.866 22.9711 6.92754C22.9756 7.02069 22.976 7.13456 22.976 7.32823V7.34635C22.976 9.07303 22.9154 10.7992 22.8536 12.5573L22.8532 12.5697C22.7918 14.3149 22.7293 16.0917 22.7293 17.8786C22.7293 18.0062 22.7392 18.4784 22.7509 19.0229C21.7592 18.7845 20.7498 18.6638 19.706 18.6638C19.1296 18.6638 18.3148 18.6778 17.503 18.8172C16.8308 18.9326 16.0006 19.1587 15.2946 19.6652ZM22.9671 6.83763C22.9671 6.83763 22.9649 6.8336 22.963 6.8271C22.9666 6.83463 22.9671 6.83763 22.9671 6.83763Z" fill="#FFC700" stroke="#2C2D2E" stroke-linecap="round"/>
</svg>
