<svg width="12" height="12" viewBox="0 0 12 12" fill="none" xmlns="http://www.w3.org/2000/svg">
<path d="M6 7.92383C6.13184 7.92006 6.25238 7.87109 6.35031 7.76562L9.21303 4.8351C9.2959 4.75223 9.3411 4.64676 9.3411 4.52246C9.3411 4.27386 9.14523 4.07422 8.89663 4.07422C8.77609 4.07422 8.65932 4.12319 8.57269 4.20982L6.00377 6.85031L3.42732 4.20982C3.34069 4.12695 3.22768 4.07422 3.10338 4.07422C2.85478 4.07422 2.65891 4.27386 2.65891 4.52246C2.65891 4.64676 2.70411 4.75223 2.78697 4.8351L5.65346 7.76562C5.75517 7.87109 5.86817 7.92383 6 7.92383Z" fill="#B8B8B8"/>
</svg>
