<svg width="12" height="12" viewBox="0 0 12 12" fill="none" xmlns="http://www.w3.org/2000/svg">
<path d="M8.97195 9.18832C9.09249 9.30509 9.27706 9.31263 9.3976 9.18832C9.5219 9.06026 9.51436 8.87945 9.3976 8.76268L3.0092 2.37806C2.89243 2.26129 2.69656 2.25752 2.57979 2.37806C2.46679 2.49106 2.46679 2.68693 2.57979 2.79993L8.97195 9.18832ZM6.00376 2.59276C5.34458 2.59276 4.74944 2.70576 4.19573 2.89033L4.80594 3.50055C5.18638 3.39508 5.57812 3.33104 6.00376 3.33104C8.39941 3.33104 10.3016 5.41405 10.3016 5.85476C10.3016 6.15233 9.69893 6.91698 8.73842 7.51966L9.30343 8.08844C10.4862 7.31249 11.1755 6.29923 11.1755 5.85476C11.1755 5.08258 9.09626 2.59276 6.00376 2.59276ZM6.00376 9.12052C6.69684 9.12052 7.33342 8.99999 7.90973 8.80035L7.29952 8.19014C6.89271 8.31067 6.4633 8.38224 6.00376 8.38224C3.60058 8.38224 1.69838 6.3821 1.69838 5.85476C1.69838 5.60239 2.33496 4.79254 3.35574 4.15973L2.77943 3.58341C1.55147 4.3669 0.824493 5.40652 0.824493 5.85476C0.824493 6.62694 2.94894 9.12052 6.00376 9.12052ZM7.87583 6.57421C7.97377 6.35574 8.0265 6.10713 8.0265 5.85476C8.0265 4.7285 7.12625 3.83579 6.00376 3.83579C5.74386 3.83579 5.50279 3.88852 5.28055 3.97892L7.87583 6.57421ZM6.00376 7.8775C6.29003 7.8775 6.56124 7.8097 6.80608 7.69293L4.15806 5.04491C4.03752 5.28975 3.97349 5.56472 3.97349 5.85853C3.97726 6.95465 4.87374 7.8775 6.00376 7.8775Z" fill="#B8B8B8"/>
</svg>
