<svg width="12" height="12" viewBox="0 0 12 12" fill="none" xmlns="http://www.w3.org/2000/svg">
<path d="M9.73206 7.06735C10.261 7.06735 10.6892 6.64421 10.6892 6.11529C10.6892 5.58637 10.261 5.1582 9.73206 5.1582C9.20317 5.1582 8.77499 5.58637 8.77499 6.11529C8.77499 6.64421 9.20317 7.06735 9.73206 7.06735Z" fill="#B8B8B8"/>
<path d="M5.98935 7.06735C6.51828 7.06735 6.94138 6.64421 6.94138 6.11529C6.94138 5.58637 6.51828 5.1582 5.98935 5.1582C5.46043 5.1582 5.03226 5.58637 5.03226 6.11529C5.03226 6.64421 5.46043 7.06735 5.98935 7.06735Z" fill="#B8B8B8"/>
<path d="M2.24662 7.06735C2.77554 7.06735 3.19868 6.64421 3.19868 6.11529C3.19868 5.58637 2.77554 5.1582 2.24662 5.1582C1.71771 5.1582 1.28954 5.58637 1.28954 6.11529C1.28954 6.64421 1.71771 7.06735 2.24662 7.06735Z" fill="#B8B8B8"/>
</svg>
