<svg width="12" height="12" viewBox="0 0 12 12" fill="none" xmlns="http://www.w3.org/2000/svg">
<path d="M5.99998 2.93638C5.66851 2.54464 4.93023 2.19434 4.06388 2.19434C2.90749 2.19434 1.97334 2.79325 1.72473 3.36203V9.0159C1.72473 9.38504 1.9658 9.52818 2.23324 9.52818C2.43288 9.52818 2.54588 9.46791 2.67395 9.37374C2.93009 9.16657 3.3482 8.9255 4.06388 8.9255C4.78332 8.9255 5.273 9.16657 5.49147 9.35114C5.61201 9.44155 5.75138 9.52818 5.99998 9.52818C6.24859 9.52818 6.38419 9.43401 6.50849 9.35114C6.74203 9.17787 7.21664 8.9255 7.93609 8.9255C8.65177 8.9255 9.07741 9.17034 9.32601 9.37374C9.45408 9.46791 9.56709 9.52818 9.76672 9.52818C10.0342 9.52818 10.2752 9.38504 10.2752 9.0159V3.36203C10.0266 2.79325 9.09624 2.19434 7.93609 2.19434C7.06974 2.19434 6.33522 2.54464 5.99998 2.93638ZM2.54211 3.62193C2.64382 3.37333 3.20129 2.95145 4.06388 2.95145C4.92646 2.95145 5.50277 3.37709 5.59317 3.62193V8.59026C5.2052 8.31152 4.65149 8.16085 4.06388 8.16085C3.4725 8.16085 2.92256 8.31152 2.54211 8.60156V3.62193ZM9.45785 3.62193V8.60156C9.07741 8.31152 8.52747 8.16085 7.93609 8.16085C7.34848 8.16085 6.79476 8.31152 6.40679 8.59026V3.62193C6.49719 3.37709 7.0735 2.95145 7.93609 2.95145C8.79867 2.95145 9.35615 3.37333 9.45785 3.62193Z" fill="#B8B8B8"/>
</svg>
