<svg width="12" height="12" viewBox="0 0 12 12" fill="none" xmlns="http://www.w3.org/2000/svg">
<path d="M5.38699 8.15737C5.98769 8.15737 6.55061 7.97656 7.01908 7.66769L8.67383 9.32129C8.78339 9.42676 8.92318 9.47949 9.0743 9.47949C9.38787 9.47949 9.61833 9.23465 9.61833 8.92578C9.61833 8.78265 9.56922 8.64328 9.46343 8.53781L7.82001 6.89174C8.16003 6.4096 8.36026 5.82575 8.36026 5.19294C8.36026 3.56194 7.02285 2.22852 5.38699 2.22852C3.7549 2.22852 2.41371 3.56194 2.41371 5.19294C2.41371 6.82394 3.75112 8.15737 5.38699 8.15737ZM5.38699 7.36635C4.18936 7.36635 3.20709 6.387 3.20709 5.19294C3.20709 3.99888 4.18936 3.01953 5.38699 3.01953C6.58461 3.01953 7.56688 3.99888 7.56688 5.19294C7.56688 6.387 6.58461 7.36635 5.38699 7.36635Z" fill="#B8B8B8"/>
</svg>
