<svg width="12" height="12" viewBox="0 0 12 12" fill="none" xmlns="http://www.w3.org/2000/svg">
<path d="M2.23487 10.8599H10.0427C10.8991 10.8599 11.4179 10.2655 11.4179 9.49483C11.4179 9.25811 11.3474 9.01124 11.2214 8.78961L7.31247 1.97917C7.05052 1.52078 6.60223 1.28906 6.13876 1.28906C5.67534 1.28906 5.22198 1.52078 4.96509 1.97917L1.05614 8.78961C0.920128 9.01632 0.85968 9.25811 0.85968 9.49483C0.85968 10.2655 1.37852 10.8599 2.23487 10.8599ZM2.2399 10.0691C1.88729 10.0691 1.67573 9.7971 1.67573 9.4898C1.67573 9.39411 1.69587 9.2732 1.75129 9.16741L5.65518 2.36201C5.76097 2.17563 5.95242 2.09503 6.13876 2.09503C6.32515 2.09503 6.51153 2.17563 6.61732 2.36201L10.5213 9.17244C10.5767 9.27822 10.6019 9.39411 10.6019 9.4898C10.6019 9.7971 10.3802 10.0691 10.0326 10.0691H2.2399Z" fill="#B8B8B8"/>
<path d="M6.13876 7.46496C6.3806 7.46496 6.52163 7.32392 6.52666 7.06197L6.5972 4.40731C6.60223 4.1504 6.40071 3.95898 6.13373 3.95898C5.86172 3.95898 5.67031 4.14536 5.67534 4.40227L5.74085 7.06197C5.74588 7.31885 5.88691 7.46496 6.13876 7.46496ZM6.13876 9.10209C6.43093 9.10209 6.68282 8.87036 6.68282 8.57819C6.68282 8.28099 6.436 8.05433 6.13876 8.05433C5.84156 8.05433 5.59474 8.28602 5.59474 8.57819C5.59474 8.86533 5.84663 9.10209 6.13876 9.10209Z" fill="#B8B8B8"/>
</svg>
