<svg width="12" height="12" viewBox="0 0 12 12" fill="none" xmlns="http://www.w3.org/2000/svg">
<path d="M3.62265 7.60361H5.6401V9.39437C5.6401 9.91951 5.91211 10.4598 6.0179 10.4598C6.1199 10.4598 6.39192 9.91951 6.39192 9.39437V7.60361H8.41314C8.77205 7.60361 9.0025 7.37693 9.0025 7.03313C9.0025 6.21709 8.35647 5.41615 7.36664 5.01946L7.24574 3.2287C7.7331 2.91135 8.1789 2.55622 8.37158 2.30687C8.47359 2.17086 8.5227 2.03486 8.5227 1.91396C8.5227 1.66461 8.3338 1.47949 8.04667 1.47949H3.98534C3.70199 1.47949 3.50931 1.66461 3.50931 1.91396C3.50931 2.03486 3.55843 2.17086 3.66043 2.30687C3.85311 2.55622 4.30269 2.91135 4.78627 3.2287L4.66538 5.01946C3.67932 5.41615 3.02951 6.21709 3.02951 7.03313C3.02951 7.37693 3.26375 7.60361 3.62265 7.60361ZM6.0179 4.76256C5.78744 4.76256 5.56454 4.78523 5.35297 4.82301L5.46631 2.92646C5.47009 2.86223 5.45875 2.83201 5.40964 2.80934C4.90339 2.54866 4.51048 2.24642 4.44625 2.15953C4.41603 2.11797 4.44248 2.08397 4.48403 2.08397H7.54798C7.58954 2.08397 7.61598 2.11797 7.58576 2.15953C7.52153 2.24642 7.12862 2.54866 6.62237 2.80934C6.57326 2.83201 6.56193 2.86223 6.5657 2.92646L6.67904 4.82301C6.46748 4.78523 6.24458 4.76256 6.0179 4.76256ZM3.79644 6.95757C3.72088 6.95757 3.68688 6.91601 3.70199 6.82534C3.79266 6.14908 4.68427 5.38971 6.0179 5.38971C7.34775 5.38971 8.23935 6.14908 8.3338 6.82534C8.34513 6.91601 8.31113 6.95757 8.23557 6.95757H3.79644Z" fill="#B8B8B8"/>
</svg>
