<svg width="210" height="210" viewBox="0 0 210 210" fill="none" xmlns="http://www.w3.org/2000/svg">
<g clip-path="url(#clip0_576_25567)">
<mask id="path-1-outside-1_576_25567" maskUnits="userSpaceOnUse" x="-69.795" y="-83.2426" width="476.59" height="476.59" fill="black">
<rect fill="white" x="-69.795" y="-83.2426" width="476.59" height="476.59"/>
<path fill-rule="evenodd" clip-rule="evenodd" d="M279.747 33.9825C279.306 34.501 278.53 34.5638 278.005 34.1311C274.936 31.5997 271.707 29.2907 268.361 27.2459C267.781 26.8912 267.585 26.137 267.931 25.5512V25.5512C268.277 24.9654 269.032 24.77 269.613 25.1244C273.082 27.2424 276.426 29.6335 279.599 32.2531C280.124 32.6861 280.187 33.464 279.747 33.9825V33.9825ZM298.449 56.0689C297.863 56.4146 297.109 56.2194 296.754 55.6391C294.709 52.2929 292.4 49.0639 289.869 45.9949C289.436 45.4702 289.499 44.6936 290.018 44.2534V44.2534C290.536 43.8132 291.314 43.8762 291.747 44.4008C294.367 47.5742 296.758 50.9176 298.876 54.3871C299.23 54.9676 299.035 55.7232 298.449 56.0689V56.0689ZM254.775 19.3833C254.55 20.0249 253.847 20.3609 253.201 20.1471C249.427 18.8976 245.596 18.0071 241.757 17.5219C241.082 17.4366 240.591 16.8326 240.661 16.1561V16.1561C240.731 15.4796 241.337 14.9867 242.011 15.0714C246.053 15.5783 250.073 16.5139 254.019 17.8232C254.664 18.0374 255.001 18.7416 254.775 19.3833V19.3833ZM307.844 83.3392C307.167 83.4094 306.563 82.9177 306.478 82.2429C305.993 78.4036 305.102 74.5727 303.853 70.7989C303.639 70.1532 303.975 69.4504 304.617 69.2247V69.2247C305.258 68.999 305.963 69.3359 306.177 69.9815C307.486 73.9271 308.422 77.9468 308.929 81.9886C309.013 82.6635 308.52 83.269 307.844 83.3392V83.3392ZM226.194 16.649C226.314 17.3183 225.869 17.9572 225.203 18.0955C221.45 18.8752 217.752 20.1246 214.155 21.8927C213.545 22.1928 212.801 21.9622 212.485 21.3598V21.3598C212.17 20.7574 212.401 20.0115 213.011 19.7106C216.835 17.8245 220.771 16.495 224.766 15.6708C225.432 15.5334 226.073 15.9796 226.194 16.649V16.649ZM302.64 111.515C302.038 111.199 301.807 110.455 302.107 109.845C303.875 106.248 305.125 102.55 305.904 98.7967C306.043 98.1307 306.682 97.6857 307.351 97.8065V97.8065C308.02 97.9273 308.467 98.5681 308.329 99.2343C307.505 103.229 306.175 107.165 304.289 110.989C303.988 111.599 303.243 111.831 302.64 111.515V111.515ZM200.801 29.7652C201.267 30.2602 201.243 31.0387 200.758 31.5155C198.126 34.1026 195.596 37.0747 193.195 40.4601C192.801 41.0149 192.036 41.159 191.474 40.7745V40.7745C190.913 40.3901 190.769 39.6227 191.163 39.0677C193.661 35.5418 196.304 32.4347 199.068 29.7225C199.554 29.2461 200.334 29.2702 200.801 29.7652V29.7652ZM283.225 132.526C282.841 131.964 282.985 131.199 283.54 130.805C286.925 128.404 289.897 125.874 292.484 123.242C292.961 122.757 293.74 122.733 294.235 123.2V123.2C294.73 123.666 294.754 124.446 294.277 124.932C291.565 127.696 288.458 130.339 284.932 132.837C284.377 133.231 283.61 133.087 283.225 132.526V132.526ZM184.323 53.353C184.938 53.6435 185.2 54.3772 184.917 54.9955C183.352 58.4106 181.883 62.0887 180.521 66.0423C180.3 66.6854 179.603 67.0339 178.958 66.8182V66.8182C178.313 66.6025 177.964 65.9043 178.185 65.2612C179.577 61.2187 181.082 57.4498 182.69 53.9434C182.973 53.3251 183.708 53.0625 184.323 53.353V53.353ZM257.182 145.042C256.966 144.397 257.315 143.7 257.958 143.479C261.911 142.117 265.589 140.648 269.004 139.083C269.623 138.8 270.357 139.062 270.647 139.677V139.677C270.938 140.292 270.675 141.027 270.057 141.31C266.55 142.918 262.781 144.423 258.739 145.815C258.096 146.036 257.397 145.687 257.182 145.042V145.042ZM145.526 40.7746C144.964 41.159 144.199 41.015 143.805 40.4602C141.404 37.0747 138.874 34.1026 136.242 31.5156C135.757 31.0388 135.733 30.2603 136.199 29.7653V29.7653C136.666 29.2702 137.446 29.2461 137.932 29.7225C140.696 32.4347 143.339 35.5419 145.837 39.0678C146.231 39.6228 146.087 40.3901 145.526 40.7746V40.7746ZM294.235 187.801C293.74 188.267 292.961 188.243 292.484 187.758C289.897 185.126 286.925 182.596 283.54 180.195C282.985 179.801 282.841 179.036 283.225 178.474V178.474C283.61 177.913 284.377 177.769 284.932 178.163C288.458 180.661 291.565 183.304 294.278 186.068C294.754 186.554 294.73 187.334 294.235 187.801V187.801ZM124.515 21.3598C124.199 21.9622 123.455 22.1929 122.845 21.8928C119.248 20.1247 115.55 18.8752 111.797 18.0955C111.131 17.9572 110.686 17.3183 110.806 16.649V16.649C110.927 15.9796 111.568 15.5334 112.234 15.6708C116.229 16.4951 120.165 17.8245 123.989 19.7107C124.599 20.0115 124.831 20.7574 124.515 21.3598V21.3598ZM307.351 213.194C306.682 213.314 306.043 212.869 305.904 212.203C305.125 208.45 303.875 204.752 302.107 201.155C301.807 200.545 302.038 199.801 302.64 199.485V199.485C303.243 199.17 303.989 199.401 304.289 200.011C306.176 203.835 307.505 207.771 308.329 211.766C308.467 212.432 308.02 213.073 307.351 213.194V213.194ZM270.647 171.323C270.357 171.938 269.623 172.2 269.004 171.917C265.589 170.352 261.911 168.883 257.958 167.521C257.315 167.3 256.966 166.603 257.182 165.958V165.958C257.397 165.313 258.096 164.964 258.739 165.185C262.781 166.577 266.55 168.082 270.057 169.69C270.675 169.973 270.938 170.708 270.647 171.323V171.323ZM158.042 66.8183C157.397 67.034 156.7 66.6855 156.479 66.0424C155.117 62.0888 153.648 58.4106 152.083 54.9955C151.8 54.3772 152.062 53.6435 152.677 53.353V53.353C153.292 53.0625 154.027 53.3251 154.31 53.9434C155.918 57.4498 157.423 61.2187 158.815 65.2612C159.036 65.9044 158.687 66.6026 158.042 66.8183V66.8183ZM174.989 80.8679C175.651 81.0242 176.061 81.6874 175.909 82.3504C175.047 86.1117 174.266 90.0613 173.572 94.2054C173.459 94.8762 172.827 95.3325 172.156 95.2237V95.2237C171.484 95.115 171.028 94.4822 171.14 93.8114C171.844 89.6115 172.636 85.6044 173.511 81.7844C173.663 81.1214 174.327 80.7117 174.989 80.8679V80.8679ZM228.776 151.844C228.667 151.173 229.124 150.541 229.795 150.428C233.939 149.734 237.888 148.953 241.65 148.091C242.313 147.939 242.976 148.349 243.132 149.011V149.011C243.288 149.673 242.879 150.337 242.216 150.489C238.396 151.364 234.389 152.156 230.189 152.86C229.518 152.972 228.885 152.516 228.776 151.844V151.844ZM243.132 161.989C242.976 162.651 242.313 163.061 241.65 162.909C237.888 162.047 233.939 161.266 229.795 160.572C229.124 160.459 228.667 159.827 228.776 159.156V159.156C228.885 158.484 229.518 158.028 230.189 158.14C234.389 158.844 238.396 159.636 242.216 160.511C242.879 160.663 243.288 161.327 243.132 161.989V161.989ZM164.844 95.2237C164.173 95.3325 163.541 94.8762 163.428 94.2054C162.734 90.0613 161.953 86.1118 161.091 82.3504C160.939 81.6874 161.349 81.0242 162.011 80.868V80.868C162.673 80.7117 163.337 81.1214 163.489 81.7844C164.364 85.6044 165.156 89.6115 165.86 93.8114C165.972 94.4822 165.516 95.115 164.844 95.2237V95.2237ZM96.3392 16.1561C96.4094 16.8326 95.9177 17.4366 95.2429 17.5219C91.4036 18.0071 87.5726 18.8976 83.7989 20.1471C83.1532 20.3609 82.4504 20.0249 82.2247 19.3833V19.3833C81.999 18.7416 82.3359 18.0374 82.9815 17.8232C86.9271 16.5138 90.9468 15.5783 94.9886 15.0714C95.6634 14.9867 96.269 15.4796 96.3392 16.1561V16.1561ZM304.617 241.775C303.975 241.55 303.639 240.847 303.853 240.201C305.102 236.427 305.993 232.596 306.478 228.757C306.563 228.082 307.167 227.591 307.844 227.661V227.661C308.52 227.731 309.013 228.337 308.929 229.011C308.422 233.053 307.486 237.073 306.177 241.019C305.963 241.664 305.258 242.001 304.617 241.775V241.775ZM200.064 155.5C200.006 154.486 200.78 153.618 201.793 153.554C205.759 153.304 209.593 152.991 213.299 152.618C213.975 152.55 214.581 153.04 214.652 153.716L214.733 154.481C214.76 154.735 214.582 154.962 214.328 154.989V154.989C213.764 155.047 213.764 155.953 214.328 156.011V156.011C214.582 156.038 214.76 156.265 214.733 156.519L214.652 157.284C214.581 157.96 213.975 158.45 213.299 158.382C209.594 158.009 205.76 157.696 201.794 157.446C200.781 157.382 200.006 156.514 200.064 155.5V155.5V155.5ZM170.284 109.348C170.96 109.419 171.45 110.025 171.382 110.701C171.009 114.406 170.696 118.24 170.446 122.206C170.382 123.219 169.514 123.994 168.5 123.936V123.936V123.936C167.486 123.994 166.618 123.22 166.554 122.207C166.304 118.241 165.991 114.407 165.618 110.701C165.55 110.025 166.04 109.419 166.716 109.348L167.481 109.267C167.735 109.24 167.962 109.418 167.989 109.672V109.672C168.047 110.236 168.953 110.236 169.011 109.672V109.672C169.038 109.418 169.265 109.24 169.519 109.267L170.284 109.348ZM69.0689 25.5512C69.4146 26.1369 69.2194 26.8912 68.6391 27.2459C65.2929 29.2906 62.0639 31.5997 58.9949 34.131C58.4702 34.5638 57.6936 34.501 57.2534 33.9825V33.9825C56.8132 33.4639 56.8762 32.6861 57.4008 32.2531C60.5742 29.6334 63.9176 27.2423 67.3871 25.1244C67.9676 24.77 68.7232 24.9654 69.0689 25.5512V25.5512ZM290.017 266.747C289.499 266.306 289.436 265.53 289.869 265.005C292.4 261.936 294.709 258.707 296.754 255.361C297.109 254.781 297.863 254.585 298.449 254.931V254.931C299.035 255.277 299.23 256.032 298.876 256.613C296.758 260.083 294.367 263.426 291.747 266.599C291.314 267.124 290.536 267.187 290.017 266.747V266.747ZM178.016 155.5C178.016 154.82 178.567 154.269 179.247 154.267C181.373 154.261 183.466 154.239 185.529 154.201C185.568 154.201 185.599 154.231 185.6 154.27L185.601 154.316C185.601 154.327 185.61 154.337 185.622 154.337V154.337C185.634 154.337 185.643 154.347 185.643 154.359L185.622 155.499L185.643 156.641C185.643 156.653 185.634 156.663 185.622 156.663V156.663C185.61 156.663 185.601 156.673 185.601 156.684L185.6 156.73C185.599 156.769 185.567 156.799 185.529 156.799C183.466 156.761 181.372 156.739 179.247 156.733C178.567 156.731 178.016 156.18 178.016 155.5V155.5ZM169.73 138.4C169.769 138.401 169.799 138.433 169.799 138.471C169.761 140.534 169.739 142.628 169.733 144.753C169.731 145.433 169.18 145.984 168.5 145.984V145.984C167.82 145.984 167.269 145.433 167.267 144.753C167.261 142.627 167.239 140.534 167.201 138.471C167.201 138.432 167.231 138.401 167.27 138.4L167.316 138.399C167.327 138.399 167.337 138.39 167.337 138.378V138.378C167.337 138.366 167.347 138.357 167.359 138.357L168.499 138.378L169.641 138.357C169.653 138.357 169.663 138.366 169.663 138.378V138.378C169.663 138.39 169.673 138.399 169.684 138.399L169.73 138.4ZM151.4 154.27C151.401 154.231 151.433 154.201 151.471 154.201C153.534 154.239 155.627 154.261 157.753 154.267C158.433 154.269 158.984 154.82 158.984 155.5V155.5C158.984 156.18 158.433 156.731 157.753 156.733C155.627 156.739 153.534 156.761 151.471 156.799C151.432 156.799 151.401 156.769 151.4 156.731L151.399 156.684C151.399 156.673 151.39 156.663 151.378 156.663V156.663C151.366 156.663 151.357 156.653 151.357 156.641L151.378 155.502L151.357 154.359C151.357 154.347 151.366 154.337 151.378 154.337V154.337C151.39 154.337 151.399 154.327 151.399 154.316L151.4 154.27ZM168.5 165.016C169.18 165.016 169.731 165.567 169.733 166.247C169.739 168.373 169.761 170.466 169.799 172.529C169.799 172.568 169.769 172.599 169.73 172.6L169.684 172.601C169.673 172.601 169.663 172.61 169.663 172.622V172.622C169.663 172.634 169.653 172.643 169.641 172.643L168.501 172.622L167.359 172.643C167.347 172.643 167.337 172.634 167.337 172.622V172.622C167.337 172.61 167.327 172.601 167.316 172.601L167.27 172.6C167.231 172.599 167.201 172.567 167.201 172.529C167.239 170.466 167.261 168.373 167.267 166.247C167.269 165.567 167.82 165.016 168.5 165.016V165.016ZM46.9825 44.2534C47.501 44.6935 47.5638 45.4701 47.1311 45.9948C44.5997 49.0638 42.2907 52.2928 40.2459 55.639C39.8912 56.2194 39.137 56.4145 38.5512 56.0688V56.0688C37.9654 55.7231 37.77 54.9676 38.1244 54.387C40.2424 50.9175 42.6335 47.5742 45.2531 44.4007C45.6861 43.8762 46.464 43.8132 46.9825 44.2534V44.2534ZM267.931 285.449C267.585 284.863 267.781 284.109 268.361 283.754C271.707 281.709 274.936 279.4 278.005 276.869C278.53 276.436 279.306 276.499 279.747 277.018V277.018C280.187 277.536 280.124 278.314 279.599 278.747C276.426 281.367 273.082 283.758 269.613 285.876C269.032 286.23 268.277 286.035 267.931 285.449V285.449ZM122.348 153.716C122.419 153.04 123.025 152.55 123.701 152.618C127.406 152.991 131.24 153.304 135.206 153.554C136.219 153.618 136.994 154.486 136.936 155.5V155.5V155.5C136.994 156.514 136.22 157.382 135.207 157.446C131.241 157.696 127.407 158.009 123.701 158.382C123.025 158.45 122.419 157.96 122.348 157.284L122.267 156.519C122.24 156.265 122.418 156.038 122.672 156.011V156.011C123.236 155.953 123.236 155.047 122.672 154.989V154.989C122.418 154.962 122.24 154.735 122.267 154.481L122.348 153.716ZM168.5 187.064C169.514 187.006 170.382 187.78 170.446 188.794C170.696 192.759 171.009 196.593 171.382 200.299C171.45 200.975 170.96 201.581 170.284 201.652L169.519 201.733C169.265 201.76 169.038 201.582 169.011 201.328V201.328C168.953 200.764 168.047 200.764 167.989 201.328V201.328C167.962 201.582 167.735 201.76 167.481 201.733L166.716 201.652C166.04 201.581 165.55 200.975 165.618 200.299C165.991 196.594 166.304 192.76 166.554 188.794C166.618 187.781 167.486 187.006 168.5 187.064V187.064V187.064ZM32.3833 69.2247C33.0249 69.4504 33.3609 70.1532 33.1471 70.7988C31.8976 74.5726 31.0071 78.4036 30.5219 82.2429C30.4366 82.9177 29.8326 83.4094 29.1561 83.3392V83.3392C28.4796 83.2689 27.9867 82.6634 28.0714 81.9885C28.5783 77.9467 29.5138 73.927 30.8232 69.9814C31.0374 69.3359 31.7416 68.999 32.3833 69.2247V69.2247ZM240.661 294.844C240.591 294.167 241.082 293.563 241.757 293.478C245.596 292.993 249.427 292.102 253.201 290.853C253.847 290.639 254.55 290.975 254.775 291.617V291.617C255.001 292.258 254.664 292.963 254.019 293.177C250.073 294.486 246.053 295.422 242.011 295.929C241.337 296.013 240.731 295.52 240.661 294.844V294.844ZM93.8679 149.011C94.0242 148.349 94.6873 147.939 95.3503 148.091C99.1117 148.953 103.061 149.734 107.205 150.428C107.876 150.541 108.333 151.173 108.224 151.844V151.844C108.115 152.516 107.482 152.972 106.811 152.86C102.611 152.156 98.6044 151.364 94.7844 150.489C94.1214 150.337 93.7117 149.673 93.8679 149.011V149.011ZM172.156 215.776C172.827 215.667 173.459 216.124 173.572 216.795C174.266 220.939 175.047 224.888 175.909 228.65C176.061 229.313 175.651 229.976 174.989 230.132V230.132C174.327 230.288 173.663 229.879 173.511 229.216C172.636 225.396 171.844 221.389 171.14 217.189C171.028 216.518 171.484 215.885 172.156 215.776V215.776ZM162.011 230.132C161.349 229.976 160.939 229.313 161.091 228.65C161.953 224.888 162.734 220.939 163.428 216.795C163.541 216.124 164.173 215.667 164.844 215.776V215.776C165.516 215.885 165.972 216.518 165.86 217.189C165.156 221.389 164.364 225.396 163.489 229.216C163.337 229.879 162.673 230.288 162.011 230.132V230.132ZM108.224 159.156C108.333 159.827 107.876 160.459 107.205 160.572C103.061 161.266 99.1118 162.047 95.3504 162.909C94.6874 163.061 94.0242 162.651 93.868 161.989V161.989C93.7117 161.327 94.1214 160.663 94.7844 160.511C98.6044 159.636 102.611 158.844 106.811 158.14C107.482 158.028 108.115 158.484 108.224 159.156V159.156ZM178.958 244.182C179.603 243.966 180.3 244.315 180.521 244.958C181.883 248.911 183.352 252.589 184.917 256.004C185.2 256.623 184.938 257.357 184.323 257.647V257.647C183.708 257.938 182.973 257.675 182.69 257.057C181.082 253.55 179.577 249.781 178.185 245.739C177.964 245.096 178.313 244.397 178.958 244.182V244.182ZM66.353 139.677C66.6435 139.062 67.3772 138.8 67.9955 139.083C71.4106 140.648 75.0887 142.117 79.0423 143.479C79.6854 143.7 80.0339 144.397 79.8182 145.042V145.042C79.6025 145.687 78.9043 146.036 78.2612 145.815C74.2187 144.423 70.4498 142.918 66.9434 141.31C66.3251 141.027 66.0624 140.292 66.353 139.677V139.677ZM29.649 97.8064C30.3183 97.6856 30.9572 98.1307 31.0955 98.7966C31.8752 102.55 33.1246 106.248 34.8927 109.845C35.1928 110.455 34.9621 111.199 34.3598 111.515V111.515C33.7574 111.83 33.0115 111.599 32.7106 110.989C30.8245 107.165 29.495 103.229 28.6708 99.2342C28.5333 98.5681 28.9796 97.9272 29.649 97.8064V97.8064ZM212.485 289.64C212.801 289.038 213.545 288.807 214.155 289.107C217.752 290.875 221.45 292.125 225.203 292.904C225.869 293.043 226.314 293.682 226.194 294.351V294.351C226.073 295.02 225.432 295.467 224.766 295.329C220.771 294.505 216.835 293.175 213.011 291.289C212.401 290.988 212.169 290.243 212.485 289.64V289.64ZM42.7652 123.199C43.2602 122.733 44.0387 122.757 44.5155 123.242C47.1026 125.874 50.0747 128.404 53.4601 130.805C54.0149 131.199 54.159 131.964 53.7745 132.526V132.526C53.3901 133.087 52.6227 133.231 52.0677 132.837C48.5418 130.339 45.4347 127.696 42.7225 124.932C42.2461 124.446 42.2702 123.666 42.7652 123.199V123.199ZM191.474 270.225C192.036 269.841 192.801 269.985 193.195 270.54C195.596 273.925 198.126 276.897 200.758 279.484C201.243 279.961 201.267 280.74 200.801 281.235V281.235C200.334 281.73 199.554 281.754 199.068 281.278C196.304 278.565 193.661 275.458 191.163 271.932C190.769 271.377 190.913 270.61 191.474 270.225V270.225ZM79.8183 165.958C80.034 166.603 79.6855 167.3 79.0424 167.521C75.0887 168.883 71.4106 170.352 67.9955 171.917C67.3772 172.2 66.6435 171.938 66.353 171.323V171.323C66.0625 170.708 66.3251 169.973 66.9434 169.69C70.4498 168.082 74.2187 166.577 78.2612 165.185C78.9044 164.964 79.6026 165.313 79.8183 165.958V165.958ZM152.677 257.647C152.062 257.357 151.8 256.623 152.083 256.004C153.648 252.589 155.117 248.911 156.479 244.958C156.7 244.315 157.397 243.966 158.042 244.182V244.182C158.687 244.397 159.036 245.096 158.815 245.739C157.423 249.781 155.918 253.55 154.31 257.057C154.027 257.675 153.292 257.938 152.677 257.647V257.647ZM53.7746 178.474C54.159 179.036 54.015 179.801 53.4602 180.195C50.0747 182.596 47.1026 185.126 44.5156 187.758C44.0388 188.243 43.2603 188.267 42.7653 187.801V187.801C42.2702 187.334 42.2461 186.554 42.7225 186.068C45.4347 183.304 48.5419 180.661 52.0678 178.163C52.6228 177.769 53.3901 177.913 53.7746 178.474V178.474ZM136.199 281.235C135.733 280.74 135.757 279.961 136.242 279.485C138.874 276.897 141.404 273.925 143.805 270.54C144.199 269.985 144.964 269.841 145.526 270.225V270.225C146.087 270.61 146.231 271.377 145.837 271.932C143.339 275.458 140.696 278.565 137.932 281.278C137.446 281.754 136.666 281.73 136.199 281.235V281.235ZM34.3598 199.485C34.9622 199.801 35.1929 200.545 34.8928 201.155C33.1246 204.752 31.8752 208.45 31.0955 212.203C30.9572 212.869 30.3183 213.314 29.649 213.194V213.194C28.9796 213.073 28.5334 212.432 28.6708 211.766C29.495 207.771 30.8245 203.835 32.7106 200.011C33.0115 199.401 33.7574 199.169 34.3598 199.485V199.485ZM110.806 294.351C110.686 293.682 111.131 293.043 111.797 292.904C115.55 292.125 119.248 290.875 122.845 289.107C123.455 288.807 124.199 289.038 124.515 289.64V289.64C124.83 290.243 124.599 290.989 123.989 291.289C120.165 293.176 116.229 294.505 112.234 295.329C111.568 295.467 110.927 295.02 110.806 294.351V294.351ZM29.1561 227.661C29.8326 227.591 30.4366 228.082 30.5219 228.757C31.0071 232.596 31.8976 236.427 33.1471 240.201C33.3609 240.847 33.0249 241.55 32.3833 241.775V241.775C31.7416 242.001 31.0374 241.664 30.8231 241.019C29.5138 237.073 28.5783 233.053 28.0714 229.011C27.9867 228.337 28.4796 227.731 29.1561 227.661V227.661ZM82.2247 291.617C82.4504 290.975 83.1532 290.639 83.7989 290.853C87.5726 292.102 91.4035 292.993 95.2429 293.478C95.9177 293.563 96.4094 294.167 96.3391 294.844V294.844C96.2689 295.52 95.6634 296.013 94.9885 295.929C90.9467 295.422 86.927 294.486 82.9814 293.177C82.3359 292.963 81.999 292.258 82.2247 291.617V291.617ZM38.5512 254.931C39.1369 254.585 39.8912 254.781 40.2459 255.361C42.2906 258.707 44.5997 261.936 47.131 265.005C47.5638 265.53 47.501 266.306 46.9825 266.747V266.747C46.4639 267.187 45.6861 267.124 45.2531 266.599C42.6334 263.426 40.2423 260.082 38.1244 256.613C37.77 256.032 37.9654 255.277 38.5512 254.931V254.931ZM57.2534 277.017C57.6935 276.499 58.4701 276.436 58.9948 276.869C62.0638 279.4 65.2928 281.709 68.639 283.754C69.2194 284.109 69.4145 284.863 69.0688 285.449V285.449C68.7231 286.035 67.9676 286.23 67.387 285.876C63.9175 283.758 60.5742 281.367 57.4007 278.747C56.8762 278.314 56.8132 277.536 57.2534 277.017V277.017Z"/>
</mask>
<path fill-rule="evenodd" clip-rule="evenodd" d="M279.747 33.9825C279.306 34.501 278.53 34.5638 278.005 34.1311C274.936 31.5997 271.707 29.2907 268.361 27.2459C267.781 26.8912 267.585 26.137 267.931 25.5512V25.5512C268.277 24.9654 269.032 24.77 269.613 25.1244C273.082 27.2424 276.426 29.6335 279.599 32.2531C280.124 32.6861 280.187 33.464 279.747 33.9825V33.9825ZM298.449 56.0689C297.863 56.4146 297.109 56.2194 296.754 55.6391C294.709 52.2929 292.4 49.0639 289.869 45.9949C289.436 45.4702 289.499 44.6936 290.018 44.2534V44.2534C290.536 43.8132 291.314 43.8762 291.747 44.4008C294.367 47.5742 296.758 50.9176 298.876 54.3871C299.23 54.9676 299.035 55.7232 298.449 56.0689V56.0689ZM254.775 19.3833C254.55 20.0249 253.847 20.3609 253.201 20.1471C249.427 18.8976 245.596 18.0071 241.757 17.5219C241.082 17.4366 240.591 16.8326 240.661 16.1561V16.1561C240.731 15.4796 241.337 14.9867 242.011 15.0714C246.053 15.5783 250.073 16.5139 254.019 17.8232C254.664 18.0374 255.001 18.7416 254.775 19.3833V19.3833ZM307.844 83.3392C307.167 83.4094 306.563 82.9177 306.478 82.2429C305.993 78.4036 305.102 74.5727 303.853 70.7989C303.639 70.1532 303.975 69.4504 304.617 69.2247V69.2247C305.258 68.999 305.963 69.3359 306.177 69.9815C307.486 73.9271 308.422 77.9468 308.929 81.9886C309.013 82.6635 308.52 83.269 307.844 83.3392V83.3392ZM226.194 16.649C226.314 17.3183 225.869 17.9572 225.203 18.0955C221.45 18.8752 217.752 20.1246 214.155 21.8927C213.545 22.1928 212.801 21.9622 212.485 21.3598V21.3598C212.17 20.7574 212.401 20.0115 213.011 19.7106C216.835 17.8245 220.771 16.495 224.766 15.6708C225.432 15.5334 226.073 15.9796 226.194 16.649V16.649ZM302.64 111.515C302.038 111.199 301.807 110.455 302.107 109.845C303.875 106.248 305.125 102.55 305.904 98.7967C306.043 98.1307 306.682 97.6857 307.351 97.8065V97.8065C308.02 97.9273 308.467 98.5681 308.329 99.2343C307.505 103.229 306.175 107.165 304.289 110.989C303.988 111.599 303.243 111.831 302.64 111.515V111.515ZM200.801 29.7652C201.267 30.2602 201.243 31.0387 200.758 31.5155C198.126 34.1026 195.596 37.0747 193.195 40.4601C192.801 41.0149 192.036 41.159 191.474 40.7745V40.7745C190.913 40.3901 190.769 39.6227 191.163 39.0677C193.661 35.5418 196.304 32.4347 199.068 29.7225C199.554 29.2461 200.334 29.2702 200.801 29.7652V29.7652ZM283.225 132.526C282.841 131.964 282.985 131.199 283.54 130.805C286.925 128.404 289.897 125.874 292.484 123.242C292.961 122.757 293.74 122.733 294.235 123.2V123.2C294.73 123.666 294.754 124.446 294.277 124.932C291.565 127.696 288.458 130.339 284.932 132.837C284.377 133.231 283.61 133.087 283.225 132.526V132.526ZM184.323 53.353C184.938 53.6435 185.2 54.3772 184.917 54.9955C183.352 58.4106 181.883 62.0887 180.521 66.0423C180.3 66.6854 179.603 67.0339 178.958 66.8182V66.8182C178.313 66.6025 177.964 65.9043 178.185 65.2612C179.577 61.2187 181.082 57.4498 182.69 53.9434C182.973 53.3251 183.708 53.0625 184.323 53.353V53.353ZM257.182 145.042C256.966 144.397 257.315 143.7 257.958 143.479C261.911 142.117 265.589 140.648 269.004 139.083C269.623 138.8 270.357 139.062 270.647 139.677V139.677C270.938 140.292 270.675 141.027 270.057 141.31C266.55 142.918 262.781 144.423 258.739 145.815C258.096 146.036 257.397 145.687 257.182 145.042V145.042ZM145.526 40.7746C144.964 41.159 144.199 41.015 143.805 40.4602C141.404 37.0747 138.874 34.1026 136.242 31.5156C135.757 31.0388 135.733 30.2603 136.199 29.7653V29.7653C136.666 29.2702 137.446 29.2461 137.932 29.7225C140.696 32.4347 143.339 35.5419 145.837 39.0678C146.231 39.6228 146.087 40.3901 145.526 40.7746V40.7746ZM294.235 187.801C293.74 188.267 292.961 188.243 292.484 187.758C289.897 185.126 286.925 182.596 283.54 180.195C282.985 179.801 282.841 179.036 283.225 178.474V178.474C283.61 177.913 284.377 177.769 284.932 178.163C288.458 180.661 291.565 183.304 294.278 186.068C294.754 186.554 294.73 187.334 294.235 187.801V187.801ZM124.515 21.3598C124.199 21.9622 123.455 22.1929 122.845 21.8928C119.248 20.1247 115.55 18.8752 111.797 18.0955C111.131 17.9572 110.686 17.3183 110.806 16.649V16.649C110.927 15.9796 111.568 15.5334 112.234 15.6708C116.229 16.4951 120.165 17.8245 123.989 19.7107C124.599 20.0115 124.831 20.7574 124.515 21.3598V21.3598ZM307.351 213.194C306.682 213.314 306.043 212.869 305.904 212.203C305.125 208.45 303.875 204.752 302.107 201.155C301.807 200.545 302.038 199.801 302.64 199.485V199.485C303.243 199.17 303.989 199.401 304.289 200.011C306.176 203.835 307.505 207.771 308.329 211.766C308.467 212.432 308.02 213.073 307.351 213.194V213.194ZM270.647 171.323C270.357 171.938 269.623 172.2 269.004 171.917C265.589 170.352 261.911 168.883 257.958 167.521C257.315 167.3 256.966 166.603 257.182 165.958V165.958C257.397 165.313 258.096 164.964 258.739 165.185C262.781 166.577 266.55 168.082 270.057 169.69C270.675 169.973 270.938 170.708 270.647 171.323V171.323ZM158.042 66.8183C157.397 67.034 156.7 66.6855 156.479 66.0424C155.117 62.0888 153.648 58.4106 152.083 54.9955C151.8 54.3772 152.062 53.6435 152.677 53.353V53.353C153.292 53.0625 154.027 53.3251 154.31 53.9434C155.918 57.4498 157.423 61.2187 158.815 65.2612C159.036 65.9044 158.687 66.6026 158.042 66.8183V66.8183ZM174.989 80.8679C175.651 81.0242 176.061 81.6874 175.909 82.3504C175.047 86.1117 174.266 90.0613 173.572 94.2054C173.459 94.8762 172.827 95.3325 172.156 95.2237V95.2237C171.484 95.115 171.028 94.4822 171.14 93.8114C171.844 89.6115 172.636 85.6044 173.511 81.7844C173.663 81.1214 174.327 80.7117 174.989 80.8679V80.8679ZM228.776 151.844C228.667 151.173 229.124 150.541 229.795 150.428C233.939 149.734 237.888 148.953 241.65 148.091C242.313 147.939 242.976 148.349 243.132 149.011V149.011C243.288 149.673 242.879 150.337 242.216 150.489C238.396 151.364 234.389 152.156 230.189 152.86C229.518 152.972 228.885 152.516 228.776 151.844V151.844ZM243.132 161.989C242.976 162.651 242.313 163.061 241.65 162.909C237.888 162.047 233.939 161.266 229.795 160.572C229.124 160.459 228.667 159.827 228.776 159.156V159.156C228.885 158.484 229.518 158.028 230.189 158.14C234.389 158.844 238.396 159.636 242.216 160.511C242.879 160.663 243.288 161.327 243.132 161.989V161.989ZM164.844 95.2237C164.173 95.3325 163.541 94.8762 163.428 94.2054C162.734 90.0613 161.953 86.1118 161.091 82.3504C160.939 81.6874 161.349 81.0242 162.011 80.868V80.868C162.673 80.7117 163.337 81.1214 163.489 81.7844C164.364 85.6044 165.156 89.6115 165.86 93.8114C165.972 94.4822 165.516 95.115 164.844 95.2237V95.2237ZM96.3392 16.1561C96.4094 16.8326 95.9177 17.4366 95.2429 17.5219C91.4036 18.0071 87.5726 18.8976 83.7989 20.1471C83.1532 20.3609 82.4504 20.0249 82.2247 19.3833V19.3833C81.999 18.7416 82.3359 18.0374 82.9815 17.8232C86.9271 16.5138 90.9468 15.5783 94.9886 15.0714C95.6634 14.9867 96.269 15.4796 96.3392 16.1561V16.1561ZM304.617 241.775C303.975 241.55 303.639 240.847 303.853 240.201C305.102 236.427 305.993 232.596 306.478 228.757C306.563 228.082 307.167 227.591 307.844 227.661V227.661C308.52 227.731 309.013 228.337 308.929 229.011C308.422 233.053 307.486 237.073 306.177 241.019C305.963 241.664 305.258 242.001 304.617 241.775V241.775ZM200.064 155.5C200.006 154.486 200.78 153.618 201.793 153.554C205.759 153.304 209.593 152.991 213.299 152.618C213.975 152.55 214.581 153.04 214.652 153.716L214.733 154.481C214.76 154.735 214.582 154.962 214.328 154.989V154.989C213.764 155.047 213.764 155.953 214.328 156.011V156.011C214.582 156.038 214.76 156.265 214.733 156.519L214.652 157.284C214.581 157.96 213.975 158.45 213.299 158.382C209.594 158.009 205.76 157.696 201.794 157.446C200.781 157.382 200.006 156.514 200.064 155.5V155.5V155.5ZM170.284 109.348C170.96 109.419 171.45 110.025 171.382 110.701C171.009 114.406 170.696 118.24 170.446 122.206C170.382 123.219 169.514 123.994 168.5 123.936V123.936V123.936C167.486 123.994 166.618 123.22 166.554 122.207C166.304 118.241 165.991 114.407 165.618 110.701C165.55 110.025 166.04 109.419 166.716 109.348L167.481 109.267C167.735 109.24 167.962 109.418 167.989 109.672V109.672C168.047 110.236 168.953 110.236 169.011 109.672V109.672C169.038 109.418 169.265 109.24 169.519 109.267L170.284 109.348ZM69.0689 25.5512C69.4146 26.1369 69.2194 26.8912 68.6391 27.2459C65.2929 29.2906 62.0639 31.5997 58.9949 34.131C58.4702 34.5638 57.6936 34.501 57.2534 33.9825V33.9825C56.8132 33.4639 56.8762 32.6861 57.4008 32.2531C60.5742 29.6334 63.9176 27.2423 67.3871 25.1244C67.9676 24.77 68.7232 24.9654 69.0689 25.5512V25.5512ZM290.017 266.747C289.499 266.306 289.436 265.53 289.869 265.005C292.4 261.936 294.709 258.707 296.754 255.361C297.109 254.781 297.863 254.585 298.449 254.931V254.931C299.035 255.277 299.23 256.032 298.876 256.613C296.758 260.083 294.367 263.426 291.747 266.599C291.314 267.124 290.536 267.187 290.017 266.747V266.747ZM178.016 155.5C178.016 154.82 178.567 154.269 179.247 154.267C181.373 154.261 183.466 154.239 185.529 154.201C185.568 154.201 185.599 154.231 185.6 154.27L185.601 154.316C185.601 154.327 185.61 154.337 185.622 154.337V154.337C185.634 154.337 185.643 154.347 185.643 154.359L185.622 155.499L185.643 156.641C185.643 156.653 185.634 156.663 185.622 156.663V156.663C185.61 156.663 185.601 156.673 185.601 156.684L185.6 156.73C185.599 156.769 185.567 156.799 185.529 156.799C183.466 156.761 181.372 156.739 179.247 156.733C178.567 156.731 178.016 156.18 178.016 155.5V155.5ZM169.73 138.4C169.769 138.401 169.799 138.433 169.799 138.471C169.761 140.534 169.739 142.628 169.733 144.753C169.731 145.433 169.18 145.984 168.5 145.984V145.984C167.82 145.984 167.269 145.433 167.267 144.753C167.261 142.627 167.239 140.534 167.201 138.471C167.201 138.432 167.231 138.401 167.27 138.4L167.316 138.399C167.327 138.399 167.337 138.39 167.337 138.378V138.378C167.337 138.366 167.347 138.357 167.359 138.357L168.499 138.378L169.641 138.357C169.653 138.357 169.663 138.366 169.663 138.378V138.378C169.663 138.39 169.673 138.399 169.684 138.399L169.73 138.4ZM151.4 154.27C151.401 154.231 151.433 154.201 151.471 154.201C153.534 154.239 155.627 154.261 157.753 154.267C158.433 154.269 158.984 154.82 158.984 155.5V155.5C158.984 156.18 158.433 156.731 157.753 156.733C155.627 156.739 153.534 156.761 151.471 156.799C151.432 156.799 151.401 156.769 151.4 156.731L151.399 156.684C151.399 156.673 151.39 156.663 151.378 156.663V156.663C151.366 156.663 151.357 156.653 151.357 156.641L151.378 155.502L151.357 154.359C151.357 154.347 151.366 154.337 151.378 154.337V154.337C151.39 154.337 151.399 154.327 151.399 154.316L151.4 154.27ZM168.5 165.016C169.18 165.016 169.731 165.567 169.733 166.247C169.739 168.373 169.761 170.466 169.799 172.529C169.799 172.568 169.769 172.599 169.73 172.6L169.684 172.601C169.673 172.601 169.663 172.61 169.663 172.622V172.622C169.663 172.634 169.653 172.643 169.641 172.643L168.501 172.622L167.359 172.643C167.347 172.643 167.337 172.634 167.337 172.622V172.622C167.337 172.61 167.327 172.601 167.316 172.601L167.27 172.6C167.231 172.599 167.201 172.567 167.201 172.529C167.239 170.466 167.261 168.373 167.267 166.247C167.269 165.567 167.82 165.016 168.5 165.016V165.016ZM46.9825 44.2534C47.501 44.6935 47.5638 45.4701 47.1311 45.9948C44.5997 49.0638 42.2907 52.2928 40.2459 55.639C39.8912 56.2194 39.137 56.4145 38.5512 56.0688V56.0688C37.9654 55.7231 37.77 54.9676 38.1244 54.387C40.2424 50.9175 42.6335 47.5742 45.2531 44.4007C45.6861 43.8762 46.464 43.8132 46.9825 44.2534V44.2534ZM267.931 285.449C267.585 284.863 267.781 284.109 268.361 283.754C271.707 281.709 274.936 279.4 278.005 276.869C278.53 276.436 279.306 276.499 279.747 277.018V277.018C280.187 277.536 280.124 278.314 279.599 278.747C276.426 281.367 273.082 283.758 269.613 285.876C269.032 286.23 268.277 286.035 267.931 285.449V285.449ZM122.348 153.716C122.419 153.04 123.025 152.55 123.701 152.618C127.406 152.991 131.24 153.304 135.206 153.554C136.219 153.618 136.994 154.486 136.936 155.5V155.5V155.5C136.994 156.514 136.22 157.382 135.207 157.446C131.241 157.696 127.407 158.009 123.701 158.382C123.025 158.45 122.419 157.96 122.348 157.284L122.267 156.519C122.24 156.265 122.418 156.038 122.672 156.011V156.011C123.236 155.953 123.236 155.047 122.672 154.989V154.989C122.418 154.962 122.24 154.735 122.267 154.481L122.348 153.716ZM168.5 187.064C169.514 187.006 170.382 187.78 170.446 188.794C170.696 192.759 171.009 196.593 171.382 200.299C171.45 200.975 170.96 201.581 170.284 201.652L169.519 201.733C169.265 201.76 169.038 201.582 169.011 201.328V201.328C168.953 200.764 168.047 200.764 167.989 201.328V201.328C167.962 201.582 167.735 201.76 167.481 201.733L166.716 201.652C166.04 201.581 165.55 200.975 165.618 200.299C165.991 196.594 166.304 192.76 166.554 188.794C166.618 187.781 167.486 187.006 168.5 187.064V187.064V187.064ZM32.3833 69.2247C33.0249 69.4504 33.3609 70.1532 33.1471 70.7988C31.8976 74.5726 31.0071 78.4036 30.5219 82.2429C30.4366 82.9177 29.8326 83.4094 29.1561 83.3392V83.3392C28.4796 83.2689 27.9867 82.6634 28.0714 81.9885C28.5783 77.9467 29.5138 73.927 30.8232 69.9814C31.0374 69.3359 31.7416 68.999 32.3833 69.2247V69.2247ZM240.661 294.844C240.591 294.167 241.082 293.563 241.757 293.478C245.596 292.993 249.427 292.102 253.201 290.853C253.847 290.639 254.55 290.975 254.775 291.617V291.617C255.001 292.258 254.664 292.963 254.019 293.177C250.073 294.486 246.053 295.422 242.011 295.929C241.337 296.013 240.731 295.52 240.661 294.844V294.844ZM93.8679 149.011C94.0242 148.349 94.6873 147.939 95.3503 148.091C99.1117 148.953 103.061 149.734 107.205 150.428C107.876 150.541 108.333 151.173 108.224 151.844V151.844C108.115 152.516 107.482 152.972 106.811 152.86C102.611 152.156 98.6044 151.364 94.7844 150.489C94.1214 150.337 93.7117 149.673 93.8679 149.011V149.011ZM172.156 215.776C172.827 215.667 173.459 216.124 173.572 216.795C174.266 220.939 175.047 224.888 175.909 228.65C176.061 229.313 175.651 229.976 174.989 230.132V230.132C174.327 230.288 173.663 229.879 173.511 229.216C172.636 225.396 171.844 221.389 171.14 217.189C171.028 216.518 171.484 215.885 172.156 215.776V215.776ZM162.011 230.132C161.349 229.976 160.939 229.313 161.091 228.65C161.953 224.888 162.734 220.939 163.428 216.795C163.541 216.124 164.173 215.667 164.844 215.776V215.776C165.516 215.885 165.972 216.518 165.86 217.189C165.156 221.389 164.364 225.396 163.489 229.216C163.337 229.879 162.673 230.288 162.011 230.132V230.132ZM108.224 159.156C108.333 159.827 107.876 160.459 107.205 160.572C103.061 161.266 99.1118 162.047 95.3504 162.909C94.6874 163.061 94.0242 162.651 93.868 161.989V161.989C93.7117 161.327 94.1214 160.663 94.7844 160.511C98.6044 159.636 102.611 158.844 106.811 158.14C107.482 158.028 108.115 158.484 108.224 159.156V159.156ZM178.958 244.182C179.603 243.966 180.3 244.315 180.521 244.958C181.883 248.911 183.352 252.589 184.917 256.004C185.2 256.623 184.938 257.357 184.323 257.647V257.647C183.708 257.938 182.973 257.675 182.69 257.057C181.082 253.55 179.577 249.781 178.185 245.739C177.964 245.096 178.313 244.397 178.958 244.182V244.182ZM66.353 139.677C66.6435 139.062 67.3772 138.8 67.9955 139.083C71.4106 140.648 75.0887 142.117 79.0423 143.479C79.6854 143.7 80.0339 144.397 79.8182 145.042V145.042C79.6025 145.687 78.9043 146.036 78.2612 145.815C74.2187 144.423 70.4498 142.918 66.9434 141.31C66.3251 141.027 66.0624 140.292 66.353 139.677V139.677ZM29.649 97.8064C30.3183 97.6856 30.9572 98.1307 31.0955 98.7966C31.8752 102.55 33.1246 106.248 34.8927 109.845C35.1928 110.455 34.9621 111.199 34.3598 111.515V111.515C33.7574 111.83 33.0115 111.599 32.7106 110.989C30.8245 107.165 29.495 103.229 28.6708 99.2342C28.5333 98.5681 28.9796 97.9272 29.649 97.8064V97.8064ZM212.485 289.64C212.801 289.038 213.545 288.807 214.155 289.107C217.752 290.875 221.45 292.125 225.203 292.904C225.869 293.043 226.314 293.682 226.194 294.351V294.351C226.073 295.02 225.432 295.467 224.766 295.329C220.771 294.505 216.835 293.175 213.011 291.289C212.401 290.988 212.169 290.243 212.485 289.64V289.64ZM42.7652 123.199C43.2602 122.733 44.0387 122.757 44.5155 123.242C47.1026 125.874 50.0747 128.404 53.4601 130.805C54.0149 131.199 54.159 131.964 53.7745 132.526V132.526C53.3901 133.087 52.6227 133.231 52.0677 132.837C48.5418 130.339 45.4347 127.696 42.7225 124.932C42.2461 124.446 42.2702 123.666 42.7652 123.199V123.199ZM191.474 270.225C192.036 269.841 192.801 269.985 193.195 270.54C195.596 273.925 198.126 276.897 200.758 279.484C201.243 279.961 201.267 280.74 200.801 281.235V281.235C200.334 281.73 199.554 281.754 199.068 281.278C196.304 278.565 193.661 275.458 191.163 271.932C190.769 271.377 190.913 270.61 191.474 270.225V270.225ZM79.8183 165.958C80.034 166.603 79.6855 167.3 79.0424 167.521C75.0887 168.883 71.4106 170.352 67.9955 171.917C67.3772 172.2 66.6435 171.938 66.353 171.323V171.323C66.0625 170.708 66.3251 169.973 66.9434 169.69C70.4498 168.082 74.2187 166.577 78.2612 165.185C78.9044 164.964 79.6026 165.313 79.8183 165.958V165.958ZM152.677 257.647C152.062 257.357 151.8 256.623 152.083 256.004C153.648 252.589 155.117 248.911 156.479 244.958C156.7 244.315 157.397 243.966 158.042 244.182V244.182C158.687 244.397 159.036 245.096 158.815 245.739C157.423 249.781 155.918 253.55 154.31 257.057C154.027 257.675 153.292 257.938 152.677 257.647V257.647ZM53.7746 178.474C54.159 179.036 54.015 179.801 53.4602 180.195C50.0747 182.596 47.1026 185.126 44.5156 187.758C44.0388 188.243 43.2603 188.267 42.7653 187.801V187.801C42.2702 187.334 42.2461 186.554 42.7225 186.068C45.4347 183.304 48.5419 180.661 52.0678 178.163C52.6228 177.769 53.3901 177.913 53.7746 178.474V178.474ZM136.199 281.235C135.733 280.74 135.757 279.961 136.242 279.485C138.874 276.897 141.404 273.925 143.805 270.54C144.199 269.985 144.964 269.841 145.526 270.225V270.225C146.087 270.61 146.231 271.377 145.837 271.932C143.339 275.458 140.696 278.565 137.932 281.278C137.446 281.754 136.666 281.73 136.199 281.235V281.235ZM34.3598 199.485C34.9622 199.801 35.1929 200.545 34.8928 201.155C33.1246 204.752 31.8752 208.45 31.0955 212.203C30.9572 212.869 30.3183 213.314 29.649 213.194V213.194C28.9796 213.073 28.5334 212.432 28.6708 211.766C29.495 207.771 30.8245 203.835 32.7106 200.011C33.0115 199.401 33.7574 199.169 34.3598 199.485V199.485ZM110.806 294.351C110.686 293.682 111.131 293.043 111.797 292.904C115.55 292.125 119.248 290.875 122.845 289.107C123.455 288.807 124.199 289.038 124.515 289.64V289.64C124.83 290.243 124.599 290.989 123.989 291.289C120.165 293.176 116.229 294.505 112.234 295.329C111.568 295.467 110.927 295.02 110.806 294.351V294.351ZM29.1561 227.661C29.8326 227.591 30.4366 228.082 30.5219 228.757C31.0071 232.596 31.8976 236.427 33.1471 240.201C33.3609 240.847 33.0249 241.55 32.3833 241.775V241.775C31.7416 242.001 31.0374 241.664 30.8231 241.019C29.5138 237.073 28.5783 233.053 28.0714 229.011C27.9867 228.337 28.4796 227.731 29.1561 227.661V227.661ZM82.2247 291.617C82.4504 290.975 83.1532 290.639 83.7989 290.853C87.5726 292.102 91.4035 292.993 95.2429 293.478C95.9177 293.563 96.4094 294.167 96.3391 294.844V294.844C96.2689 295.52 95.6634 296.013 94.9885 295.929C90.9467 295.422 86.927 294.486 82.9814 293.177C82.3359 292.963 81.999 292.258 82.2247 291.617V291.617ZM38.5512 254.931C39.1369 254.585 39.8912 254.781 40.2459 255.361C42.2906 258.707 44.5997 261.936 47.131 265.005C47.5638 265.53 47.501 266.306 46.9825 266.747V266.747C46.4639 267.187 45.6861 267.124 45.2531 266.599C42.6334 263.426 40.2423 260.082 38.1244 256.613C37.77 256.032 37.9654 255.277 38.5512 254.931V254.931ZM57.2534 277.017C57.6935 276.499 58.4701 276.436 58.9948 276.869C62.0638 279.4 65.2928 281.709 68.639 283.754C69.2194 284.109 69.4145 284.863 69.0688 285.449V285.449C68.7231 286.035 67.9676 286.23 67.387 285.876C63.9175 283.758 60.5742 281.367 57.4007 278.747C56.8762 278.314 56.8132 277.536 57.2534 277.017V277.017Z" fill="#FFC700"/>
<path fill-rule="evenodd" clip-rule="evenodd" d="M279.747 33.9825C279.306 34.501 278.53 34.5638 278.005 34.1311C274.936 31.5997 271.707 29.2907 268.361 27.2459C267.781 26.8912 267.585 26.137 267.931 25.5512V25.5512C268.277 24.9654 269.032 24.77 269.613 25.1244C273.082 27.2424 276.426 29.6335 279.599 32.2531C280.124 32.6861 280.187 33.464 279.747 33.9825V33.9825ZM298.449 56.0689C297.863 56.4146 297.109 56.2194 296.754 55.6391C294.709 52.2929 292.4 49.0639 289.869 45.9949C289.436 45.4702 289.499 44.6936 290.018 44.2534V44.2534C290.536 43.8132 291.314 43.8762 291.747 44.4008C294.367 47.5742 296.758 50.9176 298.876 54.3871C299.23 54.9676 299.035 55.7232 298.449 56.0689V56.0689ZM254.775 19.3833C254.55 20.0249 253.847 20.3609 253.201 20.1471C249.427 18.8976 245.596 18.0071 241.757 17.5219C241.082 17.4366 240.591 16.8326 240.661 16.1561V16.1561C240.731 15.4796 241.337 14.9867 242.011 15.0714C246.053 15.5783 250.073 16.5139 254.019 17.8232C254.664 18.0374 255.001 18.7416 254.775 19.3833V19.3833ZM307.844 83.3392C307.167 83.4094 306.563 82.9177 306.478 82.2429C305.993 78.4036 305.102 74.5727 303.853 70.7989C303.639 70.1532 303.975 69.4504 304.617 69.2247V69.2247C305.258 68.999 305.963 69.3359 306.177 69.9815C307.486 73.9271 308.422 77.9468 308.929 81.9886C309.013 82.6635 308.52 83.269 307.844 83.3392V83.3392ZM226.194 16.649C226.314 17.3183 225.869 17.9572 225.203 18.0955C221.45 18.8752 217.752 20.1246 214.155 21.8927C213.545 22.1928 212.801 21.9622 212.485 21.3598V21.3598C212.17 20.7574 212.401 20.0115 213.011 19.7106C216.835 17.8245 220.771 16.495 224.766 15.6708C225.432 15.5334 226.073 15.9796 226.194 16.649V16.649ZM302.64 111.515C302.038 111.199 301.807 110.455 302.107 109.845C303.875 106.248 305.125 102.55 305.904 98.7967C306.043 98.1307 306.682 97.6857 307.351 97.8065V97.8065C308.02 97.9273 308.467 98.5681 308.329 99.2343C307.505 103.229 306.175 107.165 304.289 110.989C303.988 111.599 303.243 111.831 302.64 111.515V111.515ZM200.801 29.7652C201.267 30.2602 201.243 31.0387 200.758 31.5155C198.126 34.1026 195.596 37.0747 193.195 40.4601C192.801 41.0149 192.036 41.159 191.474 40.7745V40.7745C190.913 40.3901 190.769 39.6227 191.163 39.0677C193.661 35.5418 196.304 32.4347 199.068 29.7225C199.554 29.2461 200.334 29.2702 200.801 29.7652V29.7652ZM283.225 132.526C282.841 131.964 282.985 131.199 283.54 130.805C286.925 128.404 289.897 125.874 292.484 123.242C292.961 122.757 293.74 122.733 294.235 123.2V123.2C294.73 123.666 294.754 124.446 294.277 124.932C291.565 127.696 288.458 130.339 284.932 132.837C284.377 133.231 283.61 133.087 283.225 132.526V132.526ZM184.323 53.353C184.938 53.6435 185.2 54.3772 184.917 54.9955C183.352 58.4106 181.883 62.0887 180.521 66.0423C180.3 66.6854 179.603 67.0339 178.958 66.8182V66.8182C178.313 66.6025 177.964 65.9043 178.185 65.2612C179.577 61.2187 181.082 57.4498 182.69 53.9434C182.973 53.3251 183.708 53.0625 184.323 53.353V53.353ZM257.182 145.042C256.966 144.397 257.315 143.7 257.958 143.479C261.911 142.117 265.589 140.648 269.004 139.083C269.623 138.8 270.357 139.062 270.647 139.677V139.677C270.938 140.292 270.675 141.027 270.057 141.31C266.55 142.918 262.781 144.423 258.739 145.815C258.096 146.036 257.397 145.687 257.182 145.042V145.042ZM145.526 40.7746C144.964 41.159 144.199 41.015 143.805 40.4602C141.404 37.0747 138.874 34.1026 136.242 31.5156C135.757 31.0388 135.733 30.2603 136.199 29.7653V29.7653C136.666 29.2702 137.446 29.2461 137.932 29.7225C140.696 32.4347 143.339 35.5419 145.837 39.0678C146.231 39.6228 146.087 40.3901 145.526 40.7746V40.7746ZM294.235 187.801C293.74 188.267 292.961 188.243 292.484 187.758C289.897 185.126 286.925 182.596 283.54 180.195C282.985 179.801 282.841 179.036 283.225 178.474V178.474C283.61 177.913 284.377 177.769 284.932 178.163C288.458 180.661 291.565 183.304 294.278 186.068C294.754 186.554 294.73 187.334 294.235 187.801V187.801ZM124.515 21.3598C124.199 21.9622 123.455 22.1929 122.845 21.8928C119.248 20.1247 115.55 18.8752 111.797 18.0955C111.131 17.9572 110.686 17.3183 110.806 16.649V16.649C110.927 15.9796 111.568 15.5334 112.234 15.6708C116.229 16.4951 120.165 17.8245 123.989 19.7107C124.599 20.0115 124.831 20.7574 124.515 21.3598V21.3598ZM307.351 213.194C306.682 213.314 306.043 212.869 305.904 212.203C305.125 208.45 303.875 204.752 302.107 201.155C301.807 200.545 302.038 199.801 302.64 199.485V199.485C303.243 199.17 303.989 199.401 304.289 200.011C306.176 203.835 307.505 207.771 308.329 211.766C308.467 212.432 308.02 213.073 307.351 213.194V213.194ZM270.647 171.323C270.357 171.938 269.623 172.2 269.004 171.917C265.589 170.352 261.911 168.883 257.958 167.521C257.315 167.3 256.966 166.603 257.182 165.958V165.958C257.397 165.313 258.096 164.964 258.739 165.185C262.781 166.577 266.55 168.082 270.057 169.69C270.675 169.973 270.938 170.708 270.647 171.323V171.323ZM158.042 66.8183C157.397 67.034 156.7 66.6855 156.479 66.0424C155.117 62.0888 153.648 58.4106 152.083 54.9955C151.8 54.3772 152.062 53.6435 152.677 53.353V53.353C153.292 53.0625 154.027 53.3251 154.31 53.9434C155.918 57.4498 157.423 61.2187 158.815 65.2612C159.036 65.9044 158.687 66.6026 158.042 66.8183V66.8183ZM174.989 80.8679C175.651 81.0242 176.061 81.6874 175.909 82.3504C175.047 86.1117 174.266 90.0613 173.572 94.2054C173.459 94.8762 172.827 95.3325 172.156 95.2237V95.2237C171.484 95.115 171.028 94.4822 171.14 93.8114C171.844 89.6115 172.636 85.6044 173.511 81.7844C173.663 81.1214 174.327 80.7117 174.989 80.8679V80.8679ZM228.776 151.844C228.667 151.173 229.124 150.541 229.795 150.428C233.939 149.734 237.888 148.953 241.65 148.091C242.313 147.939 242.976 148.349 243.132 149.011V149.011C243.288 149.673 242.879 150.337 242.216 150.489C238.396 151.364 234.389 152.156 230.189 152.86C229.518 152.972 228.885 152.516 228.776 151.844V151.844ZM243.132 161.989C242.976 162.651 242.313 163.061 241.65 162.909C237.888 162.047 233.939 161.266 229.795 160.572C229.124 160.459 228.667 159.827 228.776 159.156V159.156C228.885 158.484 229.518 158.028 230.189 158.14C234.389 158.844 238.396 159.636 242.216 160.511C242.879 160.663 243.288 161.327 243.132 161.989V161.989ZM164.844 95.2237C164.173 95.3325 163.541 94.8762 163.428 94.2054C162.734 90.0613 161.953 86.1118 161.091 82.3504C160.939 81.6874 161.349 81.0242 162.011 80.868V80.868C162.673 80.7117 163.337 81.1214 163.489 81.7844C164.364 85.6044 165.156 89.6115 165.86 93.8114C165.972 94.4822 165.516 95.115 164.844 95.2237V95.2237ZM96.3392 16.1561C96.4094 16.8326 95.9177 17.4366 95.2429 17.5219C91.4036 18.0071 87.5726 18.8976 83.7989 20.1471C83.1532 20.3609 82.4504 20.0249 82.2247 19.3833V19.3833C81.999 18.7416 82.3359 18.0374 82.9815 17.8232C86.9271 16.5138 90.9468 15.5783 94.9886 15.0714C95.6634 14.9867 96.269 15.4796 96.3392 16.1561V16.1561ZM304.617 241.775C303.975 241.55 303.639 240.847 303.853 240.201C305.102 236.427 305.993 232.596 306.478 228.757C306.563 228.082 307.167 227.591 307.844 227.661V227.661C308.52 227.731 309.013 228.337 308.929 229.011C308.422 233.053 307.486 237.073 306.177 241.019C305.963 241.664 305.258 242.001 304.617 241.775V241.775ZM200.064 155.5C200.006 154.486 200.78 153.618 201.793 153.554C205.759 153.304 209.593 152.991 213.299 152.618C213.975 152.55 214.581 153.04 214.652 153.716L214.733 154.481C214.76 154.735 214.582 154.962 214.328 154.989V154.989C213.764 155.047 213.764 155.953 214.328 156.011V156.011C214.582 156.038 214.76 156.265 214.733 156.519L214.652 157.284C214.581 157.96 213.975 158.45 213.299 158.382C209.594 158.009 205.76 157.696 201.794 157.446C200.781 157.382 200.006 156.514 200.064 155.5V155.5V155.5ZM170.284 109.348C170.96 109.419 171.45 110.025 171.382 110.701C171.009 114.406 170.696 118.24 170.446 122.206C170.382 123.219 169.514 123.994 168.5 123.936V123.936V123.936C167.486 123.994 166.618 123.22 166.554 122.207C166.304 118.241 165.991 114.407 165.618 110.701C165.55 110.025 166.04 109.419 166.716 109.348L167.481 109.267C167.735 109.24 167.962 109.418 167.989 109.672V109.672C168.047 110.236 168.953 110.236 169.011 109.672V109.672C169.038 109.418 169.265 109.24 169.519 109.267L170.284 109.348ZM69.0689 25.5512C69.4146 26.1369 69.2194 26.8912 68.6391 27.2459C65.2929 29.2906 62.0639 31.5997 58.9949 34.131C58.4702 34.5638 57.6936 34.501 57.2534 33.9825V33.9825C56.8132 33.4639 56.8762 32.6861 57.4008 32.2531C60.5742 29.6334 63.9176 27.2423 67.3871 25.1244C67.9676 24.77 68.7232 24.9654 69.0689 25.5512V25.5512ZM290.017 266.747C289.499 266.306 289.436 265.53 289.869 265.005C292.4 261.936 294.709 258.707 296.754 255.361C297.109 254.781 297.863 254.585 298.449 254.931V254.931C299.035 255.277 299.23 256.032 298.876 256.613C296.758 260.083 294.367 263.426 291.747 266.599C291.314 267.124 290.536 267.187 290.017 266.747V266.747ZM178.016 155.5C178.016 154.82 178.567 154.269 179.247 154.267C181.373 154.261 183.466 154.239 185.529 154.201C185.568 154.201 185.599 154.231 185.6 154.27L185.601 154.316C185.601 154.327 185.61 154.337 185.622 154.337V154.337C185.634 154.337 185.643 154.347 185.643 154.359L185.622 155.499L185.643 156.641C185.643 156.653 185.634 156.663 185.622 156.663V156.663C185.61 156.663 185.601 156.673 185.601 156.684L185.6 156.73C185.599 156.769 185.567 156.799 185.529 156.799C183.466 156.761 181.372 156.739 179.247 156.733C178.567 156.731 178.016 156.18 178.016 155.5V155.5ZM169.73 138.4C169.769 138.401 169.799 138.433 169.799 138.471C169.761 140.534 169.739 142.628 169.733 144.753C169.731 145.433 169.18 145.984 168.5 145.984V145.984C167.82 145.984 167.269 145.433 167.267 144.753C167.261 142.627 167.239 140.534 167.201 138.471C167.201 138.432 167.231 138.401 167.27 138.4L167.316 138.399C167.327 138.399 167.337 138.39 167.337 138.378V138.378C167.337 138.366 167.347 138.357 167.359 138.357L168.499 138.378L169.641 138.357C169.653 138.357 169.663 138.366 169.663 138.378V138.378C169.663 138.39 169.673 138.399 169.684 138.399L169.73 138.4ZM151.4 154.27C151.401 154.231 151.433 154.201 151.471 154.201C153.534 154.239 155.627 154.261 157.753 154.267C158.433 154.269 158.984 154.82 158.984 155.5V155.5C158.984 156.18 158.433 156.731 157.753 156.733C155.627 156.739 153.534 156.761 151.471 156.799C151.432 156.799 151.401 156.769 151.4 156.731L151.399 156.684C151.399 156.673 151.39 156.663 151.378 156.663V156.663C151.366 156.663 151.357 156.653 151.357 156.641L151.378 155.502L151.357 154.359C151.357 154.347 151.366 154.337 151.378 154.337V154.337C151.39 154.337 151.399 154.327 151.399 154.316L151.4 154.27ZM168.5 165.016C169.18 165.016 169.731 165.567 169.733 166.247C169.739 168.373 169.761 170.466 169.799 172.529C169.799 172.568 169.769 172.599 169.73 172.6L169.684 172.601C169.673 172.601 169.663 172.61 169.663 172.622V172.622C169.663 172.634 169.653 172.643 169.641 172.643L168.501 172.622L167.359 172.643C167.347 172.643 167.337 172.634 167.337 172.622V172.622C167.337 172.61 167.327 172.601 167.316 172.601L167.27 172.6C167.231 172.599 167.201 172.567 167.201 172.529C167.239 170.466 167.261 168.373 167.267 166.247C167.269 165.567 167.82 165.016 168.5 165.016V165.016ZM46.9825 44.2534C47.501 44.6935 47.5638 45.4701 47.1311 45.9948C44.5997 49.0638 42.2907 52.2928 40.2459 55.639C39.8912 56.2194 39.137 56.4145 38.5512 56.0688V56.0688C37.9654 55.7231 37.77 54.9676 38.1244 54.387C40.2424 50.9175 42.6335 47.5742 45.2531 44.4007C45.6861 43.8762 46.464 43.8132 46.9825 44.2534V44.2534ZM267.931 285.449C267.585 284.863 267.781 284.109 268.361 283.754C271.707 281.709 274.936 279.4 278.005 276.869C278.53 276.436 279.306 276.499 279.747 277.018V277.018C280.187 277.536 280.124 278.314 279.599 278.747C276.426 281.367 273.082 283.758 269.613 285.876C269.032 286.23 268.277 286.035 267.931 285.449V285.449ZM122.348 153.716C122.419 153.04 123.025 152.55 123.701 152.618C127.406 152.991 131.24 153.304 135.206 153.554C136.219 153.618 136.994 154.486 136.936 155.5V155.5V155.5C136.994 156.514 136.22 157.382 135.207 157.446C131.241 157.696 127.407 158.009 123.701 158.382C123.025 158.45 122.419 157.96 122.348 157.284L122.267 156.519C122.24 156.265 122.418 156.038 122.672 156.011V156.011C123.236 155.953 123.236 155.047 122.672 154.989V154.989C122.418 154.962 122.24 154.735 122.267 154.481L122.348 153.716ZM168.5 187.064C169.514 187.006 170.382 187.78 170.446 188.794C170.696 192.759 171.009 196.593 171.382 200.299C171.45 200.975 170.96 201.581 170.284 201.652L169.519 201.733C169.265 201.76 169.038 201.582 169.011 201.328V201.328C168.953 200.764 168.047 200.764 167.989 201.328V201.328C167.962 201.582 167.735 201.76 167.481 201.733L166.716 201.652C166.04 201.581 165.55 200.975 165.618 200.299C165.991 196.594 166.304 192.76 166.554 188.794C166.618 187.781 167.486 187.006 168.5 187.064V187.064V187.064ZM32.3833 69.2247C33.0249 69.4504 33.3609 70.1532 33.1471 70.7988C31.8976 74.5726 31.0071 78.4036 30.5219 82.2429C30.4366 82.9177 29.8326 83.4094 29.1561 83.3392V83.3392C28.4796 83.2689 27.9867 82.6634 28.0714 81.9885C28.5783 77.9467 29.5138 73.927 30.8232 69.9814C31.0374 69.3359 31.7416 68.999 32.3833 69.2247V69.2247ZM240.661 294.844C240.591 294.167 241.082 293.563 241.757 293.478C245.596 292.993 249.427 292.102 253.201 290.853C253.847 290.639 254.55 290.975 254.775 291.617V291.617C255.001 292.258 254.664 292.963 254.019 293.177C250.073 294.486 246.053 295.422 242.011 295.929C241.337 296.013 240.731 295.52 240.661 294.844V294.844ZM93.8679 149.011C94.0242 148.349 94.6873 147.939 95.3503 148.091C99.1117 148.953 103.061 149.734 107.205 150.428C107.876 150.541 108.333 151.173 108.224 151.844V151.844C108.115 152.516 107.482 152.972 106.811 152.86C102.611 152.156 98.6044 151.364 94.7844 150.489C94.1214 150.337 93.7117 149.673 93.8679 149.011V149.011ZM172.156 215.776C172.827 215.667 173.459 216.124 173.572 216.795C174.266 220.939 175.047 224.888 175.909 228.65C176.061 229.313 175.651 229.976 174.989 230.132V230.132C174.327 230.288 173.663 229.879 173.511 229.216C172.636 225.396 171.844 221.389 171.14 217.189C171.028 216.518 171.484 215.885 172.156 215.776V215.776ZM162.011 230.132C161.349 229.976 160.939 229.313 161.091 228.65C161.953 224.888 162.734 220.939 163.428 216.795C163.541 216.124 164.173 215.667 164.844 215.776V215.776C165.516 215.885 165.972 216.518 165.86 217.189C165.156 221.389 164.364 225.396 163.489 229.216C163.337 229.879 162.673 230.288 162.011 230.132V230.132ZM108.224 159.156C108.333 159.827 107.876 160.459 107.205 160.572C103.061 161.266 99.1118 162.047 95.3504 162.909C94.6874 163.061 94.0242 162.651 93.868 161.989V161.989C93.7117 161.327 94.1214 160.663 94.7844 160.511C98.6044 159.636 102.611 158.844 106.811 158.14C107.482 158.028 108.115 158.484 108.224 159.156V159.156ZM178.958 244.182C179.603 243.966 180.3 244.315 180.521 244.958C181.883 248.911 183.352 252.589 184.917 256.004C185.2 256.623 184.938 257.357 184.323 257.647V257.647C183.708 257.938 182.973 257.675 182.69 257.057C181.082 253.55 179.577 249.781 178.185 245.739C177.964 245.096 178.313 244.397 178.958 244.182V244.182ZM66.353 139.677C66.6435 139.062 67.3772 138.8 67.9955 139.083C71.4106 140.648 75.0887 142.117 79.0423 143.479C79.6854 143.7 80.0339 144.397 79.8182 145.042V145.042C79.6025 145.687 78.9043 146.036 78.2612 145.815C74.2187 144.423 70.4498 142.918 66.9434 141.31C66.3251 141.027 66.0624 140.292 66.353 139.677V139.677ZM29.649 97.8064C30.3183 97.6856 30.9572 98.1307 31.0955 98.7966C31.8752 102.55 33.1246 106.248 34.8927 109.845C35.1928 110.455 34.9621 111.199 34.3598 111.515V111.515C33.7574 111.83 33.0115 111.599 32.7106 110.989C30.8245 107.165 29.495 103.229 28.6708 99.2342C28.5333 98.5681 28.9796 97.9272 29.649 97.8064V97.8064ZM212.485 289.64C212.801 289.038 213.545 288.807 214.155 289.107C217.752 290.875 221.45 292.125 225.203 292.904C225.869 293.043 226.314 293.682 226.194 294.351V294.351C226.073 295.02 225.432 295.467 224.766 295.329C220.771 294.505 216.835 293.175 213.011 291.289C212.401 290.988 212.169 290.243 212.485 289.64V289.64ZM42.7652 123.199C43.2602 122.733 44.0387 122.757 44.5155 123.242C47.1026 125.874 50.0747 128.404 53.4601 130.805C54.0149 131.199 54.159 131.964 53.7745 132.526V132.526C53.3901 133.087 52.6227 133.231 52.0677 132.837C48.5418 130.339 45.4347 127.696 42.7225 124.932C42.2461 124.446 42.2702 123.666 42.7652 123.199V123.199ZM191.474 270.225C192.036 269.841 192.801 269.985 193.195 270.54C195.596 273.925 198.126 276.897 200.758 279.484C201.243 279.961 201.267 280.74 200.801 281.235V281.235C200.334 281.73 199.554 281.754 199.068 281.278C196.304 278.565 193.661 275.458 191.163 271.932C190.769 271.377 190.913 270.61 191.474 270.225V270.225ZM79.8183 165.958C80.034 166.603 79.6855 167.3 79.0424 167.521C75.0887 168.883 71.4106 170.352 67.9955 171.917C67.3772 172.2 66.6435 171.938 66.353 171.323V171.323C66.0625 170.708 66.3251 169.973 66.9434 169.69C70.4498 168.082 74.2187 166.577 78.2612 165.185C78.9044 164.964 79.6026 165.313 79.8183 165.958V165.958ZM152.677 257.647C152.062 257.357 151.8 256.623 152.083 256.004C153.648 252.589 155.117 248.911 156.479 244.958C156.7 244.315 157.397 243.966 158.042 244.182V244.182C158.687 244.397 159.036 245.096 158.815 245.739C157.423 249.781 155.918 253.55 154.31 257.057C154.027 257.675 153.292 257.938 152.677 257.647V257.647ZM53.7746 178.474C54.159 179.036 54.015 179.801 53.4602 180.195C50.0747 182.596 47.1026 185.126 44.5156 187.758C44.0388 188.243 43.2603 188.267 42.7653 187.801V187.801C42.2702 187.334 42.2461 186.554 42.7225 186.068C45.4347 183.304 48.5419 180.661 52.0678 178.163C52.6228 177.769 53.3901 177.913 53.7746 178.474V178.474ZM136.199 281.235C135.733 280.74 135.757 279.961 136.242 279.485C138.874 276.897 141.404 273.925 143.805 270.54C144.199 269.985 144.964 269.841 145.526 270.225V270.225C146.087 270.61 146.231 271.377 145.837 271.932C143.339 275.458 140.696 278.565 137.932 281.278C137.446 281.754 136.666 281.73 136.199 281.235V281.235ZM34.3598 199.485C34.9622 199.801 35.1929 200.545 34.8928 201.155C33.1246 204.752 31.8752 208.45 31.0955 212.203C30.9572 212.869 30.3183 213.314 29.649 213.194V213.194C28.9796 213.073 28.5334 212.432 28.6708 211.766C29.495 207.771 30.8245 203.835 32.7106 200.011C33.0115 199.401 33.7574 199.169 34.3598 199.485V199.485ZM110.806 294.351C110.686 293.682 111.131 293.043 111.797 292.904C115.55 292.125 119.248 290.875 122.845 289.107C123.455 288.807 124.199 289.038 124.515 289.64V289.64C124.83 290.243 124.599 290.989 123.989 291.289C120.165 293.176 116.229 294.505 112.234 295.329C111.568 295.467 110.927 295.02 110.806 294.351V294.351ZM29.1561 227.661C29.8326 227.591 30.4366 228.082 30.5219 228.757C31.0071 232.596 31.8976 236.427 33.1471 240.201C33.3609 240.847 33.0249 241.55 32.3833 241.775V241.775C31.7416 242.001 31.0374 241.664 30.8231 241.019C29.5138 237.073 28.5783 233.053 28.0714 229.011C27.9867 228.337 28.4796 227.731 29.1561 227.661V227.661ZM82.2247 291.617C82.4504 290.975 83.1532 290.639 83.7989 290.853C87.5726 292.102 91.4035 292.993 95.2429 293.478C95.9177 293.563 96.4094 294.167 96.3391 294.844V294.844C96.2689 295.52 95.6634 296.013 94.9885 295.929C90.9467 295.422 86.927 294.486 82.9814 293.177C82.3359 292.963 81.999 292.258 82.2247 291.617V291.617ZM38.5512 254.931C39.1369 254.585 39.8912 254.781 40.2459 255.361C42.2906 258.707 44.5997 261.936 47.131 265.005C47.5638 265.53 47.501 266.306 46.9825 266.747V266.747C46.4639 267.187 45.6861 267.124 45.2531 266.599C42.6334 263.426 40.2423 260.082 38.1244 256.613C37.77 256.032 37.9654 255.277 38.5512 254.931V254.931ZM57.2534 277.017C57.6935 276.499 58.4701 276.436 58.9948 276.869C62.0638 279.4 65.2928 281.709 68.639 283.754C69.2194 284.109 69.4145 284.863 69.0688 285.449V285.449C68.7231 286.035 67.9676 286.23 67.387 285.876C63.9175 283.758 60.5742 281.367 57.4007 278.747C56.8762 278.314 56.8132 277.536 57.2534 277.017V277.017Z" stroke="black" stroke-width="4.48374" stroke-miterlimit="10" stroke-linejoin="round" mask="url(#path-1-outside-1_576_25567)"/>
</g>
<defs>
<clipPath id="clip0_576_25567">
<rect width="210" height="210" fill="white"/>
</clipPath>
</defs>
</svg>
