<svg width="29" height="28" viewBox="0 0 29 28" fill="none" xmlns="http://www.w3.org/2000/svg">
<path fill-rule="evenodd" clip-rule="evenodd" d="M13.2115 6.00763C12.943 6.30187 12.6795 6.59618 12.4111 6.89602C12.0606 7.28756 11.7017 7.68855 11.3121 8.11112C10.9333 8.52196 10.5461 8.95244 10.1502 9.39252C9.18399 10.4668 8.16625 11.5983 7.09388 12.641C7.12386 12.7631 7.1398 12.8911 7.1398 13.023C7.1398 14.6534 7.31505 16.2726 7.50279 17.9898L7.50771 18.0347C7.6774 19.5867 7.85615 21.2216 7.88164 22.8919C8.34701 22.8526 8.81315 22.8124 9.28008 22.7723C9.74705 22.7321 10.2148 22.6918 10.6833 22.6522V19.7922C10.6833 19.7922 10.6833 19.7897 10.6831 19.7834C10.6828 19.7772 10.6824 19.7685 10.6816 19.757C10.6799 19.7335 10.677 19.7025 10.6724 19.6627C10.663 19.5815 10.6484 19.4822 10.6284 19.3594C10.6164 19.2858 10.5994 19.1874 10.5806 19.0783C10.5484 18.8914 10.5108 18.6732 10.4835 18.4952C10.4358 18.1837 10.3877 17.8084 10.3836 17.4396C10.3798 17.1079 10.4051 16.5729 10.6595 16.0691C10.8683 15.6554 11.1892 15.4583 11.3007 15.3936C11.4487 15.3078 11.589 15.2558 11.6834 15.2246C11.8766 15.161 12.083 15.1196 12.2564 15.0906C12.6153 15.0306 13.0486 14.9892 13.4505 14.9599C14.2604 14.9009 15.0979 14.8803 15.3129 14.8803C15.4195 14.8803 15.5209 14.8723 15.6738 14.8602C15.7275 14.8559 15.7875 14.8512 15.8564 14.8461C16.0652 14.8307 16.4105 14.8072 16.7574 14.8598C17.1174 14.9144 17.6734 15.0794 18.0946 15.6167C18.5123 16.1494 18.5856 16.7777 18.561 17.269C18.4877 18.7292 18.5114 20.1171 18.5364 21.5784C18.5398 21.7783 18.5433 21.9797 18.5465 22.1828C18.976 22.1745 19.4061 22.17 19.8368 22.17C20.0352 22.17 20.2177 22.1957 20.3571 22.2207C20.3892 22.2264 20.4211 22.2325 20.4526 22.2389C20.4649 22.1054 20.4774 21.9741 20.4897 21.8458C20.5 21.7377 20.5101 21.6317 20.5198 21.5284C20.5737 20.9481 20.6149 20.4177 20.6149 19.8934V12.334C20.3865 12.101 20.1642 11.8773 19.9495 11.6677C19.5089 11.2376 18.9421 10.797 18.2687 10.3085C18.0323 10.1371 17.7733 9.95321 17.5049 9.76265C17.0544 9.44284 16.5775 9.1042 16.1362 8.77378C15.1353 8.02436 14.0402 7.12319 13.2115 6.00763ZM20.6149 8.30844C20.3865 8.13331 20.1554 7.96268 19.9261 7.79637C19.6355 7.5856 19.3562 7.38748 19.0814 7.19261C18.6613 6.89463 18.2518 6.60426 17.8294 6.28793C16.4326 5.24209 15.4435 4.29673 15.0171 3.2906C14.9706 3.18107 14.9165 3.06017 14.8554 2.94519C14.8031 2.84664 14.6989 2.66116 14.532 2.48578C14.3577 2.30263 13.9755 1.98957 13.4043 2.00027C12.8716 2.01025 12.5227 2.30055 12.3936 2.42072C12.2547 2.54999 12.1566 2.68589 12.1197 2.737C12.0907 2.7772 12.0494 2.83717 12.0241 2.87394C12.0163 2.88538 12.0099 2.89458 12.006 2.90023C11.9489 2.98234 11.9057 3.03886 11.8557 3.09127C11.315 3.6582 10.7606 4.27661 10.2256 4.87332C9.87831 5.26073 9.53919 5.63898 9.21736 5.98805C8.78218 6.46006 8.35924 6.93007 7.94197 7.39378C6.71754 8.75448 5.54188 10.061 4.24874 11.205C4.05411 11.3772 3.84418 11.5883 3.66419 11.7694C3.64228 11.7915 3.6208 11.8131 3.59986 11.8341C3.38871 12.0461 3.19499 12.2374 3.00255 12.4052C2.808 12.5748 2.65318 12.6858 2.53422 12.7505C2.47793 12.7811 2.44406 12.7934 2.43007 12.7979C1.63784 12.8127 1 13.4907 1 14.3249C1 15.1685 1.65219 15.8523 2.45671 15.8523C3.18605 15.8523 3.82259 15.5324 4.3073 15.1945C4.38101 16.2585 4.4948 17.2993 4.60467 18.3042L4.60833 18.3377C4.79613 20.0555 4.97132 21.6703 4.97132 23.2924C4.97132 23.5864 4.97503 23.9444 5.0296 24.267C5.08673 24.6048 5.23965 25.1582 5.74067 25.5661C6.20134 25.9412 6.71393 25.9874 6.97905 25.9975C7.26182 26.0084 7.58722 25.9811 7.86812 25.9575C8.42556 25.9108 8.98044 25.8631 9.53255 25.8156C11.8601 25.6155 14.1452 25.419 16.4294 25.3106C16.4294 25.3106 17.6041 25.2546 17.8763 25.2546C17.8763 25.2546 19.1757 25.2249 19.8305 25.2249C19.9562 25.2249 20.1439 25.2944 20.1733 25.3017C20.3494 25.3454 20.6191 25.4122 20.8694 25.4473C21.1238 25.4829 21.6808 25.5423 22.228 25.2607C22.9526 24.8878 23.2454 24.1669 23.278 23.5173C23.2999 23.0811 23.3409 22.6516 23.3859 22.1798C23.3969 22.0642 23.4081 21.9461 23.4194 21.8248C23.4749 21.2284 23.5283 20.5745 23.5283 19.8934V15.2585C23.6698 15.3891 23.8112 15.5168 23.9524 15.6407C24.0803 15.753 24.16 15.84 24.273 15.9633C24.3647 16.0634 24.4783 16.1874 24.6574 16.3683C24.96 16.674 25.432 17.1087 26.0822 17.336C26.8455 17.6027 27.6704 17.1703 27.9249 16.37C28.1793 15.5698 27.7668 14.7048 27.0035 14.4381C26.9905 14.4335 26.9036 14.3956 26.6788 14.1685C26.6004 14.0893 26.5302 14.0139 26.4446 13.9219C26.4061 13.8805 26.3645 13.8358 26.3177 13.7859C26.1825 13.642 26.013 13.4657 25.8226 13.2985C25.0062 12.5818 24.2875 11.8379 23.5283 11.0505V6.25389C23.5283 5.41036 22.8761 4.72655 22.0716 4.72655C21.2671 4.72655 20.6149 5.41036 20.6149 6.25389V8.30844ZM15.6335 22.2931C15.6308 22.1225 15.6279 21.9511 15.625 21.7791C15.6039 20.5159 15.5823 19.2191 15.6196 17.9255C15.5192 17.931 15.4141 17.935 15.3129 17.935C15.168 17.935 14.398 17.953 13.6525 18.0073C13.5525 18.0146 13.4557 18.0223 13.3631 18.0305C13.3878 18.1903 13.411 18.3235 13.4359 18.4664C13.4557 18.5802 13.4765 18.7001 13.5001 18.8443C13.5428 19.1061 13.5967 19.4631 13.5967 19.7922V22.4221C14.2741 22.3738 14.953 22.3301 15.6335 22.2931Z" stroke="#B8B8B8" stroke-linecap="round"/>
</svg>
