<svg width="28" height="28" viewBox="0 0 28 28" fill="none" xmlns="http://www.w3.org/2000/svg">
<path fill-rule="evenodd" clip-rule="evenodd" d="M7.06788 8.00621C7.2391 8.0169 7.38808 8.0262 7.52191 8.03229C7.6362 8.01334 7.73385 8.01218 7.80503 8.01535C7.90825 8.01995 7.99368 8.03551 8.05356 8.04927C8.16987 8.07598 8.26118 8.11268 8.31333 8.13537C8.37097 8.16046 8.42054 8.18607 8.4589 8.20713L8.55385 8.25924L8.63994 8.32588C10.1793 9.51736 10.9518 10.7249 11.344 11.8808C11.5328 12.4374 11.6193 12.9414 11.6764 13.3399C11.6966 13.4815 11.712 13.5964 11.7249 13.6929C11.7535 13.9071 11.77 14.0305 11.8009 14.154C12.1305 15.4722 12.058 17.0009 11.434 18.2948C11.3458 18.4777 11.2638 18.682 11.1637 18.9381L11.1363 19.0082C11.0481 19.2345 10.9434 19.5033 10.825 19.7645C10.5612 20.3468 10.1576 21.0639 9.4244 21.5901C8.89404 21.9708 8.253 22.1355 7.70388 22.2061C7.12821 22.2802 6.51112 22.2686 5.92337 22.193C5.33606 22.1174 4.73356 21.9721 4.19174 21.7506C3.67546 21.5395 3.08655 21.2075 2.66573 20.6799C0.494712 17.9579 0.937495 14.71 1.3052 12.2956C1.34204 12.0537 1.42414 11.8369 1.47842 11.7045C1.54187 11.5498 1.61836 11.3903 1.69718 11.2376C1.85547 10.9311 2.05408 10.5925 2.25787 10.2724C2.46164 9.95224 2.68478 9.62826 2.8967 9.35422C3.06387 9.13803 3.3532 8.77797 3.68281 8.5605C4.48119 8.03376 5.41039 7.96622 6.0691 7.96613C6.41931 7.96608 6.76568 7.98735 7.0569 8.00553L7.06788 8.00621ZM7.11202 10.6115L7.06205 10.6083C6.76298 10.5897 6.49622 10.5741 6.24155 10.5741C5.76558 10.5742 5.55295 10.5957 5.43147 10.6531C5.39373 10.6946 5.30352 10.7965 5.23604 10.8837C5.09049 11.072 4.91779 11.3206 4.74835 11.5868C4.57892 11.8529 4.42693 12.1144 4.31823 12.3249C4.26508 12.4278 4.22948 12.5047 4.2086 12.5551C3.83288 15.0456 3.6747 17.5256 5.52655 18.9656C5.66853 19.076 5.8308 19.0674 6.0284 19.057C6.15021 19.0506 6.28543 19.0435 6.43761 19.063C6.83625 19.1143 7.22063 19.1164 7.53395 19.0761C7.68917 19.0562 7.92658 18.9797 8.01535 18.9504C8.1582 18.8478 8.30233 18.6667 8.48286 18.2682C8.567 18.0825 8.64329 17.887 8.73688 17.6473L8.76122 17.585C8.85976 17.3327 8.97857 17.0315 9.12158 16.7349C9.40338 16.1506 9.47039 15.3496 9.28415 14.6049C9.20898 14.3043 9.16145 13.9451 9.12583 13.6759C9.11677 13.6074 9.10849 13.5448 9.10071 13.4904C9.05413 13.1648 8.99882 12.8685 8.89571 12.5646C8.7239 12.0582 8.37517 11.4002 7.48347 10.6332C7.35536 10.6267 7.22988 10.6189 7.11202 10.6115Z" fill="#FFC700"/>
<path fill-rule="evenodd" clip-rule="evenodd" d="M3.06719 2.242C3.70542 1.80086 4.56774 1.97966 4.99323 2.64137C5.2456 3.03384 5.42778 3.37508 5.60714 3.86406C5.64489 3.96697 5.67994 4.03499 5.74027 4.15207C5.78344 4.23584 5.83955 4.34472 5.91884 4.50946C6.06498 4.81307 6.27754 5.29769 6.30766 5.89102C6.34798 6.6852 5.7597 7.36289 4.99369 7.40469C4.2287 7.44643 3.57577 6.83817 3.53389 6.04554C3.53297 6.04114 3.5214 5.97831 3.43338 5.79544C3.39908 5.7242 3.37288 5.67292 3.34099 5.61054C3.31568 5.56101 3.28679 5.50448 3.24743 5.42539C3.17559 5.28104 3.08687 5.09524 3.01076 4.88773C2.91796 4.63472 2.84025 4.48501 2.68198 4.23888C2.25649 3.57717 2.42895 2.68313 3.06719 2.242Z" fill="#FFC700"/>
<path fill-rule="evenodd" clip-rule="evenodd" d="M19.4541 7.92916C19.3202 7.92308 19.1712 7.91378 19 7.90309L18.9891 7.90241C18.6978 7.88423 18.3515 7.86296 18.0012 7.86301C17.3425 7.8631 16.4133 7.93064 15.615 8.45738C15.2853 8.67485 14.996 9.03491 14.8288 9.25109C14.6169 9.52514 14.3938 9.84912 14.19 10.1692C13.9862 10.4894 13.7876 10.8279 13.6293 11.1345C13.5505 11.2872 13.474 11.4467 13.4106 11.6014C13.3563 11.7338 13.2742 11.9506 13.2373 12.1925C12.8696 14.6069 12.4269 17.8548 14.5979 20.5768C15.0187 21.1044 15.6076 21.4363 16.1239 21.6474C16.6657 21.869 17.2682 22.0143 17.8555 22.0899C18.4433 22.1655 19.0604 22.177 19.636 22.103C20.1851 22.0323 20.8262 21.8677 21.3565 21.487C22.0897 20.9608 22.4933 20.2437 22.7571 19.6614C22.8755 19.4002 22.9803 19.1314 23.0685 18.9051C23.0778 18.8813 23.0869 18.8579 23.0959 18.835C23.1959 18.5789 23.2779 18.3746 23.3662 18.1917C23.9901 16.8978 24.0627 15.3691 23.7331 14.0509C23.7022 13.9274 23.6857 13.804 23.657 13.5897C23.6441 13.4933 23.6287 13.3784 23.6085 13.2368C23.5515 12.8383 23.465 12.3342 23.2761 11.7776C22.8839 10.6218 22.1114 9.41424 20.5721 8.22276L20.486 8.15612L20.391 8.104C20.3527 8.08295 20.3031 8.05734 20.2455 8.03225C20.1933 8.00955 20.102 7.97286 19.9857 7.94614C19.9258 7.93239 19.8404 7.91682 19.7372 7.91223C19.666 7.90905 19.5683 7.91022 19.4541 7.92916ZM19.2435 10.802C19.1154 10.7955 18.9899 10.7877 18.8721 10.7803C18.8553 10.7792 18.8386 10.7782 18.8221 10.7771C18.523 10.7585 18.2563 10.7429 18.0016 10.7429C17.5256 10.743 17.2761 10.8029 17.1546 10.8603C17.1169 10.9019 17.0636 10.9653 16.9961 11.0525C16.8505 11.2408 16.6778 11.4894 16.5084 11.7556C16.339 12.0218 16.187 12.2832 16.0783 12.4937C16.0251 12.5967 15.9895 12.6736 15.9687 12.7239C15.5929 15.2144 15.4698 17.1508 16.7386 18.7415C16.7386 18.7415 17.1416 18.967 17.143 18.9683C17.1567 18.9809 16.8599 18.8526 17.143 18.9683C17.4298 19.0856 17.7986 19.1805 18.1977 19.2319C18.5963 19.2831 18.9807 19.2853 19.294 19.245C19.4492 19.225 19.5711 19.1966 19.6599 19.1673C19.7754 19.1192 19.7764 19.1185 19.7764 19.1185L19.7754 19.1192C19.9183 19.0166 20.0624 18.8355 20.2429 18.437C20.3271 18.2513 20.4033 18.0558 20.4969 17.8161C20.5049 17.7956 20.513 17.7749 20.5213 17.7538C20.6198 17.5015 20.7386 17.2003 20.8816 16.9037C21.1634 16.3194 21.2304 15.5185 21.0442 14.7737C20.969 14.4731 20.9215 14.1139 20.8859 13.8447C20.8768 13.7762 20.8685 13.7136 20.8608 13.6593C20.8142 13.3336 20.7589 13.0373 20.6558 12.7334C20.484 12.227 20.1352 11.569 19.2435 10.802Z" fill="#FFC700"/>
<path fill-rule="evenodd" clip-rule="evenodd" d="M14.8709 2.40793C15.5092 1.96679 16.3715 2.1456 16.797 2.80731C17.0493 3.19978 17.2315 3.54101 17.4109 4.02999C17.4486 4.13291 17.4837 4.20092 17.544 4.31801C17.5872 4.40177 17.6433 4.51065 17.7226 4.6754C17.8687 4.97901 18.0813 5.46362 18.1114 6.05696C18.1517 6.85113 17.5634 7.52882 16.7974 7.57062C16.0325 7.61236 15.3795 7.00411 15.3376 6.21147C15.3367 6.20707 15.3251 6.14424 15.2371 5.96138C15.2028 5.89013 15.1766 5.83886 15.1447 5.77648C15.1194 5.72694 15.0905 5.67041 15.0512 5.59132C14.9793 5.44697 14.8906 5.26118 14.8145 5.05366C14.7217 4.80065 14.644 4.65094 14.4857 4.40481C14.0602 3.7431 14.2327 2.84907 14.8709 2.40793Z" fill="#FFC700"/>
<path d="M11.1363 19.0082C11.0481 19.2345 10.9434 19.5033 10.825 19.7645C10.5612 20.3468 10.1576 21.0639 9.4244 21.5901C8.89404 21.9708 8.253 22.1355 7.70388 22.2061C7.12821 22.2802 6.51112 22.2686 5.92337 22.193C5.33606 22.1174 4.73356 21.9721 4.19174 21.7506C3.67546 21.5395 3.08655 21.2075 2.66573 20.6799C0.494712 17.9579 0.937495 14.71 1.3052 12.2956C1.34204 12.0537 1.42414 11.8369 1.47842 11.7045C1.54187 11.5498 1.61836 11.3903 1.69718 11.2376C1.85547 10.9311 2.05408 10.5925 2.25787 10.2724C2.46164 9.95224 2.68478 9.62826 2.8967 9.35422C3.06387 9.13803 3.3532 8.77797 3.68281 8.5605C4.48119 8.03376 5.41039 7.96622 6.0691 7.96613C6.41931 7.96608 6.76568 7.98735 7.0569 8.00553L7.06788 8.00621C7.2391 8.0169 7.38808 8.0262 7.52191 8.03229C7.6362 8.01334 7.73385 8.01218 7.80503 8.01535C7.90825 8.01995 7.99368 8.03551 8.05356 8.04927C8.16987 8.07598 8.26118 8.11268 8.31333 8.13537C8.37097 8.16046 8.42054 8.18607 8.4589 8.20713L8.55385 8.25924L8.63994 8.32588C10.1793 9.51736 10.9518 10.7249 11.344 11.8808C11.5328 12.4374 11.6193 12.9414 11.6764 13.3399C11.6966 13.4815 11.712 13.5964 11.7249 13.6929C11.7535 13.9071 11.77 14.0305 11.8009 14.154C12.1305 15.4722 12.058 17.0009 11.434 18.2948C11.3458 18.4777 11.2638 18.682 11.1637 18.9381M11.1363 19.0082C11.1457 18.9844 11.1548 18.961 11.1637 18.9381M11.1363 19.0082L11.1637 18.9381M7.11202 10.6115C7.22988 10.6189 7.35536 10.6267 7.48347 10.6332C8.37517 11.4002 8.7239 12.0582 8.89571 12.5646C8.99882 12.8685 9.05413 13.1648 9.10071 13.4904C9.10849 13.5448 9.11677 13.6074 9.12583 13.6759C9.16145 13.9451 9.20898 14.3043 9.28415 14.6049C9.47039 15.3496 9.40338 16.1506 9.12158 16.7349C8.97857 17.0315 8.85976 17.3327 8.76122 17.585M7.11202 10.6115C7.0952 10.6104 7.07854 10.6094 7.06205 10.6083M7.11202 10.6115L7.06205 10.6083M7.06205 10.6083C6.76298 10.5897 6.49622 10.5741 6.24155 10.5741C5.76558 10.5742 5.55295 10.5957 5.43147 10.6531M5.43147 10.6531C5.39373 10.6946 5.30352 10.7965 5.23604 10.8837C5.09049 11.072 4.91779 11.3206 4.74835 11.5868C4.57892 11.8529 4.42693 12.1144 4.31823 12.3249C4.26508 12.4278 4.22948 12.5047 4.2086 12.5551C3.83288 15.0456 3.6747 17.5256 5.52655 18.9656C5.66853 19.076 5.8308 19.0674 6.0284 19.057C6.15021 19.0506 6.28543 19.0435 6.43761 19.063C6.83625 19.1143 7.22063 19.1164 7.53395 19.0761C7.68917 19.0562 7.92658 18.9797 8.01535 18.9504M5.43147 10.6531C5.43147 10.6531 5.42995 10.6547 5.42701 10.6573M8.01535 18.9504L8.01631 18.9497M8.01535 18.9504C8.1582 18.8478 8.30233 18.6667 8.48286 18.2682C8.567 18.0825 8.64329 17.887 8.73688 17.6473M8.73688 17.6473C8.74487 17.6268 8.75297 17.6061 8.76122 17.585M8.73688 17.6473L8.76122 17.585M4.19342 12.5947C4.19342 12.5947 4.19411 12.5923 4.19601 12.5871M16.0783 12.4937C16.187 12.2832 16.339 12.0218 16.5084 11.7556C16.6778 11.4894 16.8505 11.2408 16.9961 11.0525C17.0636 10.9653 17.1169 10.9019 17.1546 10.8603C17.2761 10.8029 17.5256 10.743 18.0016 10.7429C18.2563 10.7429 18.523 10.7585 18.8221 10.7771C18.8386 10.7782 18.8553 10.7792 18.8721 10.7803C18.9899 10.7877 19.1154 10.7955 19.2435 10.802C20.1352 11.569 20.484 12.227 20.6558 12.7334C20.7589 13.0373 20.8142 13.3336 20.8608 13.6593C20.8685 13.7136 20.8768 13.7762 20.8859 13.8447C20.9215 14.1139 20.969 14.4731 21.0442 14.7737C21.2304 15.5185 21.1634 16.3194 20.8816 16.9037C20.7386 17.2003 20.6198 17.5015 20.5213 17.7538C20.513 17.7749 20.5049 17.7956 20.4969 17.8161C20.4033 18.0558 20.3271 18.2513 20.2429 18.437C20.0624 18.8355 19.9183 19.0166 19.7754 19.1192L19.7764 19.1185C19.7764 19.1185 19.7754 19.1192 19.6599 19.1673C19.5711 19.1966 19.4492 19.225 19.294 19.245C18.9807 19.2853 18.5963 19.2831 18.1977 19.2319C17.7986 19.1805 17.4298 19.0856 17.143 18.9683M16.0783 12.4937C16.0251 12.5967 15.9895 12.6736 15.9687 12.7239C15.5929 15.2144 15.4698 17.1508 16.7386 18.7415C16.7386 18.7415 17.1416 18.967 17.143 18.9683M16.0783 12.4937C16.0764 12.4989 15.9535 12.7635 15.9535 12.7635M17.143 18.9683C16.8599 18.8526 17.1567 18.9809 17.143 18.9683ZM17.1915 10.8219C17.1915 10.8219 17.19 10.8235 17.1871 10.8261M4.99323 2.64137C4.56774 1.97966 3.70542 1.80086 3.06719 2.242C2.42895 2.68313 2.25649 3.57717 2.68198 4.23888C2.84025 4.48501 2.91796 4.63472 3.01076 4.88773C3.08687 5.09524 3.17559 5.28104 3.24743 5.42539C3.28679 5.50448 3.31568 5.56101 3.34099 5.61054C3.37288 5.67292 3.39908 5.7242 3.43338 5.79544C3.5214 5.97831 3.53297 6.04114 3.53389 6.04554C3.57577 6.83817 4.2287 7.44643 4.99369 7.40469C5.7597 7.36289 6.34798 6.6852 6.30766 5.89102C6.27754 5.29769 6.06498 4.81307 5.91884 4.50946C5.83955 4.34472 5.78344 4.23584 5.74027 4.15207C5.67994 4.03499 5.64489 3.96697 5.60714 3.86406C5.42778 3.37508 5.2456 3.03384 4.99323 2.64137ZM19.4541 7.92916C19.3202 7.92308 19.1712 7.91378 19 7.90309L18.9891 7.90241C18.6978 7.88423 18.3515 7.86296 18.0012 7.86301C17.3425 7.8631 16.4133 7.93064 15.615 8.45738C15.2853 8.67485 14.996 9.03491 14.8288 9.25109C14.6169 9.52514 14.3938 9.84912 14.19 10.1692C13.9862 10.4894 13.7876 10.8279 13.6293 11.1345C13.5505 11.2872 13.474 11.4467 13.4106 11.6014C13.3563 11.7338 13.2742 11.9506 13.2373 12.1925C12.8696 14.6069 12.4269 17.8548 14.5979 20.5768C15.0187 21.1044 15.6076 21.4363 16.1239 21.6474C16.6657 21.869 17.2682 22.0143 17.8555 22.0899C18.4433 22.1655 19.0604 22.177 19.636 22.103C20.1851 22.0323 20.8262 21.8677 21.3565 21.487C22.0897 20.9608 22.4933 20.2437 22.7571 19.6614C22.8755 19.4002 22.9803 19.1314 23.0685 18.9051C23.0778 18.8813 23.0869 18.8579 23.0959 18.835C23.1959 18.5789 23.2779 18.3746 23.3662 18.1917C23.9901 16.8978 24.0627 15.3691 23.7331 14.0509C23.7022 13.9274 23.6857 13.804 23.657 13.5897C23.6441 13.4933 23.6287 13.3784 23.6085 13.2368C23.5515 12.8383 23.465 12.3342 23.2761 11.7776C22.8839 10.6218 22.1114 9.41424 20.5721 8.22276L20.486 8.15612L20.391 8.104C20.3527 8.08295 20.3031 8.05734 20.2455 8.03225C20.1933 8.00955 20.102 7.97286 19.9857 7.94614C19.9258 7.93239 19.8404 7.91682 19.7372 7.91223C19.666 7.90905 19.5683 7.91022 19.4541 7.92916ZM16.797 2.80731C16.3715 2.1456 15.5092 1.96679 14.8709 2.40793C14.2327 2.84907 14.0602 3.7431 14.4857 4.40481C14.644 4.65094 14.7217 4.80065 14.8145 5.05366C14.8906 5.26118 14.9793 5.44697 15.0512 5.59132C15.0905 5.67041 15.1194 5.72694 15.1447 5.77648C15.1766 5.83886 15.2028 5.89013 15.2371 5.96138C15.3251 6.14424 15.3367 6.20707 15.3376 6.21147C15.3795 7.00411 16.0325 7.61236 16.7974 7.57062C17.5634 7.52882 18.1517 6.85113 18.1114 6.05696C18.0813 5.46362 17.8687 4.97901 17.7226 4.6754C17.6433 4.51065 17.5872 4.40177 17.544 4.31801C17.4837 4.20092 17.4486 4.13291 17.4109 4.02999C17.2315 3.54101 17.0493 3.19978 16.797 2.80731Z" stroke="#2C2D2E" stroke-width="0.909336" stroke-linecap="round"/>
<path d="M22.4927 19.3687C22.4927 18.7897 22.0293 18.3203 21.4577 18.3203C20.886 18.3203 20.4226 18.7897 20.4226 19.3687V20.985H18.7017C18.1301 20.985 17.6667 21.4544 17.6667 22.0334C17.6667 22.6124 18.1301 23.0818 18.7017 23.0818H20.4226V24.9518C20.4226 25.5308 20.886 26.0002 21.4577 26.0002C22.0293 26.0002 22.4927 25.5308 22.4927 24.9518V23.0818H24.965C25.5366 23.0818 26 22.6124 26 22.0334C26 21.4544 25.5366 20.985 24.965 20.985H22.4927V19.3687Z" fill="#FFC700" stroke="#2C2D2E" stroke-width="0.909336" stroke-linecap="round"/>
</svg>
