<svg width="12" height="12" viewBox="0 0 12 12" fill="none" xmlns="http://www.w3.org/2000/svg">
<path d="M3.08077 8.16579C2.92257 8.324 2.91504 8.6065 3.08454 8.77224C3.25028 8.93797 3.53278 8.93421 3.69099 8.776L5.99623 6.46699L8.30524 8.776C8.46721 8.93797 8.74595 8.93797 8.91169 8.77224C9.07366 8.60273 9.07742 8.32776 8.91169 8.16579L6.60644 5.85678L8.91169 3.55154C9.07742 3.38957 9.07742 3.11083 8.91169 2.94509C8.74218 2.78312 8.46721 2.77935 8.30524 2.94132L5.99623 5.25034L3.69099 2.94132C3.53278 2.78312 3.24651 2.77559 3.08454 2.94509C2.9188 3.11083 2.92257 3.39333 3.08077 3.55154L5.38979 5.85678L3.08077 8.16579Z" fill="#B8B8B8"/>
</svg>
