<svg width="28" height="28" viewBox="0 0 28 28" fill="none" xmlns="http://www.w3.org/2000/svg">
<path fill-rule="evenodd" clip-rule="evenodd" d="M19.3522 2.97879C20.5639 3.50069 21.4241 4.21922 22.163 4.9945C22.5192 5.36829 22.8549 5.76387 23.1728 6.1384C23.1972 6.16719 23.2215 6.19585 23.2458 6.22437C23.5932 6.63348 23.9319 7.02847 24.3124 7.42257C25.2773 8.42191 25.4501 9.85956 25.5156 10.8686C25.5379 11.2133 25.55 11.5921 25.5609 11.9346C25.5664 12.108 25.5717 12.2721 25.5778 12.4177C25.598 12.9004 25.6295 13.2719 25.691 13.5611C26.0318 15.165 26.1154 17.4034 25.8166 19.0673C25.3218 21.8232 23.8257 23.9389 21.3782 25.1781C20.7261 25.5083 20.0369 25.6095 19.485 25.6583C19.2493 25.6791 19.0104 25.6921 18.7985 25.7036C18.7595 25.7057 18.7214 25.7078 18.6844 25.7099C18.434 25.7238 18.2235 25.7377 18.0325 25.7613C17.9776 25.7681 17.9223 25.775 17.8667 25.7819C17.0272 25.8861 16.1165 25.9991 15.1737 25.9991C15.068 25.9991 14.9571 25.9993 14.8419 25.9995C14.012 26.0011 12.9536 26.0031 11.9062 25.9305C10.7381 25.8495 9.43104 25.6685 8.39134 25.2052C6.78114 24.4878 5.67914 23.1489 4.81603 22.1004C4.75498 22.0262 4.69513 21.9535 4.63637 21.8826C3.5378 20.5561 2.60237 19.1052 2.18479 17.2022C1.6862 14.9301 2.29083 12.0829 2.88235 10.1361C2.92862 9.98381 2.96867 9.8271 3.01583 9.63944C3.01862 9.62834 3.02144 9.6171 3.0243 9.60572C3.06716 9.43503 3.11772 9.23366 3.17749 9.03214C3.30913 8.5883 3.50417 8.07413 3.87145 7.56754C4.92174 6.11885 6.33386 4.38412 7.9335 3.1891C8.05073 3.03496 8.17764 2.92193 8.27841 2.84484C8.49892 2.67612 8.73808 2.56723 8.93497 2.4935C9.33376 2.34418 9.81481 2.24667 10.296 2.17849C11.2763 2.0396 12.5187 1.9878 13.731 2.00237C14.946 2.01697 16.1868 2.09897 17.1691 2.24493C17.6538 2.31695 18.1217 2.41109 18.5059 2.53795C18.6951 2.60043 18.9132 2.6866 19.1169 2.81098C19.1765 2.84737 19.2604 2.90206 19.3522 2.97879ZM17.7275 5.14095C17.893 5.30789 18.0972 5.42507 18.3174 5.48248C19.1499 5.83229 19.7422 6.31383 20.3225 6.92268C20.6233 7.2383 20.9113 7.57752 21.2415 7.96647C21.2617 7.99025 21.282 8.01423 21.3025 8.03839C21.6505 8.44814 22.0381 8.90159 22.4839 9.36326C22.6912 9.57803 22.8544 10.0468 22.9197 11.0536C22.9394 11.358 22.9483 11.6429 22.9578 11.949C22.9636 12.1344 22.9696 12.3276 22.9784 12.5376C22.9997 13.0447 23.0373 13.6176 23.1514 14.1543C23.4248 15.441 23.4857 17.3037 23.2597 18.5627C22.9134 20.4912 21.9302 21.8693 20.2467 22.7217C20.0319 22.8305 19.7277 22.8993 19.2666 22.94C19.0763 22.9568 18.8858 22.9672 18.6735 22.9788C18.632 22.9811 18.5897 22.9834 18.5464 22.9858C18.2938 22.9999 18.0098 23.0174 17.7281 23.0521C17.6859 23.0574 17.644 23.0625 17.6023 23.0677C16.7269 23.176 15.9579 23.2712 15.1737 23.2712C15.0624 23.2712 14.9481 23.2714 14.8313 23.2716C13.9949 23.2729 13.0304 23.2745 12.078 23.2085C10.9679 23.1315 10.0268 22.9699 9.40902 22.6946C8.37123 22.2322 7.63634 21.3446 6.66865 20.1758C6.64621 20.1487 6.62365 20.1214 6.60096 20.094C5.64044 18.9343 5.00362 17.8811 4.72042 16.5906C4.39019 15.0857 4.78835 12.8503 5.36147 10.9641C5.43034 10.7374 5.48563 10.5183 5.53182 10.3345L5.53563 10.3194C5.58255 10.1327 5.61976 9.98462 5.66202 9.84214C5.74468 9.56341 5.82713 9.37793 5.94285 9.2183C7.00535 7.75276 8.29593 6.21448 9.62535 5.27867L10.0241 4.99796C10.1772 4.95929 10.3829 4.91889 10.6444 4.88183C11.453 4.76728 12.5579 4.71636 13.7012 4.7301C14.8417 4.74381 15.9648 4.82115 16.804 4.94585C17.2301 5.00916 17.5375 5.07818 17.7242 5.13984C17.7253 5.14021 17.7264 5.14058 17.7275 5.14095Z" fill="#FFC700" stroke="#2C2D2E" stroke-width="0.909303" stroke-linecap="round"/>
<path fill-rule="evenodd" clip-rule="evenodd" d="M11.259 8.25488C11.9775 8.25488 12.5599 8.86555 12.5599 9.61884V13.0418C12.5599 13.7951 11.9775 14.4058 11.259 14.4058C10.5405 14.4058 9.95807 13.7951 9.95807 13.0418V9.61884C9.95807 8.86555 10.5405 8.25488 11.259 8.25488Z" fill="#FFC700" stroke="#2C2D2E" stroke-width="0.909303" stroke-linecap="round"/>
<path fill-rule="evenodd" clip-rule="evenodd" d="M17.3579 7.85352C18.0764 7.85352 18.6588 8.46418 18.6588 9.21747V11.8231C18.6588 12.3258 18.6625 12.4307 18.7066 12.5695C18.9338 13.2841 18.5655 14.0565 17.8839 14.2947C17.2022 14.5329 16.4655 14.1467 16.2383 13.4321C16.052 12.8462 16.0547 12.3061 16.0566 11.9273C16.0568 11.891 16.057 11.8563 16.057 11.8231V9.21747C16.057 8.46418 16.6394 7.85352 17.3579 7.85352Z" fill="#FFC700" stroke="#2C2D2E" stroke-width="0.909303" stroke-linecap="round"/>
<path fill-rule="evenodd" clip-rule="evenodd" d="M11.978 16.7133C11.7604 16.2788 11.3259 15.9824 10.8254 15.9824C10.1069 15.9824 9.52444 16.5931 9.52444 17.3464C9.52444 17.7912 9.70547 18.1166 9.81466 18.2795C9.9299 18.4515 10.0581 18.5795 10.1363 18.6532C10.208 18.721 10.2837 18.785 10.3253 18.8203C10.3304 18.8247 10.3351 18.8286 10.3391 18.832C10.3532 18.844 10.3631 18.8526 10.3696 18.8582C10.3967 18.8885 10.4282 18.9253 10.4746 18.9802C10.4767 18.9826 10.4788 18.9851 10.4809 18.9876C10.5314 19.0473 10.602 19.1306 10.6786 19.2135C10.8393 19.3873 11.0879 19.6289 11.4383 19.8046C12.2228 20.198 12.9354 20.4019 13.7469 20.5408C14.9323 20.7437 16.2234 20.475 17.2387 19.8443C17.5168 19.6715 17.7643 19.4854 17.9722 19.3256C18.0176 19.2907 18.0606 19.2575 18.1017 19.2258C18.2616 19.1023 18.3939 19.0002 18.5349 18.9016C19.1327 18.4838 19.2943 17.6369 18.8957 17.0102C18.4972 16.3834 17.6895 16.214 17.0916 16.6319C16.8946 16.7696 16.7013 16.9191 16.5375 17.0456C16.5016 17.0734 16.4671 17.1001 16.4343 17.1253C16.238 17.2761 16.0754 17.3961 15.9122 17.4975C15.4109 17.809 14.7361 17.9461 14.1662 17.8485C13.5532 17.7436 13.0931 17.6071 12.5885 17.3574C12.5803 17.3497 12.5667 17.3363 12.5472 17.3152C12.5135 17.2787 12.4779 17.237 12.4203 17.1691C12.4185 17.1669 12.4166 17.1647 12.4147 17.1624C12.3641 17.1027 12.1518 16.8805 12.075 16.7976C12.1103 16.8294 12.0206 16.739 12.075 16.7976C12.0387 16.765 12.0031 16.7346 11.978 16.7133Z" fill="#FFC700"/>
<path d="M12.075 16.7976C12.1518 16.8805 12.3641 17.1027 12.4147 17.1624C12.4166 17.1647 12.4185 17.1669 12.4203 17.1691C12.4779 17.237 12.5135 17.2787 12.5472 17.3152C12.5667 17.3363 12.5803 17.3497 12.5885 17.3574C13.0931 17.6071 13.5532 17.7436 14.1662 17.8485C14.7361 17.9461 15.4109 17.809 15.9122 17.4975C16.0754 17.3961 16.238 17.2761 16.4343 17.1253C16.4671 17.1001 16.5016 17.0734 16.5375 17.0456C16.7013 16.9191 16.8946 16.7696 17.0916 16.6319C17.6895 16.214 18.4972 16.3834 18.8957 17.0102C19.2943 17.6369 19.1327 18.4838 18.5349 18.9016C18.3939 19.0002 18.2616 19.1023 18.1017 19.2258C18.0606 19.2575 18.0176 19.2907 17.9722 19.3256C17.7643 19.4854 17.5168 19.6715 17.2387 19.8443C16.2234 20.475 14.9323 20.7437 13.7469 20.5408C12.9354 20.4019 12.2228 20.198 11.4383 19.8046C11.0879 19.6289 10.8393 19.3873 10.6786 19.2135C10.602 19.1306 10.5314 19.0473 10.4809 18.9876C10.4788 18.9851 10.4767 18.9826 10.4746 18.9802C10.4282 18.9253 10.3967 18.8885 10.3696 18.8582C10.3631 18.8526 10.3532 18.844 10.3391 18.832C10.3351 18.8286 10.3304 18.8247 10.3253 18.8203C10.2837 18.785 10.208 18.721 10.1363 18.6532C10.0581 18.5795 9.9299 18.4515 9.81466 18.2795C9.70547 18.1166 9.52444 17.7912 9.52444 17.3464C9.52444 16.5931 10.1069 15.9824 10.8254 15.9824C11.3259 15.9824 11.7604 16.2788 11.978 16.7133C12.0031 16.7346 12.0387 16.765 12.075 16.7976ZM12.075 16.7976C12.0206 16.739 12.1103 16.8294 12.075 16.7976ZM11.8758 16.6247C11.8728 16.6218 12.0055 16.7368 12.0055 16.7368" stroke="#2C2D2E" stroke-width="0.909303" stroke-linecap="round"/>
</svg>
