<svg width="12" height="12" viewBox="0 0 12 12" fill="none" xmlns="http://www.w3.org/2000/svg">
<path d="M4.23093 10.1711H7.80868C8.32626 10.1711 8.6285 9.89529 8.65117 9.38148L8.88918 3.92229H9.41054C9.60322 3.92229 9.75056 3.77117 9.75056 3.58227C9.75056 3.39337 9.59944 3.24981 9.41054 3.24981H7.7709V2.68311C7.7709 2.07864 7.38176 1.71973 6.73195 1.71973H5.29632C4.6465 1.71973 4.25737 2.07864 4.25737 2.68311V3.24981H2.62528C2.43638 3.24981 2.28526 3.39715 2.28526 3.58227C2.28526 3.77495 2.43638 3.92229 2.62528 3.92229H3.15042L3.39221 9.38148C3.4111 9.89529 3.71334 10.1711 4.23093 10.1711ZM5.04319 2.71711C5.04319 2.54711 5.16031 2.43754 5.34921 2.43754H6.68284C6.87174 2.43754 6.98885 2.54711 6.98885 2.71711V3.24981H5.04319V2.71711ZM4.80518 9.01124C4.65406 9.01124 4.54828 8.91301 4.5445 8.76189L4.43116 4.74967C4.42738 4.59855 4.53316 4.49655 4.69184 4.49655C4.84296 4.49655 4.94874 4.59477 4.95252 4.74589L5.06586 8.75811C5.07342 8.90923 4.96763 9.01124 4.80518 9.01124ZM6.01791 9.01124C5.85924 9.01124 5.75345 8.91301 5.75345 8.76189V4.74589C5.75345 4.59855 5.85924 4.49655 6.01791 4.49655C6.17659 4.49655 6.28615 4.59855 6.28615 4.74589V8.76189C6.28615 8.91301 6.17659 9.01124 6.01791 9.01124ZM7.23065 9.01502C7.06819 9.01502 6.96241 8.90923 6.96996 8.76189L7.0833 4.74589C7.08708 4.59477 7.19287 4.49655 7.34399 4.49655C7.50266 4.49655 7.60844 4.59855 7.60467 4.74967L7.49133 8.76189C7.48755 8.91301 7.38176 9.01502 7.23065 9.01502Z" fill="#B8B8B8"/>
</svg>
