<svg width="12" height="12" viewBox="0 0 12 12" fill="none" xmlns="http://www.w3.org/2000/svg">
<path d="M5.77991 3.12257C5.82903 3.12257 5.85925 3.09234 5.86681 3.04323C5.98015 2.41986 5.97259 2.41231 6.62618 2.28386C6.6753 2.2763 6.7093 2.24608 6.7093 2.19318C6.7093 2.14407 6.6753 2.11385 6.62618 2.10629C5.97637 1.98162 5.99148 1.97028 5.86681 1.34692C5.85925 1.2978 5.82903 1.26758 5.77991 1.26758C5.7308 1.26758 5.70058 1.2978 5.68924 1.34692C5.56835 1.96273 5.58724 1.97406 4.92987 2.10629C4.88075 2.11385 4.85053 2.14407 4.85053 2.19318C4.85053 2.24608 4.88075 2.2763 4.93364 2.28386C5.58346 2.41231 5.57968 2.41986 5.68924 3.04323C5.70058 3.09234 5.7308 3.12257 5.77991 3.12257ZM3.94759 5.76716C4.02315 5.76716 4.07982 5.71427 4.09115 5.63871C4.22338 4.63754 4.25361 4.63376 5.29633 4.43731C5.36811 4.42597 5.42478 4.37308 5.42478 4.29374C5.42478 4.21818 5.36811 4.16151 5.29255 4.15018C4.25739 4.00662 4.21961 3.97639 4.09115 2.95634C4.07982 2.877 4.02315 2.82411 3.94759 2.82411C3.86825 2.82411 3.81158 2.877 3.80403 2.96012C3.67935 3.9575 3.63402 3.9575 2.59885 4.15018C2.52329 4.16529 2.4704 4.21818 2.4704 4.29374C2.4704 4.37686 2.52329 4.42597 2.61396 4.43731C3.6378 4.59976 3.67935 4.62998 3.80403 5.63115C3.81158 5.71427 3.86825 5.76716 3.94759 5.76716ZM6.56573 9.94183C6.6753 9.94183 6.75841 9.86249 6.77352 9.74915C7.04554 7.70149 7.33644 7.38036 9.36144 7.15746C9.47856 7.14234 9.56168 7.05545 9.56168 6.94589C9.56168 6.83633 9.47856 6.74943 9.36144 6.73432C7.344 6.50009 7.05687 6.19785 6.77352 4.14262C6.75463 4.02929 6.6753 3.94995 6.56573 3.94995C6.45617 3.94995 6.37306 4.02929 6.35794 4.14262C6.08593 6.19029 5.79503 6.51142 3.77002 6.73432C3.64913 6.74943 3.56979 6.83633 3.56979 6.94589C3.56979 7.05545 3.64913 7.14234 3.77002 7.15746C5.77991 7.42569 6.05948 7.69393 6.35794 9.74915C6.37683 9.86249 6.45617 9.94183 6.56573 9.94183Z" fill="#B8B8B8"/>
</svg>
