<svg width="12" height="12" viewBox="0 0 12 12" fill="none" xmlns="http://www.w3.org/2000/svg">
<path d="M5.49045 11.6016H6.5454C6.94751 11.6016 7.25563 11.356 7.34962 10.9693L7.57419 9.99228L7.7413 9.93481L8.59259 10.4573C8.93204 10.6715 9.32373 10.6193 9.611 10.3319L10.3421 9.60563C10.6294 9.31827 10.6816 8.92119 10.4675 8.58679L9.93476 7.74032L9.99747 7.5836L10.9741 7.35367C11.3553 7.25964 11.606 6.94616 11.606 6.54907V5.5145C11.606 5.11742 11.3605 4.80393 10.9741 4.70988L10.0079 4.47476L9.93998 4.30756L10.4727 3.46112C10.6868 3.12673 10.6346 2.73486 10.3473 2.44226L9.61621 1.71077C9.3342 1.42862 8.94252 1.37637 8.60302 1.58537L7.75178 2.10787L7.57419 2.03994L7.34962 1.06288C7.25563 0.676236 6.94751 0.430664 6.5454 0.430664H5.49045C5.08829 0.430664 4.78018 0.676236 4.68617 1.06288L4.45638 2.03994L4.27882 2.10787L3.43277 1.58537C3.09331 1.37637 2.6964 1.42862 2.41438 1.71077L1.68846 2.44226C1.40122 2.73486 1.34378 3.12673 1.56312 3.46112L2.09059 4.30756L2.02792 4.47476L1.06176 4.70988C0.675297 4.80393 0.42984 5.11742 0.42984 5.5145V6.54907C0.42984 6.94616 0.68052 7.25964 1.06176 7.35367L2.03837 7.5836L2.09581 7.74032L1.56834 8.58679C1.349 8.92119 1.40645 9.31827 1.69368 9.60563L2.41961 10.3319C2.70685 10.6193 3.10376 10.6715 3.44322 10.4573L4.28926 9.93481L4.45638 9.99228L4.68617 10.9693C4.78018 11.356 5.08829 11.6016 5.49045 11.6016ZM5.57401 10.7865C5.48523 10.7865 5.43822 10.7499 5.42253 10.6663L5.10919 9.37052C4.79062 9.29214 4.49294 9.16677 4.26837 9.02565L3.12987 9.72583C3.0672 9.77282 2.9993 9.76239 2.93664 9.6997L2.32038 9.08312C2.26293 9.02565 2.25771 8.96296 2.29949 8.88984L2.9993 7.76124C2.87919 7.54178 2.74341 7.24395 2.65985 6.92525L1.36467 6.61698C1.28111 6.60128 1.24455 6.55429 1.24455 6.46548V5.59288C1.24455 5.49885 1.27588 5.45703 1.36467 5.44138L2.65462 5.12789C2.73818 4.78826 2.89486 4.47998 2.98886 4.28666L2.29427 3.15808C2.24726 3.0797 2.25249 3.017 2.30994 2.95431L2.93141 2.34821C2.99408 2.28552 3.05153 2.27506 3.12987 2.32209L4.25792 3.00655C4.48249 2.88115 4.80106 2.75053 5.11441 2.66171L5.42253 1.36593C5.43822 1.28233 5.48523 1.24575 5.57401 1.24575H6.46184C6.55061 1.24575 6.59758 1.28233 6.60806 1.36593L6.92661 2.67216C7.25042 2.75576 7.53243 2.88638 7.76742 3.01178L8.90071 2.32209C8.98427 2.27506 9.0365 2.28552 9.10438 2.34821L9.72067 2.95431C9.78333 3.017 9.78333 3.0797 9.73631 3.15808L9.04172 4.28666C9.14097 4.47998 9.2924 4.78826 9.37596 5.12789L10.6712 5.44138C10.7547 5.45703 10.7913 5.49885 10.7913 5.59288V6.46548C10.7913 6.55429 10.7495 6.60128 10.6712 6.61698L9.37074 6.92525C9.28718 7.24395 9.15661 7.54178 9.03129 7.76124L9.7311 8.88984C9.77286 8.96296 9.77286 9.02565 9.7102 9.08312L9.09916 9.6997C9.03129 9.76239 8.96863 9.77282 8.90071 9.72583L7.76221 9.02565C7.53764 9.16677 7.2452 9.29214 6.92661 9.37052L6.60806 10.6663C6.59758 10.7499 6.55061 10.7865 6.46184 10.7865H5.57401ZM6.01792 8.01203C7.10941 8.01203 8.00767 7.11336 8.00767 6.01609C8.00767 4.92931 7.10941 4.03064 6.01792 4.03064C4.92638 4.03064 4.02291 4.92931 4.02291 6.01609C4.02291 7.10814 4.92117 8.01203 6.01792 8.01203ZM6.01792 7.20217C5.3703 7.20217 4.83762 6.66923 4.83762 6.01609C4.83762 5.37343 5.3703 4.8405 6.01792 4.8405C6.65507 4.8405 7.18776 5.37343 7.18776 6.01609C7.18776 6.66402 6.65507 7.20217 6.01792 7.20217Z" fill="#B8B8B8"/>
</svg>
