<svg width="12" height="12" viewBox="0 0 12 12" fill="none" xmlns="http://www.w3.org/2000/svg">
<path d="M1.72108 5.99742C1.72108 5.53903 1.7916 5.09576 1.92257 4.68773L1.13171 4.35527C0.960442 4.87411 0.859695 5.42319 0.859695 5.99742C0.859695 6.56663 0.960442 7.12075 1.13675 7.63958L1.92257 7.30714C1.7916 6.89912 1.72108 6.45582 1.72108 5.99742ZM4.03824 2.17915L3.71585 1.4034C2.71846 1.9021 1.89738 2.72318 1.39869 3.72057L2.18451 4.048C2.58749 3.24706 3.24235 2.59221 4.03824 2.17915ZM5.99271 1.71572C6.45111 1.71572 6.89441 1.78624 7.31249 1.92225L7.63487 1.13643C7.11604 0.960121 6.56192 0.859375 5.99271 0.859375C5.42351 0.859375 4.86436 0.960121 4.34552 1.13643L4.67798 1.92225C5.09104 1.78624 5.53432 1.71572 5.99271 1.71572ZM9.81099 4.04296L10.5918 3.72057C10.0881 2.72318 9.26697 1.9021 8.26959 1.39837L7.9472 2.17915C8.74307 2.58717 9.40298 3.24202 9.81099 4.04296ZM10.2795 5.99742C10.2795 6.45582 10.2089 6.89912 10.078 7.31217L10.8588 7.64466C11.0351 7.12578 11.1358 6.56663 11.1358 5.99742C11.1358 5.42319 11.0351 4.86907 10.8588 4.35023L10.0729 4.6827C10.2089 5.09576 10.2795 5.53903 10.2795 5.99742ZM7.9472 9.81067L8.26959 10.5965C9.272 10.0928 10.0931 9.27168 10.5867 8.2743L9.81602 7.95191C9.40801 8.75285 8.74814 9.40266 7.9472 9.81067ZM5.99774 10.2792C5.53432 10.2792 5.09104 10.2086 4.67798 10.0726L4.35055 10.8584C4.86939 11.0348 5.42854 11.1355 5.99774 11.1355C6.56695 11.1355 7.12107 11.0348 7.63487 10.8635L7.30746 10.0777C6.89441 10.2086 6.45614 10.2792 5.99774 10.2792ZM2.18451 7.95191L1.40372 8.2743C1.90746 9.27168 2.71846 10.0928 3.71585 10.5915L4.03824 9.80564C3.24235 9.39763 2.58749 8.74782 2.18451 7.95191Z" fill="#B8B8B8"/>
<path d="M5.99272 8.5202C7.04551 8.5202 7.75072 7.82002 7.75072 7.48757C7.75072 7.37168 7.63488 7.31627 7.52909 7.36665C7.1614 7.56314 6.72312 7.7898 5.99272 7.7898C5.26232 7.7898 4.82407 7.56314 4.46138 7.36665C4.35056 7.31627 4.2347 7.37168 4.2347 7.48757C4.2347 7.82002 4.93992 8.5202 5.99272 8.5202ZM4.50168 5.55324C4.81903 5.55324 5.10112 5.2661 5.10112 4.86312C5.10112 4.4551 4.82407 4.16797 4.50168 4.16797C4.18433 4.16797 3.90727 4.4551 3.90727 4.86312C3.90727 5.2661 4.18433 5.55324 4.50168 5.55324ZM7.48881 5.55324C7.80617 5.55324 8.08824 5.2661 8.08824 4.86312C8.08824 4.4551 7.8112 4.16797 7.48881 4.16797C7.17146 4.16797 6.89442 4.4551 6.89442 4.86312C6.89442 5.2661 7.17146 5.55324 7.48881 5.55324Z" fill="#B8B8B8"/>
</svg>
