<svg width="12" height="12" viewBox="0 0 12 12" fill="none" xmlns="http://www.w3.org/2000/svg">
<path d="M6.01413 9.77576C8.15624 9.77576 9.92434 8.00767 9.92434 5.86933C9.92434 3.73099 8.15246 1.96289 6.01035 1.96289C3.87201 1.96289 2.10769 3.73099 2.10769 5.86933C2.10769 8.00767 3.87579 9.77576 6.01413 9.77576ZM6.01035 6.48514C5.26986 6.48136 4.69561 5.86177 4.69561 5.04195C4.68805 4.27124 5.27364 3.62898 6.01035 3.62898C6.74705 3.62898 7.32509 4.27124 7.32509 5.04195C7.32509 5.86177 6.75083 6.49269 6.01035 6.48514ZM6.01035 9.12973C5.16408 9.12973 4.26492 8.77838 3.69444 8.16634C4.12891 7.51653 4.99029 7.13873 6.01035 7.13873C7.01907 7.13873 7.88801 7.50897 8.32625 8.16634C7.75578 8.77838 6.85662 9.12973 6.01035 9.12973Z" fill="#B8B8B8"/>
</svg>
