<svg width="12" height="12" viewBox="0 0 12 12" fill="none" xmlns="http://www.w3.org/2000/svg">
<path d="M2.14867 6.62783C2.14867 7.6703 2.76264 8.22507 3.50071 8.22507C4.23878 8.22507 4.85275 7.6703 4.85275 6.62783C4.85275 5.59146 4.23878 5.03669 3.50071 5.03669C2.76264 5.03669 2.14867 5.59146 2.14867 6.62783ZM5.81943 6.62783C5.81943 7.99951 4.91154 8.92005 3.50071 8.92005C2.08989 8.92005 1.182 7.99951 1.182 6.62783C1.182 5.25616 2.08989 4.34171 3.50071 4.34171C4.91154 4.34171 5.81943 5.25616 5.81943 6.62783ZM3.13494 4.12834L2.09642 3.43945H3.20026L3.87301 4.12834H3.13494Z" fill="#B8B8B8"/>
<path d="M7.94449 8.07832C7.50958 7.85007 7.20765 7.35887 7.20765 6.62783C7.20765 5.59146 7.82162 5.03669 8.55969 5.03669C9.29776 5.03669 9.91173 5.59146 9.91173 6.62783C9.91173 6.90349 9.8688 7.14505 9.792 7.35127C10.1042 7.42222 10.3863 7.57681 10.6132 7.78991C10.7856 7.45891 10.8784 7.06643 10.8784 6.62783C10.8784 5.25616 9.97051 4.34171 8.55969 4.34171C7.14887 4.34171 6.24098 5.25616 6.24098 6.62783C6.24098 7.67844 6.77359 8.46439 7.65685 8.77476C7.70205 8.52026 7.80222 8.28382 7.94449 8.07832Z" fill="#B8B8B8"/>
<path d="M7.1554 3.43945L8.19392 4.12834H8.93199L8.25924 3.43945H7.1554Z" fill="#B8B8B8"/>
<path fill-rule="evenodd" clip-rule="evenodd" d="M10.8968 9.10192C10.8968 9.90473 10.2215 10.5742 9.42455 10.5742C8.61592 10.5742 7.95224 9.91052 7.95224 9.10192C7.95224 8.29332 8.61592 7.62964 9.42455 7.62964C10.2302 7.62964 10.8968 8.29332 10.8968 9.10192ZM9.24515 9.84397C9.24515 9.95123 9.31472 10.0237 9.42485 10.0237C9.53207 10.0237 9.60164 9.95123 9.60164 9.84397V9.27882H10.1668C10.274 9.27882 10.3465 9.20929 10.3465 9.10203C10.3465 8.9919 10.274 8.92236 10.1668 8.92236H9.60164V8.35721C9.60164 8.25286 9.53207 8.18042 9.42485 8.18042C9.31472 8.18042 9.24515 8.25286 9.24515 8.35721V8.92236H8.68C8.57277 8.92236 8.50321 8.9919 8.50321 9.10203C8.50321 9.20929 8.57277 9.27882 8.68 9.27882H9.24515V9.84397Z" fill="#B8B8B8"/>
</svg>
