<svg width="12" height="12" viewBox="0 0 12 12" fill="none" xmlns="http://www.w3.org/2000/svg">
<path d="M2.78697 6.88379L5.65346 3.95326C5.7514 3.8478 5.86817 3.79883 6 3.79883C6.13184 3.79883 6.25238 3.85156 6.35031 3.95326L9.21303 6.88379C9.2959 6.96666 9.3411 7.07213 9.3411 7.19643C9.3411 7.4488 9.14523 7.64467 8.89663 7.64467C8.77609 7.64467 8.65932 7.59947 8.57269 7.50907L6.00377 4.86858L3.42732 7.50907C3.34445 7.5957 3.22768 7.64467 3.10338 7.64467C2.85478 7.64467 2.65891 7.4488 2.65891 7.19643C2.65891 7.07589 2.70411 6.96666 2.78697 6.88379Z" fill="#B8B8B8"/>
</svg>
