<svg width="28" height="28" viewBox="0 0 28 28" fill="none" xmlns="http://www.w3.org/2000/svg">
<path d="M12.1363 19.0086C12.0481 19.2349 11.9434 19.5036 11.825 19.7649C11.5612 20.3472 11.1576 21.0643 10.4244 21.5905C9.89404 21.9712 9.253 22.1359 8.70388 22.2065C8.12821 22.2806 7.51112 22.269 6.92337 22.1934C6.33606 22.1178 5.73356 21.9725 5.19174 21.751C4.67546 21.5399 4.08655 21.2079 3.66573 20.6803C1.49471 17.9582 1.9375 14.7103 2.3052 12.2958C2.34204 12.0539 2.42414 11.8371 2.47842 11.7047C2.54187 11.55 2.61836 11.3905 2.69718 11.2378C2.85547 10.9313 3.05408 10.5927 3.25787 10.2725C3.46164 9.9524 3.68478 9.62841 3.8967 9.35436C4.06387 9.13818 4.3532 8.77811 4.68281 8.56063C5.48119 8.03388 6.41039 7.96634 7.0691 7.96625C7.41931 7.9662 7.76568 7.98747 8.0569 8.00565L8.06788 8.00634C8.2391 8.01703 8.38808 8.02633 8.52191 8.03241C8.6362 8.01346 8.73385 8.0123 8.80503 8.01547C8.90825 8.02007 8.99368 8.03563 9.05356 8.04939C9.16987 8.07611 9.26118 8.1128 9.31333 8.1355C9.37097 8.16058 9.42054 8.1862 9.4589 8.20725L9.55385 8.25937L9.63994 8.32601C11.1793 9.51751 11.9518 10.7251 12.344 11.881C12.5328 12.4376 12.6193 12.9416 12.6764 13.3402C12.6966 13.4818 12.712 13.5966 12.7249 13.6931C12.7535 13.9074 12.77 14.0308 12.8009 14.1543C13.1305 15.4724 13.058 17.0013 12.434 18.2951C12.3458 18.4781 12.2638 18.6824 12.1637 18.9385M12.1363 19.0086C12.1457 18.9847 12.1548 18.9613 12.1637 18.9385M12.1363 19.0086L12.1637 18.9385M8.11202 10.6116C8.22988 10.619 8.35536 10.6269 8.48347 10.6334C9.37517 11.4004 9.7239 12.0584 9.89571 12.5648C9.99882 12.8687 10.0541 13.165 10.1007 13.4907C10.1085 13.545 10.1168 13.6077 10.1258 13.6761C10.1614 13.9453 10.209 14.3045 10.2841 14.6051C10.4704 15.3499 10.4034 16.1509 10.1216 16.7352C9.97857 17.0318 9.85976 17.333 9.76122 17.5853M8.11202 10.6116C8.0952 10.6106 8.07854 10.6095 8.06205 10.6085M8.11202 10.6116L8.06205 10.6085M8.06205 10.6085C7.76298 10.5898 7.49622 10.5743 7.24155 10.5743C6.76558 10.5744 6.55295 10.5959 6.43147 10.6533M6.43147 10.6533C6.39373 10.6948 6.30352 10.7967 6.23604 10.8839C6.09049 11.0721 5.91779 11.3208 5.74835 11.587C5.57892 11.8531 5.42693 12.1146 5.31823 12.3251C5.26508 12.4281 5.22948 12.505 5.2086 12.5553C4.83288 15.0458 4.6747 17.5259 6.52655 18.9659C6.66853 19.0763 6.8308 19.0678 7.0284 19.0574C7.15021 19.0509 7.28543 19.0438 7.43761 19.0634C7.83625 19.1147 8.22063 19.1168 8.53395 19.0765C8.68917 19.0565 8.92658 18.98 9.01535 18.9507M6.43147 10.6533C6.43147 10.6533 6.42995 10.6548 6.42701 10.6575M9.01535 18.9507L9.01631 18.95M9.01535 18.9507C9.1582 18.8482 9.30233 18.667 9.48286 18.2685C9.567 18.0828 9.64329 17.8874 9.73688 17.6476M9.73688 17.6476C9.74487 17.6272 9.75297 17.6064 9.76122 17.5853M9.73688 17.6476L9.76122 17.5853M5.19342 12.5949C5.19342 12.5949 5.19411 12.5925 5.19601 12.5873M17.0783 12.4939C17.187 12.2834 17.339 12.022 17.5084 11.7558C17.6778 11.4896 17.8505 11.241 17.9961 11.0527C18.0636 10.9655 18.1169 10.902 18.1546 10.8605C18.2761 10.8031 18.5256 10.7432 19.0016 10.7431C19.2563 10.7431 19.523 10.7587 19.8221 10.7773C19.8386 10.7783 19.8553 10.7794 19.8721 10.7804C19.9899 10.7878 20.1154 10.7957 20.2435 10.8022C21.1352 11.5692 21.484 12.2273 21.6558 12.7336C21.7589 13.0375 21.8142 13.3338 21.8608 13.6595C21.8685 13.7139 21.8768 13.7765 21.8859 13.8449C21.9215 14.1141 21.969 14.4734 22.0442 14.7739C22.2304 15.5187 22.1634 16.3197 21.8816 16.904C21.7386 17.2006 21.6198 17.5019 21.5213 17.7541C21.513 17.7752 21.5049 17.796 21.4969 17.8164C21.4033 18.0562 21.3271 18.2516 21.2429 18.4373C21.0624 18.8358 20.9183 19.017 20.7754 19.1195L20.7764 19.1188C20.7764 19.1188 20.7754 19.1195 20.6599 19.1676C20.5711 19.197 20.4492 19.2253 20.294 19.2453C19.9807 19.2856 19.5963 19.2835 19.1977 19.2322C18.7986 19.1808 18.4298 19.0859 18.143 18.9687M17.0783 12.4939C17.0251 12.5969 16.9895 12.6738 16.9687 12.7242C16.5929 15.2146 16.4698 17.1511 17.7386 18.7418C17.7386 18.7418 18.1416 18.9674 18.143 18.9687M17.0783 12.4939C17.0764 12.4991 16.9535 12.7637 16.9535 12.7637M18.143 18.9687C17.8599 18.8529 18.1567 18.9812 18.143 18.9687ZM18.1915 10.8221C18.1915 10.8221 18.19 10.8236 18.1871 10.8263M5.99323 2.64138C5.56774 1.97966 4.70542 1.80085 4.06719 2.242C3.42895 2.68315 3.25649 3.5772 3.68198 4.23892C3.84025 4.48506 3.91796 4.63477 4.01076 4.88779C4.08687 5.09531 4.17559 5.28111 4.24743 5.42546C4.28679 5.50455 4.31568 5.56108 4.34099 5.61062C4.37288 5.673 4.39908 5.72428 4.43338 5.79552C4.5214 5.97839 4.53297 6.04122 4.53389 6.04562C4.57577 6.83827 5.2287 7.44654 5.99369 7.4048C6.7597 7.363 7.34798 6.68529 7.30766 5.8911C7.27754 5.29775 7.06498 4.81313 6.91884 4.50951C6.83955 4.34477 6.78344 4.23588 6.74027 4.15211C6.67994 4.03503 6.64489 3.96701 6.60714 3.8641C6.42778 3.37511 6.2456 3.03387 5.99323 2.64138ZM20.4541 7.92928C20.3202 7.9232 20.1712 7.9139 20 7.90321L19.9891 7.90253C19.6978 7.88435 19.3515 7.86308 19.0012 7.86313C18.3425 7.86321 17.4133 7.93076 16.615 8.45751C16.2853 8.67498 15.996 9.03505 15.8288 9.25124C15.6169 9.52529 15.3938 9.84927 15.19 10.1694C14.9862 10.4895 14.7876 10.8281 14.6293 11.1347C14.5505 11.2874 14.474 11.4469 14.4106 11.6016C14.3563 11.734 14.2742 11.9508 14.2373 12.1927C13.8696 14.6071 13.4269 17.8551 15.5979 20.5771C16.0187 21.1048 16.6076 21.4367 17.1239 21.6478C17.6657 21.8694 18.2682 22.0147 18.8555 22.0903C19.4433 22.1659 20.0604 22.1774 20.636 22.1034C21.1851 22.0327 21.8262 21.8681 22.3565 21.4874C23.0897 20.9611 23.4933 20.2441 23.7571 19.6618C23.8755 19.4005 23.9803 19.1317 24.0685 18.9055C24.0778 18.8816 24.0869 18.8582 24.0959 18.8353C24.1959 18.5793 24.2779 18.375 24.3662 18.192C24.9901 16.8981 25.0627 15.3693 24.7331 14.0512C24.7022 13.9277 24.6857 13.8043 24.657 13.59C24.6441 13.4935 24.6287 13.3786 24.6085 13.237C24.5515 12.8385 24.465 12.3345 24.2761 11.7778C23.8839 10.6219 23.1114 9.41439 21.5721 8.22288L21.486 8.15625L21.391 8.10413C21.3527 8.08307 21.3031 8.05746 21.2455 8.03237C21.1933 8.00967 21.102 7.97298 20.9857 7.94626C20.9258 7.93251 20.8404 7.91694 20.7372 7.91235C20.666 7.90917 20.5683 7.91034 20.4541 7.92928ZM17.797 2.80732C17.3715 2.1456 16.5092 1.96679 15.8709 2.40794C15.2327 2.84909 15.0602 3.74314 15.4857 4.40486C15.644 4.651 15.7217 4.80071 15.8145 5.05373C15.8906 5.26125 15.9793 5.44704 16.0512 5.59139C16.0905 5.67048 16.1194 5.72702 16.1447 5.77655C16.1766 5.83894 16.2028 5.89021 16.2371 5.96146C16.3251 6.14433 16.3367 6.20716 16.3376 6.21156C16.3795 7.00421 17.0325 7.61248 17.7974 7.57073C18.5634 7.52893 19.1517 6.85123 19.1114 6.05704C19.0813 5.46369 18.8687 4.97907 18.7226 4.67545C18.6433 4.5107 18.5872 4.40182 18.544 4.31805C18.4837 4.20097 18.4486 4.13295 18.4109 4.03004C18.2315 3.54104 18.0493 3.1998 17.797 2.80732Z" stroke="#B8B8B8" stroke-linecap="round"/>
<path d="M23.4927 19.3687C23.4927 18.7897 23.0293 18.3203 22.4577 18.3203C21.886 18.3203 21.4226 18.7897 21.4226 19.3687V20.985H19.7017C19.1301 20.985 18.6667 21.4544 18.6667 22.0335C18.6667 22.6125 19.1301 23.0819 19.7017 23.0819H21.4226V24.9519C21.4226 25.5309 21.886 26.0003 22.4577 26.0003C23.0293 26.0003 23.4927 25.5309 23.4927 24.9519V23.0819H25.965C26.5366 23.0819 27 22.6125 27 22.0335C27 21.4544 26.5366 20.985 25.965 20.985H23.4927V19.3687Z" fill="black" stroke="#B8B8B8" stroke-linecap="round"/>
</svg>
