<svg width="28" height="28" viewBox="0 0 28 28" fill="none" xmlns="http://www.w3.org/2000/svg">
<path fill-rule="evenodd" clip-rule="evenodd" d="M19.3522 2.97879C20.5639 3.50069 21.4241 4.21922 22.163 4.9945C22.5192 5.36829 22.8549 5.76387 23.1728 6.1384C23.1972 6.16719 23.2215 6.19585 23.2458 6.22437C23.5932 6.63348 23.9319 7.02847 24.3124 7.42257C25.2773 8.42191 25.4501 9.85956 25.5156 10.8686C25.5379 11.2133 25.55 11.5921 25.5609 11.9346C25.5664 12.108 25.5717 12.2721 25.5778 12.4177C25.598 12.9004 25.6295 13.2719 25.691 13.5611C26.0318 15.165 26.1154 17.4034 25.8166 19.0673C25.3218 21.8232 23.8257 23.9389 21.3782 25.1781C20.7261 25.5083 20.0369 25.6095 19.485 25.6583C19.2493 25.6791 19.0104 25.6921 18.7985 25.7036C18.7595 25.7057 18.7214 25.7078 18.6844 25.7099C18.434 25.7238 18.2235 25.7377 18.0325 25.7613C17.9776 25.7681 17.9223 25.775 17.8667 25.7819C17.0272 25.8861 16.1165 25.9991 15.1737 25.9991C15.068 25.9991 14.9571 25.9993 14.8419 25.9995C14.012 26.0011 12.9536 26.0031 11.9062 25.9305C10.7381 25.8495 9.43104 25.6685 8.39134 25.2052C6.78114 24.4878 5.67914 23.1489 4.81603 22.1004C4.75498 22.0262 4.69513 21.9535 4.63637 21.8826C3.5378 20.5561 2.60237 19.1052 2.18479 17.2022C1.6862 14.9301 2.29083 12.0829 2.88235 10.1361C2.92862 9.98381 2.96867 9.8271 3.01583 9.63944C3.01862 9.62834 3.02144 9.6171 3.0243 9.60572C3.06716 9.43503 3.11772 9.23366 3.17749 9.03214C3.30913 8.5883 3.50417 8.07413 3.87145 7.56754C4.92174 6.11885 6.33386 4.38412 7.9335 3.1891C8.05073 3.03496 8.17764 2.92193 8.27841 2.84484C8.49892 2.67612 8.73808 2.56723 8.93497 2.4935C9.33376 2.34418 9.81481 2.24667 10.296 2.17849C11.2763 2.0396 12.5187 1.9878 13.731 2.00237C14.946 2.01697 16.1868 2.09897 17.1691 2.24493C17.6538 2.31695 18.1217 2.41109 18.5059 2.53795C18.6951 2.60043 18.9132 2.6866 19.1169 2.81098C19.1765 2.84737 19.2604 2.90206 19.3522 2.97879ZM17.7275 5.14095C17.893 5.30789 18.0972 5.42507 18.3174 5.48248C19.1499 5.83229 19.7422 6.31383 20.3225 6.92268C20.6233 7.2383 20.9113 7.57752 21.2415 7.96647C21.2617 7.99025 21.282 8.01423 21.3025 8.03839C21.6505 8.44814 22.0381 8.90159 22.4839 9.36326C22.6912 9.57803 22.8544 10.0468 22.9197 11.0536C22.9394 11.358 22.9483 11.6429 22.9578 11.949C22.9636 12.1344 22.9696 12.3276 22.9784 12.5376C22.9997 13.0447 23.0373 13.6176 23.1514 14.1543C23.4248 15.441 23.4857 17.3037 23.2597 18.5627C22.9134 20.4912 21.9302 21.8693 20.2467 22.7217C20.0319 22.8305 19.7277 22.8993 19.2666 22.94C19.0763 22.9568 18.8858 22.9672 18.6735 22.9788C18.632 22.9811 18.5897 22.9834 18.5464 22.9858C18.2938 22.9999 18.0098 23.0174 17.7281 23.0521C17.6859 23.0574 17.644 23.0625 17.6023 23.0677C16.7269 23.176 15.9579 23.2712 15.1737 23.2712C15.0624 23.2712 14.9481 23.2714 14.8313 23.2716C13.9949 23.2729 13.0304 23.2745 12.078 23.2085C10.9679 23.1315 10.0268 22.9699 9.40902 22.6946C8.37123 22.2322 7.63634 21.3446 6.66865 20.1758C6.64621 20.1487 6.62365 20.1214 6.60096 20.094C5.64044 18.9343 5.00362 17.8811 4.72042 16.5906C4.39019 15.0857 4.78835 12.8503 5.36147 10.9641C5.43034 10.7374 5.48563 10.5183 5.53182 10.3345L5.53563 10.3194C5.58255 10.1327 5.61976 9.98462 5.66202 9.84214C5.74468 9.56341 5.82713 9.37793 5.94285 9.2183C7.00535 7.75276 8.29593 6.21448 9.62535 5.27867L10.0241 4.99796C10.1772 4.95929 10.3829 4.91889 10.6444 4.88183C11.453 4.76728 12.5579 4.71636 13.7012 4.7301C14.8417 4.74381 15.9648 4.82115 16.804 4.94585C17.2301 5.00916 17.5375 5.07818 17.7242 5.13984C17.7253 5.14021 17.7264 5.14058 17.7275 5.14095Z" stroke="#B8B8B8" stroke-linecap="round"/>
<path fill-rule="evenodd" clip-rule="evenodd" d="M11.259 8.25391C11.9775 8.25391 12.5599 8.86457 12.5599 9.61786V13.0408C12.5599 13.7941 11.9775 14.4048 11.259 14.4048C10.5405 14.4048 9.95807 13.7941 9.95807 13.0408V9.61786C9.95807 8.86457 10.5405 8.25391 11.259 8.25391Z" stroke="#B8B8B8" stroke-linecap="round"/>
<path fill-rule="evenodd" clip-rule="evenodd" d="M17.3579 7.85254C18.0764 7.85254 18.6588 8.4632 18.6588 9.21649V11.8221C18.6588 12.3248 18.6625 12.4298 18.7066 12.5685C18.9338 13.2831 18.5655 14.0555 17.8839 14.2938C17.2022 14.532 16.4655 14.1458 16.2383 13.4311C16.052 12.8453 16.0547 12.3051 16.0566 11.9263C16.0568 11.8901 16.057 11.8553 16.057 11.8221V9.21649C16.057 8.4632 16.6394 7.85254 17.3579 7.85254Z" stroke="#B8B8B8" stroke-linecap="round"/>
<path d="M12.075 16.7986C12.1518 16.8815 12.3641 17.1037 12.4146 17.1634C12.4166 17.1656 12.4184 17.1679 12.4203 17.1701C12.4778 17.238 12.5134 17.2797 12.5471 17.3162C12.5666 17.3373 12.5803 17.3507 12.5885 17.3584C13.0931 17.6081 13.5531 17.7446 14.1662 17.8495C14.7361 17.9471 15.4108 17.8099 15.9122 17.4984C16.0753 17.3971 16.238 17.277 16.4343 17.1262C16.4671 17.101 16.5016 17.0744 16.5375 17.0466C16.7012 16.92 16.8946 16.7706 17.0916 16.6328C17.6894 16.215 18.4971 16.3844 18.8957 17.0111C19.2942 17.6379 19.1327 18.4847 18.5349 18.9026C18.3939 19.0012 18.2616 19.1033 18.1017 19.2268C18.0606 19.2585 18.0176 19.2917 17.9722 19.3266C17.7643 19.4863 17.5168 19.6724 17.2386 19.8452C16.2234 20.476 14.9322 20.7447 13.7469 20.5418C12.9354 20.4028 12.2228 20.199 11.4383 19.8056C11.0879 19.6299 10.8392 19.3883 10.6786 19.2145C10.6019 19.1316 10.5314 19.0482 10.4809 18.9886C10.4788 18.9861 10.4767 18.9836 10.4746 18.9811C10.4281 18.9263 10.3967 18.8894 10.3696 18.8592C10.3631 18.8535 10.3532 18.845 10.3391 18.833C10.335 18.8295 10.3304 18.8256 10.3253 18.8213C10.2836 18.786 10.208 18.722 10.1362 18.6542C10.0581 18.5805 9.92987 18.4524 9.81463 18.2805C9.70544 18.1176 9.52441 17.7922 9.52441 17.3474C9.52441 16.5941 10.1069 15.9834 10.8254 15.9834C11.3259 15.9834 11.7604 16.2798 11.9779 16.7142C12.003 16.7356 12.0387 16.766 12.075 16.7986ZM12.075 16.7986C12.0206 16.74 12.1102 16.8304 12.075 16.7986ZM11.8758 16.6256C11.8728 16.6228 12.0055 16.7378 12.0055 16.7378" stroke="#B8B8B8" stroke-linecap="round"/>
</svg>
